999
dxfrw 0.5.10
0
SECTION
2
HEADER
9
$ACADVER
1
AC1021
9
$HANDSEED
5
20000
9
$DWGCODEPAGE
3
ANSI_1252
9
$INSBASE
10
0
20
0
30
0
9
$EXTMIN
10
7.105997
20
8.275231
30
0
9
$EXTMAX
10
146.071703
20
167.00655013
30
0
9
$LIMMIN
10
0
20
0
9
$LIMMAX
10
420
20
297
9
$ORTHOMODE
70
0
9
$LTSCALE
40
1
9
$TEXTSTYLE
7
STANDARD
9
$CLAYER
8
Layer_1
9
$DIMASZ
40
2.5
9
$DIMLFAC
40
1
9
$DIMSCALE
40
1
9
$DIMEXO
40
0.625
9
$DIMEXE
40
1.25
9
$DIMTXT
40
2.5
9
$DIMTSZ
40
0
9
$DIMAUNIT
70
0
9
$DIMADEC
70
0
9
$DIMLUNIT
70
2
9
$DIMSTYLE
2
Standard
9
$DIMGAP
40
0.625
9
$DIMTIH
70
0
9
$LUNITS
70
2
9
$LUPREC
70
4
9
$AUNITS
70
0
9
$AUPREC
70
2
9
$SPLINESEGS
70
8
9
$GRIDMODE
70
1
9
$SNAPSTYLE
70
0
9
$PINSBASE
10
0
20
0
30
0
9
$PLIMMIN
10
0
20
0
9
$PLIMMAX
10
210
20
297
9
$INSUNITS
70
4
9
$PSVPSCALE
40
1
0
ENDSEC
0
SECTION
2
CLASSES
0
ENDSEC
0
SECTION
2
TABLES
0
TABLE
2
VPORT
5
8
330
0
100
AcDbSymbolTable
70
1
0
VPORT
5
31
330
2
100
AcDbSymbolTableRecord
100
AcDbViewportTableRecord
2
*ACTIVE
70
0
10
0
20
0
11
1
21
1
12
107.478559436
22
84.4401902277
13
0
23
0
14
10
24
10
15
10
25
10
16
0
26
0
36
1
17
0
27
0
37
0
40
162.79094366
41
1.69950124688
42
50
43
0
44
0
50
0
51
0
71
0
72
100
73
1
74
3
75
0
76
1
77
0
78
0
281
0
65
1
110
0
120
0
130
0
111
1
121
0
131
0
112
0
122
1
132
0
79
0
146
0
348
10020
60
7
61
5
292
1
282
1
141
0
142
0
63
250
421
3358443
0
ENDTAB
0
TABLE
2
LTYPE
5
5
330
0
100
AcDbSymbolTable
70
4
0
LTYPE
5
14
330
5
100
AcDbSymbolTableRecord
100
AcDbLinetypeTableRecord
2
ByBlock
70
0
3

72
65
73
0
40
0
0
LTYPE
5
15
330
5
100
AcDbSymbolTableRecord
100
AcDbLinetypeTableRecord
2
ByLayer
70
0
3

72
65
73
0
40
0
0
LTYPE
5
16
330
5
100
AcDbSymbolTableRecord
100
AcDbLinetypeTableRecord
2
Continuous
70
0
3
Solid line
72
65
73
0
40
0
0
LTYPE
5
32
330
5
100
AcDbSymbolTableRecord
100
AcDbLinetypeTableRecord
2
DOT
70
0
3
Dot . . . . . . . . . . . . . . . . . . . . . .
72
65
73
2
40
6.35
49
0
74
0
49
-6.35
74
0
0
LTYPE
5
33
330
5
100
AcDbSymbolTableRecord
100
AcDbLinetypeTableRecord
2
DOT2
70
0
3
Dot (.5x) .....................................
72
65
73
2
40
3.175
49
0
74
0
49
-3.175
74
0
0
LTYPE
5
34
330
5
100
AcDbSymbolTableRecord
100
AcDbLinetypeTableRecord
2
DOTX2
70
0
3
Dot (2x) .  .  .  .  .  .  .  .  .  .  .  .  .
72
65
73
2
40
12.7
49
0
74
0
49
-12.7
74
0
0
LTYPE
5
35
330
5
100
AcDbSymbolTableRecord
100
AcDbLinetypeTableRecord
2
DASHED
70
0
3
Dot . . . . . . . . . . . . . . . . . . . . . .
72
65
73
2
40
19.05
49
12.7
74
0
49
-6.35
74
0
0
LTYPE
5
36
330
5
100
AcDbSymbolTableRecord
100
AcDbLinetypeTableRecord
2
DASHED2
70
0
3
Dashed (.5x) _ _ _ _ _ _ _ _ _ _ _ _ _ _ _ _ _
72
65
73
2
40
9.525
49
6.35
74
0
49
-3.175
74
0
0
LTYPE
5
37
330
5
100
AcDbSymbolTableRecord
100
AcDbLinetypeTableRecord
2
DASHEDX2
70
0
3
Dashed (2x) ____  ____  ____  ____  ____  ___
72
65
73
2
40
38.1
49
25.4
74
0
49
-12.7
74
0
0
LTYPE
5
38
330
5
100
AcDbSymbolTableRecord
100
AcDbLinetypeTableRecord
2
DASHDOT
70
0
3
Dash dot __ . __ . __ . __ . __ . __ . __ . __
72
65
73
4
40
25.4
49
12.7
74
0
49
-6.35
74
0
49
0
74
0
49
-6.35
74
0
0
LTYPE
5
39
330
5
100
AcDbSymbolTableRecord
100
AcDbLinetypeTableRecord
2
DASHDOT2
70
0
3
Dash dot (.5x) _._._._._._._._._._._._._._._.
72
65
73
4
40
12.7
49
6.35
74
0
49
-3.175
74
0
49
0
74
0
49
-3.175
74
0
0
LTYPE
5
3A
330
5
100
AcDbSymbolTableRecord
100
AcDbLinetypeTableRecord
2
DASHDOTX2
70
0
3
Dash dot (2x) ____  .  ____  .  ____  .  ___
72
65
73
4
40
50.8
49
25.4
74
0
49
-12.7
74
0
49
0
74
0
49
-12.7
74
0
0
LTYPE
5
3B
330
5
100
AcDbSymbolTableRecord
100
AcDbLinetypeTableRecord
2
DIVIDE
70
0
3
Divide ____ . . ____ . . ____ . . ____ . . ____
72
65
73
6
40
31.75
49
12.7
74
0
49
-6.35
74
0
49
0
74
0
49
-6.35
74
0
49
0
74
0
49
-6.35
74
0
0
LTYPE
5
3C
330
5
100
AcDbSymbolTableRecord
100
AcDbLinetypeTableRecord
2
DIVIDE2
70
0
3
Divide (.5x) __..__..__..__..__..__..__..__.._
72
65
73
6
40
15.875
49
6.35
74
0
49
-3.175
74
0
49
0
74
0
49
-3.175
74
0
49
0
74
0
49
-3.175
74
0
0
LTYPE
5
3D
330
5
100
AcDbSymbolTableRecord
100
AcDbLinetypeTableRecord
2
DIVIDEX2
70
0
3
Divide (2x) ________  .  .  ________  .  .  _
72
65
73
6
40
63.5
49
25.4
74
0
49
-12.7
74
0
49
0
74
0
49
-12.7
74
0
49
0
74
0
49
-12.7
74
0
0
LTYPE
5
3E
330
5
100
AcDbSymbolTableRecord
100
AcDbLinetypeTableRecord
2
BORDER
70
0
3
Border __ __ . __ __ . __ __ . __ __ . __ __ .
72
65
73
6
40
44.45
49
12.7
74
0
49
-6.35
74
0
49
12.7
74
0
49
-6.35
74
0
49
0
74
0
49
-6.35
74
0
0
LTYPE
5
3F
330
5
100
AcDbSymbolTableRecord
100
AcDbLinetypeTableRecord
2
BORDER2
70
0
3
Border (.5x) __.__.__.__.__.__.__.__.__.__.__.
72
65
73
6
40
22.225
49
6.35
74
0
49
-3.175
74
0
49
6.35
74
0
49
-3.175
74
0
49
0
74
0
49
-3.175
74
0
0
LTYPE
5
40
330
5
100
AcDbSymbolTableRecord
100
AcDbLinetypeTableRecord
2
BORDERX2
70
0
3
Border (2x) ____  ____  .  ____  ____  .  ___
72
65
73
6
40
88.9
49
25.4
74
0
49
-12.7
74
0
49
25.4
74
0
49
-12.7
74
0
49
0
74
0
49
-12.7
74
0
0
LTYPE
5
41
330
5
100
AcDbSymbolTableRecord
100
AcDbLinetypeTableRecord
2
CENTER
70
0
3
Center ____ _ ____ _ ____ _ ____ _ ____ _ ____
72
65
73
4
40
50.8
49
31.75
74
0
49
-6.35
74
0
49
6.35
74
0
49
-6.35
74
0
0
LTYPE
5
42
330
5
100
AcDbSymbolTableRecord
100
AcDbLinetypeTableRecord
2
CENTER2
70
0
3
Center (.5x) ___ _ ___ _ ___ _ ___ _ ___ _ ___
72
65
73
4
40
28.575
49
19.05
74
0
49
-3.175
74
0
49
3.175
74
0
49
-3.175
74
0
0
LTYPE
5
43
330
5
100
AcDbSymbolTableRecord
100
AcDbLinetypeTableRecord
2
CENTERX2
70
0
3
Center (2x) ________  __  ________  __  _____
72
65
73
4
40
101.6
49
63.5
74
0
49
-12.7
74
0
49
12.7
74
0
49
-12.7
74
0
0
ENDTAB
0
TABLE
2
LAYER
5
2
330
0
100
AcDbSymbolTable
70
1
0
LAYER
5
10
330
2
100
AcDbSymbolTableRecord
100
AcDbLayerTableRecord
2
0
70
0
62
7
6
CONTINUOUS
370
-3
390
F
0
LAYER
5
44
330
2
100
AcDbSymbolTableRecord
100
AcDbLayerTableRecord
2
Layer_1
70
0
62
7
6
CONTINUOUS
370
-3
390
F
0
ENDTAB
0
TABLE
2
STYLE
5
3
330
0
100
AcDbSymbolTable
70
3
0
STYLE
5
45
330
2
100
AcDbSymbolTableRecord
100
AcDbTextStyleTableRecord
2
Standard
70
0
40
0
41
1
50
0
71
0
42
1
3
txt
4

0
ENDTAB
0
TABLE
2
VIEW
5
6
330
0
100
AcDbSymbolTable
70
0
0
ENDTAB
0
TABLE
2
UCS
5
7
330
0
100
AcDbSymbolTable
70
0
0
ENDTAB
0
TABLE
2
APPID
5
9
330
0
100
AcDbSymbolTable
70
1
0
APPID
5
12
330
9
100
AcDbSymbolTableRecord
100
AcDbRegAppTableRecord
2
ACAD
70
0
0
ENDTAB
0
TABLE
2
DIMSTYLE
5
A
330
0
100
AcDbSymbolTable
70
1
100
AcDbDimStyleTable
71
1
0
DIMSTYLE
105
46
330
A
100
AcDbSymbolTableRecord
100
AcDbDimStyleTableRecord
2
Standard
70
0
40
1
41
2.5
42
0.625
43
0.38
44
1.25
45
0
46
0
47
0
48
0
140
2.5
141
0.09
142
0
143
25.4
144
1
145
0
146
1
147
0.625
148
0
71
0
72
0
73
0
74
1
75
0
76
0
77
0
78
0
79
0
170
0
171
2
172
0
173
0
174
0
175
0
176
0
177
0
178
0
179
0
271
4
272
4
273
2
274
2
275
0
276
0
277
2
278
46
279
0
280
0
281
0
282
0
283
1
284
0
285
0
286
0
288
0
289
3
340
Standard
341

371
-2
372
-2
0
ENDTAB
0
TABLE
2
BLOCK_RECORD
5
1
330
0
100
AcDbSymbolTable
70
2
0
BLOCK_RECORD
5
1F
330
1
100
AcDbSymbolTableRecord
100
AcDbBlockTableRecord
2
*Model_Space
70
0
280
1
281
0
0
BLOCK_RECORD
5
1E
330
1
100
AcDbSymbolTableRecord
100
AcDbBlockTableRecord
2
*Paper_Space
70
0
280
1
281
0
0
ENDTAB
0
ENDSEC
0
SECTION
2
BLOCKS
0
BLOCK
5
20
330
1F
100
AcDbEntity
8
0
100
AcDbBlockBegin
2
*Model_Space
70
0
10
0
20
0
30
0
3
*Model_Space
1

0
ENDBLK
5
21
330
1F
100
AcDbEntity
8
0
100
AcDbBlockEnd
0
BLOCK
5
1C
330
1B
100
AcDbEntity
8
0
100
AcDbBlockBegin
2
*Paper_Space
70
0
10
0
20
0
30
0
3
*Paper_Space
1

0
ENDBLK
5
1D
330
1F
100
AcDbEntity
8
0
100
AcDbBlockEnd
0
ENDSEC
0
SECTION
2
ENTITIES
0
IMAGE
5
49
100
AcDbEntity
8
Layer_1
6
ByLayer
62
256
370
-1
100
AcDbRasterImage
10
140.356793381
20
46.9185782231
30
0
11
1.53080849893e-18
21
0.025
31
0
12
-0.025
22
3.06161699787e-18
32
0
13
1000
23
352
340
47
70
1
280
0
281
50
282
50
283
0
360
48
0
LINE
5
4A
100
AcDbEntity
8
Layer_1
6
ByLayer
62
1
370
-1
100
AcDbLine
10
107.100207643
20
64.5774188367
11
107.100207643
21
67.576110837
0
LINE
5
4B
100
AcDbEntity
8
Layer_1
6
ByLayer
62
1
370
-1
100
AcDbLine
10
116.091424643
20
64.5774188367
11
107.100207643
21
64.5774188367
0
LINE
5
4C
100
AcDbEntity
8
Layer_1
6
ByLayer
62
1
370
-1
100
AcDbLine
10
107.100207643
20
67.576110837
11
116.091424643
21
67.576110837
0
LINE
5
4D
100
AcDbEntity
8
Layer_1
6
ByLayer
62
1
370
-1
100
AcDbLine
10
116.091424643
20
67.576110837
11
116.091424643
21
64.5774188367
0
LINE
5
4E
100
AcDbEntity
8
Layer_1
6
ByLayer
62
1
370
-1
100
AcDbLine
10
35.4794038044
20
64.5774188367
11
35.4794038044
21
67.576110837
0
LINE
5
4F
100
AcDbEntity
8
Layer_1
6
ByLayer
62
1
370
-1
100
AcDbLine
10
44.4706208044
20
64.5774188367
11
35.4794038044
21
64.5774188367
0
LINE
5
50
100
AcDbEntity
8
Layer_1
6
ByLayer
62
1
370
-1
100
AcDbLine
10
35.4794038044
20
67.576110837
11
44.4706208044
21
67.576110837
0
LINE
5
51
100
AcDbEntity
8
Layer_1
6
ByLayer
62
1
370
-1
100
AcDbLine
10
44.4706208044
20
67.576110837
11
44.4706208044
21
64.5774188367
0
LINE
5
52
100
AcDbEntity
8
Layer_1
6
ByLayer
62
1
370
-1
100
AcDbLine
10
116.091424643
20
127.694967611
11
116.091424643
21
130.693659611
0
LINE
5
53
100
AcDbEntity
8
Layer_1
6
ByLayer
62
1
370
-1
100
AcDbLine
10
107.100207643
20
130.693659611
11
116.091424643
21
130.693659611
0
LINE
5
54
100
AcDbEntity
8
Layer_1
6
ByLayer
62
1
370
-1
100
AcDbLine
10
107.100207643
20
130.693659611
11
107.100207643
21
127.694967611
0
LINE
5
55
100
AcDbEntity
8
Layer_1
6
ByLayer
62
1
370
-1
100
AcDbLine
10
116.091424643
20
109.194967611
11
116.091424643
21
106.196275611
0
LINE
5
56
100
AcDbEntity
8
Layer_1
6
ByLayer
62
1
370
-1
100
AcDbLine
10
107.100207643
20
106.196275611
11
116.091424643
21
106.196275611
0
LINE
5
57
100
AcDbEntity
8
Layer_1
6
ByLayer
62
1
370
-1
100
AcDbLine
10
107.100207643
20
106.196275611
11
107.100207643
21
109.194967611
0
LINE
5
58
100
AcDbEntity
8
Layer_1
6
ByLayer
62
256
370
-1
100
AcDbLine
10
139.091
20
109.195
11
141.591
21
111.695
0
LINE
5
59
100
AcDbEntity
8
Layer_1
6
ByLayer
62
1
370
-1
100
AcDbLine
10
141.591424643
20
111.695424643
11
141.591424643
21
127.694967611
0
LINE
5
5A
100
AcDbEntity
8
Layer_1
6
ByLayer
62
1
370
-1
100
AcDbLine
10
81.600207643
20
109.194967611
11
81.600207643
21
127.694967611
0
LINE
5
5B
100
AcDbEntity
8
Layer_1
6
ByLayer
62
1
370
-1
100
AcDbLine
10
81.600207643
20
127.694967611
11
107.100207643
21
127.694967611
0
LINE
5
5C
100
AcDbEntity
8
Layer_1
6
ByLayer
62
1
370
-1
100
AcDbLine
10
81.600207643
20
109.194967611
11
107.100207643
21
109.194967611
0
LINE
5
5D
100
AcDbEntity
8
Layer_1
6
ByLayer
62
1
370
-1
100
AcDbLine
10
141.591424643
20
127.694967611
11
116.091424643
21
127.694967611
0
LINE
5
5E
100
AcDbEntity
8
Layer_1
6
ByLayer
62
1
370
-1
100
AcDbLine
10
139.090967611
20
109.194967611
11
116.091424643
21
109.194967611
0
LINE
5
5F
100
AcDbEntity
8
Layer_1
6
ByLayer
62
1
370
-1
100
AcDbLine
10
107.332638643
20
101.576110837
11
115.876632643
21
101.576110837
0
LINE
5
60
100
AcDbEntity
8
Layer_1
6
ByLayer
62
1
370
-1
100
AcDbLine
10
115.876632643
20
44.5774188367
11
107.332638643
21
44.5774188367
0
LINE
5
61
100
AcDbEntity
8
Layer_1
6
ByLayer
62
1
370
-1
100
AcDbLine
10
97.331388643
20
101.576110837
11
97.331388643
21
104.076110837
0
ARC
5
62
100
AcDbEntity
8
Layer_1
6
ByLayer
62
256
370
-1
100
AcDbCircle
10
97.831388643
20
104.076110837
40
0.5
100
AcDbArc
50
90
51
180
0
LINE
5
63
100
AcDbEntity
8
Layer_1
6
ByLayer
62
1
370
-1
100
AcDbLine
10
97.831388643
20
104.576110837
11
106.832638643
21
104.576110837
0
LINE
5
64
100
AcDbEntity
8
Layer_1
6
ByLayer
62
1
370
-1
100
AcDbLine
10
107.332638643
20
104.076110837
11
107.332638643
21
101.576110837
0
ARC
5
65
100
AcDbEntity
8
Layer_1
6
ByLayer
62
256
370
-1
100
AcDbCircle
10
106.832638643
20
104.076110837
40
0.5
100
AcDbArc
50
0
51
90
0
LINE
5
66
100
AcDbEntity
8
Layer_1
6
ByLayer
62
1
370
-1
100
AcDbLine
10
115.876632643
20
101.576110837
11
115.876632643
21
104.076110837
0
ARC
5
67
100
AcDbEntity
8
Layer_1
6
ByLayer
62
256
370
-1
100
AcDbCircle
10
116.376632643
20
104.076110837
40
0.5
100
AcDbArc
50
90
51
180
0
LINE
5
68
100
AcDbEntity
8
Layer_1
6
ByLayer
62
1
370
-1
100
AcDbLine
10
125.877882643
20
104.076110837
11
125.877882643
21
101.576110837
0
LINE
5
69
100
AcDbEntity
8
Layer_1
6
ByLayer
62
1
370
-1
100
AcDbLine
10
116.376632643
20
104.576110837
11
125.377882643
21
104.576110837
0
ARC
5
6A
100
AcDbEntity
8
Layer_1
6
ByLayer
62
256
370
-1
100
AcDbCircle
10
125.377882643
20
104.076110837
40
0.5
100
AcDbArc
50
0
51
90
0
LINE
5
6B
100
AcDbEntity
8
Layer_1
6
ByLayer
62
1
370
-1
100
AcDbLine
10
81.600207643
20
101.576110837
11
97.331388643
21
101.576110837
0
LINE
5
6C
100
AcDbEntity
8
Layer_1
6
ByLayer
62
1
370
-1
100
AcDbLine
10
125.877882643
20
101.576110837
11
141.591424643
21
101.576110837
0
LINE
5
6D
100
AcDbEntity
8
Layer_1
6
ByLayer
62
1
370
-1
100
AcDbLine
10
81.600207643
20
44.5774188367
11
81.600207643
21
101.576110837
0
LINE
5
6E
100
AcDbEntity
8
Layer_1
6
ByLayer
62
1
370
-1
100
AcDbLine
10
97.331388643
20
44.5774188367
11
81.600207643
21
44.5774188367
0
LINE
5
6F
100
AcDbEntity
8
Layer_1
6
ByLayer
62
1
370
-1
100
AcDbLine
10
141.591424643
20
101.576110837
11
141.591424643
21
44.5774188367
0
LINE
5
70
100
AcDbEntity
8
Layer_1
6
ByLayer
62
1
370
-1
100
AcDbLine
10
141.591424643
20
44.5774188367
11
125.877882643
21
44.5774188367
0
LINE
5
71
100
AcDbEntity
8
Layer_1
6
ByLayer
62
1
370
-1
100
AcDbLine
10
97.331388643
20
42.0774188367
11
97.331388643
21
44.5774188367
0
ARC
5
72
100
AcDbEntity
8
Layer_1
6
ByLayer
62
256
370
-1
100
AcDbCircle
10
97.831388643
20
42.0774188367
40
0.5
100
AcDbArc
50
180
51
270
0
LINE
5
73
100
AcDbEntity
8
Layer_1
6
ByLayer
62
1
370
-1
100
AcDbLine
10
106.832638643
20
41.5774188367
11
97.831388643
21
41.5774188367
0
LINE
5
74
100
AcDbEntity
8
Layer_1
6
ByLayer
62
1
370
-1
100
AcDbLine
10
107.332638643
20
44.5774188367
11
107.332638643
21
42.0774188367
0
ARC
5
75
100
AcDbEntity
8
Layer_1
6
ByLayer
62
256
370
-1
100
AcDbCircle
10
106.832638643
20
42.0774188367
40
0.5
100
AcDbArc
50
270
51
0
0
LINE
5
76
100
AcDbEntity
8
Layer_1
6
ByLayer
62
1
370
-1
100
AcDbLine
10
115.876632643
20
42.0774188367
11
115.876632643
21
44.5774188367
0
ARC
5
77
100
AcDbEntity
8
Layer_1
6
ByLayer
62
256
370
-1
100
AcDbCircle
10
116.376632643
20
42.0774188367
40
0.5
100
AcDbArc
50
180
51
270
0
LINE
5
78
100
AcDbEntity
8
Layer_1
6
ByLayer
62
1
370
-1
100
AcDbLine
10
125.377882643
20
41.5774188367
11
116.376632643
21
41.5774188367
0
LINE
5
79
100
AcDbEntity
8
Layer_1
6
ByLayer
62
1
370
-1
100
AcDbLine
10
125.877882643
20
44.5774188367
11
125.877882643
21
42.0774188367
0
ARC
5
7A
100
AcDbEntity
8
Layer_1
6
ByLayer
62
256
370
-1
100
AcDbCircle
10
125.377882643
20
42.0774188367
40
0.5
100
AcDbArc
50
270
51
0
0
LINE
5
7B
100
AcDbEntity
8
Layer_1
6
ByLayer
62
1
370
-1
100
AcDbLine
10
35.4794038044
20
64.5774188367
11
35.4794038044
21
67.576110837
0
LINE
5
7C
100
AcDbEntity
8
Layer_1
6
ByLayer
62
1
370
-1
100
AcDbLine
10
44.4706208044
20
64.5774188367
11
35.4794038044
21
64.5774188367
0
LINE
5
7D
100
AcDbEntity
8
Layer_1
6
ByLayer
62
1
370
-1
100
AcDbLine
10
35.4794038044
20
67.576110837
11
44.4706208044
21
67.576110837
0
LINE
5
7E
100
AcDbEntity
8
Layer_1
6
ByLayer
62
1
370
-1
100
AcDbLine
10
44.4706208044
20
67.576110837
11
44.4706208044
21
64.5774188367
0
LINE
5
7F
100
AcDbEntity
8
Layer_1
6
ByLayer
62
1
370
-1
100
AcDbLine
10
35.7118348044
20
101.576110837
11
44.2558288044
21
101.576110837
0
LINE
5
80
100
AcDbEntity
8
Layer_1
6
ByLayer
62
1
370
-1
100
AcDbLine
10
44.2558288044
20
44.5774188367
11
35.7118348044
21
44.5774188367
0
LINE
5
81
100
AcDbEntity
8
Layer_1
6
ByLayer
62
1
370
-1
100
AcDbLine
10
25.7105848044
20
101.576110837
11
25.7105848044
21
104.076110837
0
ARC
5
82
100
AcDbEntity
8
Layer_1
6
ByLayer
62
256
370
-1
100
AcDbCircle
10
26.2105848044
20
104.076110837
40
0.5
100
AcDbArc
50
90
51
180
0
LINE
5
83
100
AcDbEntity
8
Layer_1
6
ByLayer
62
1
370
-1
100
AcDbLine
10
26.2105848044
20
104.576110837
11
35.2118348044
21
104.576110837
0
LINE
5
84
100
AcDbEntity
8
Layer_1
6
ByLayer
62
1
370
-1
100
AcDbLine
10
35.7118348044
20
104.076110837
11
35.7118348044
21
101.576110837
0
ARC
5
85
100
AcDbEntity
8
Layer_1
6
ByLayer
62
256
370
-1
100
AcDbCircle
10
35.2118348044
20
104.076110837
40
0.5
100
AcDbArc
50
0
51
90
0
LINE
5
86
100
AcDbEntity
8
Layer_1
6
ByLayer
62
1
370
-1
100
AcDbLine
10
44.2558288044
20
101.576110837
11
44.2558288044
21
104.076110837
0
ARC
5
87
100
AcDbEntity
8
Layer_1
6
ByLayer
62
256
370
-1
100
AcDbCircle
10
44.7558288044
20
104.076110837
40
0.5
100
AcDbArc
50
90
51
180
0
LINE
5
88
100
AcDbEntity
8
Layer_1
6
ByLayer
62
1
370
-1
100
AcDbLine
10
54.2570788044
20
104.076110837
11
54.2570788044
21
101.576110837
0
LINE
5
89
100
AcDbEntity
8
Layer_1
6
ByLayer
62
1
370
-1
100
AcDbLine
10
44.7558288044
20
104.576110837
11
53.7570788044
21
104.576110837
0
ARC
5
8A
100
AcDbEntity
8
Layer_1
6
ByLayer
62
256
370
-1
100
AcDbCircle
10
53.7570788044
20
104.076110837
40
0.5
100
AcDbArc
50
0
51
90
0
LINE
5
8B
100
AcDbEntity
8
Layer_1
6
ByLayer
62
1
370
-1
100
AcDbLine
10
9.9794038044
20
101.576110837
11
25.7105848044
21
101.576110837
0
LINE
5
8C
100
AcDbEntity
8
Layer_1
6
ByLayer
62
1
370
-1
100
AcDbLine
10
54.2570788044
20
101.576110837
11
69.9706208044
21
101.576110837
0
LINE
5
8D
100
AcDbEntity
8
Layer_1
6
ByLayer
62
1
370
-1
100
AcDbLine
10
9.9794038044
20
44.5774188367
11
9.9794038044
21
101.576110837
0
LINE
5
8E
100
AcDbEntity
8
Layer_1
6
ByLayer
62
1
370
-1
100
AcDbLine
10
25.7105848044
20
44.5774188367
11
9.9794038044
21
44.5774188367
0
LINE
5
8F
100
AcDbEntity
8
Layer_1
6
ByLayer
62
1
370
-1
100
AcDbLine
10
69.9706208044
20
101.576110837
11
69.9706208044
21
44.5774188367
0
LINE
5
90
100
AcDbEntity
8
Layer_1
6
ByLayer
62
1
370
-1
100
AcDbLine
10
69.9706208044
20
44.5774188367
11
54.2570788044
21
44.5774188367
0
LINE
5
91
100
AcDbEntity
8
Layer_1
6
ByLayer
62
1
370
-1
100
AcDbLine
10
25.7105848044
20
42.0774188367
11
25.7105848044
21
44.5774188367
0
ARC
5
92
100
AcDbEntity
8
Layer_1
6
ByLayer
62
256
370
-1
100
AcDbCircle
10
26.2105848044
20
42.0774188367
40
0.5
100
AcDbArc
50
180
51
270
0
LINE
5
93
100
AcDbEntity
8
Layer_1
6
ByLayer
62
1
370
-1
100
AcDbLine
10
35.2118348044
20
41.5774188367
11
26.2105848044
21
41.5774188367
0
LINE
5
94
100
AcDbEntity
8
Layer_1
6
ByLayer
62
1
370
-1
100
AcDbLine
10
35.7118348044
20
44.5774188367
11
35.7118348044
21
42.0774188367
0
ARC
5
95
100
AcDbEntity
8
Layer_1
6
ByLayer
62
256
370
-1
100
AcDbCircle
10
35.2118348044
20
42.0774188367
40
0.5
100
AcDbArc
50
270
51
0
0
LINE
5
96
100
AcDbEntity
8
Layer_1
6
ByLayer
62
1
370
-1
100
AcDbLine
10
44.2558288044
20
42.0774188367
11
44.2558288044
21
44.5774188367
0
ARC
5
97
100
AcDbEntity
8
Layer_1
6
ByLayer
62
256
370
-1
100
AcDbCircle
10
44.7558288044
20
42.0774188367
40
0.5
100
AcDbArc
50
180
51
270
0
LINE
5
98
100
AcDbEntity
8
Layer_1
6
ByLayer
62
1
370
-1
100
AcDbLine
10
53.7570788044
20
41.5774188367
11
44.7558288044
21
41.5774188367
0
LINE
5
99
100
AcDbEntity
8
Layer_1
6
ByLayer
62
1
370
-1
100
AcDbLine
10
54.2570788044
20
44.5774188367
11
54.2570788044
21
42.0774188367
0
ARC
5
9A
100
AcDbEntity
8
Layer_1
6
ByLayer
62
256
370
-1
100
AcDbCircle
10
53.7570788044
20
42.0774188367
40
0.5
100
AcDbArc
50
270
51
0
0
LWPOLYLINE
5
9B
100
AcDbEntity
8
Layer_1
6
ByLayer
62
1
370
-1
100
AcDbPolyline
90
6
70
0
43
0
10
97.331389
20
37.747424
10
107.332639
20
37.747424
10
107.332639
20
34.748812
10
97.331389
20
34.748812
10
97.331389
20
37.747424
10
97.331389
20
37.747424
0
LWPOLYLINE
5
9C
100
AcDbEntity
8
Layer_1
6
ByLayer
62
1
370
-1
100
AcDbPolyline
90
6
70
0
43
0
10
115.876633
20
37.747424
10
125.877883
20
37.747424
10
125.877883
20
34.748812
10
115.876633
20
34.748812
10
115.876633
20
37.747424
10
115.876633
20
37.747424
0
LWPOLYLINE
5
9D
100
AcDbEntity
8
Layer_1
6
ByLayer
62
1
370
-1
100
AcDbPolyline
90
6
70
0
43
0
10
115.876633
20
16.248782
10
125.877883
20
16.248782
10
125.877883
20
13.250171
10
115.876633
20
13.250171
10
115.876633
20
16.248782
10
115.876633
20
16.248782
0
LINE
5
9E
100
AcDbEntity
8
Layer_1
6
ByLayer
62
1
370
-1
100
AcDbLine
10
97.331389
20
16.248782
11
107.332639
21
16.248782
0
LINE
5
9F
100
AcDbEntity
8
Layer_1
6
ByLayer
62
1
370
-1
100
AcDbLine
10
107.332639
20
16.248782
11
107.332639
21
13.250171
0
LINE
5
A0
100
AcDbEntity
8
Layer_1
6
ByLayer
62
1
370
-1
100
AcDbLine
10
107.332639
20
13.250171
11
97.331389
21
13.250171
0
LINE
5
A1
100
AcDbEntity
8
Layer_1
6
ByLayer
62
1
370
-1
100
AcDbLine
10
97.331389
20
13.250171
11
97.331389
21
16.248782
0
LINE
5
A2
100
AcDbEntity
8
Layer_1
6
ByLayer
62
1
370
-1
100
AcDbLine
10
97.331389
20
16.248782
11
97.331389
21
16.248782
0
SPLINE
5
A3
100
AcDbEntity
8
Layer_1
6
ByLayer
62
1
370
-1
100
AcDbSpline
210
0
220
0
230
1
70
8
71
3
72
8
73
4
74
0
42
1e-07
43
1e-07
40
0
40
0
40
0
40
0
40
1
40
1
40
1
40
1
10
144.607675
20
35.780702
30
0
10
145.417272
20
35.780702
30
0
10
146.071703
20
36.451564
30
0
10
146.071703
20
37.271188
30
0
0
SPLINE
5
A4
100
AcDbEntity
8
Layer_1
6
ByLayer
62
1
370
-1
100
AcDbSpline
210
0
220
0
230
1
70
8
71
3
72
8
73
4
74
0
42
1e-07
43
1e-07
40
0
40
0
40
0
40
0
40
1
40
1
40
1
40
1
10
146.071703
20
37.271188
30
0
10
146.071703
20
38.090812
30
0
10
145.417272
20
38.752854
30
0
10
144.607675
20
38.752854
30
0
0
SPLINE
5
A5
100
AcDbEntity
8
Layer_1
6
ByLayer
62
1
370
-1
100
AcDbSpline
210
0
220
0
230
1
70
8
71
3
72
8
73
4
74
0
42
1e-07
43
1e-07
40
0
40
0
40
0
40
0
40
1
40
1
40
1
40
1
10
141.609064
20
38.805771
30
0
10
141.609064
20
38.936082
30
0
10
141.577447
20
39.063273
30
0
10
141.529689
20
39.176188
30
0
0
SPLINE
5
A6
100
AcDbEntity
8
Layer_1
6
ByLayer
62
1
370
-1
100
AcDbSpline
210
0
220
0
230
1
70
8
71
3
72
8
73
4
74
0
42
1e-07
43
1e-07
40
0
40
0
40
0
40
0
40
1
40
1
40
1
40
1
10
141.529689
20
39.176188
30
0
10
141.481931
20
39.289102
30
0
10
141.412239
20
39.390651
30
0
10
141.326842
20
39.476049
30
0
0
SPLINE
5
A7
100
AcDbEntity
8
Layer_1
6
ByLayer
62
1
370
-1
100
AcDbSpline
210
0
220
0
230
1
70
8
71
3
72
8
73
4
74
0
42
1e-07
43
1e-07
40
0
40
0
40
0
40
0
40
1
40
1
40
1
40
1
10
141.326842
20
39.476049
30
0
10
141.241444
20
39.561446
30
0
10
141.139895
20
39.631138
30
0
10
141.026981
20
39.678896
30
0
0
SPLINE
5
A8
100
AcDbEntity
8
Layer_1
6
ByLayer
62
1
370
-1
100
AcDbSpline
210
0
220
0
230
1
70
8
71
3
72
8
73
4
74
0
42
1e-07
43
1e-07
40
0
40
0
40
0
40
0
40
1
40
1
40
1
40
1
10
141.026981
20
39.678896
30
0
10
140.914066
20
39.726654
30
0
10
140.795694
20
39.749452
30
0
10
140.665383
20
39.749452
30
0
0
LWPOLYLINE
5
A9
100
AcDbEntity
8
Layer_1
6
ByLayer
62
1
370
-1
100
AcDbPolyline
90
4
70
0
43
0
10
144.607675
20
38.752854
10
144.607675
20
37.756257
10
141.609064
20
37.756257
10
141.609064
20
38.805771
0
SPLINE
5
AA
100
AcDbEntity
8
Layer_1
6
ByLayer
62
1
370
-1
100
AcDbSpline
210
0
220
0
230
1
70
8
71
3
72
8
73
4
74
0
42
1e-07
43
1e-07
40
0
40
0
40
0
40
0
40
1
40
1
40
1
40
1
10
143.663994
20
29.755007
30
0
10
143.794305
20
29.755007
30
0
10
143.912677
20
29.777811
30
0
10
144.025592
20
29.825563
30
0
0
SPLINE
5
AB
100
AcDbEntity
8
Layer_1
6
ByLayer
62
1
370
-1
100
AcDbSpline
210
0
220
0
230
1
70
8
71
3
72
8
73
4
74
0
42
1e-07
43
1e-07
40
0
40
0
40
0
40
0
40
1
40
1
40
1
40
1
10
144.025592
20
29.825563
30
0
10
144.138506
20
29.87332
30
0
10
144.240055
20
29.943012
30
0
10
144.325453
20
30.02841
30
0
0
SPLINE
5
AC
100
AcDbEntity
8
Layer_1
6
ByLayer
62
1
370
-1
100
AcDbSpline
210
0
220
0
230
1
70
8
71
3
72
8
73
4
74
0
42
1e-07
43
1e-07
40
0
40
0
40
0
40
0
40
1
40
1
40
1
40
1
10
144.325453
20
30.02841
30
0
10
144.41085
20
30.113808
30
0
10
144.480542
20
30.215357
30
0
10
144.5283
20
30.328271
30
0
0
SPLINE
5
AD
100
AcDbEntity
8
Layer_1
6
ByLayer
62
1
370
-1
100
AcDbSpline
210
0
220
0
230
1
70
8
71
3
72
8
73
4
74
0
42
1e-07
43
1e-07
40
0
40
0
40
0
40
0
40
1
40
1
40
1
40
1
10
144.5283
20
30.328271
30
0
10
144.576058
20
30.441185
30
0
10
144.607675
20
30.568377
30
0
10
144.607675
20
30.698688
30
0
0
LINE
5
AE
100
AcDbEntity
8
Layer_1
6
ByLayer
62
1
370
-1
100
AcDbLine
10
141.609064
20
29.755007
11
143.663994
21
29.755007
0
LINE
5
AF
100
AcDbEntity
8
Layer_1
6
ByLayer
62
1
370
-1
100
AcDbLine
10
144.607675
20
30.698688
11
144.607675
21
35.780702
0
SPLINE
5
B0
100
AcDbEntity
8
Layer_1
6
ByLayer
62
1
370
-1
100
AcDbSpline
210
0
220
0
230
1
70
8
71
3
72
8
73
4
74
0
42
1e-07
43
1e-07
40
0
40
0
40
0
40
0
40
1
40
1
40
1
40
1
10
132.648508
20
11.248157
30
0
10
133.012219
20
11.248157
30
0
10
133.281394
20
11.68031
30
0
10
133.645106
20
11.68031
30
0
0
SPLINE
5
B1
100
AcDbEntity
8
Layer_1
6
ByLayer
62
1
370
-1
100
AcDbSpline
210
0
220
0
230
1
70
8
71
3
72
8
73
4
74
0
42
1e-07
43
1e-07
40
0
40
0
40
0
40
0
40
1
40
1
40
1
40
1
10
133.645106
20
11.68031
30
0
10
134.008817
20
11.68031
30
0
10
134.286811
20
11.248157
30
0
10
134.650522
20
11.248157
30
0
0
SPLINE
5
B2
100
AcDbEntity
8
Layer_1
6
ByLayer
62
1
370
-1
100
AcDbSpline
210
0
220
0
230
1
70
8
71
3
72
8
73
4
74
0
42
1e-07
43
1e-07
40
0
40
0
40
0
40
0
40
1
40
1
40
1
40
1
10
134.650522
20
11.248157
30
0
10
135.014233
20
11.248157
30
0
10
135.292228
20
11.68031
30
0
10
135.655939
20
11.68031
30
0
0
SPLINE
5
B3
100
AcDbEntity
8
Layer_1
6
ByLayer
62
1
370
-1
100
AcDbSpline
210
0
220
0
230
1
70
8
71
3
72
8
73
4
74
0
42
1e-07
43
1e-07
40
0
40
0
40
0
40
0
40
1
40
1
40
1
40
1
10
135.655939
20
11.68031
30
0
10
136.01965
20
11.68031
30
0
10
136.288825
20
11.248157
30
0
10
136.652536
20
11.248157
30
0
0
SPLINE
5
B4
100
AcDbEntity
8
Layer_1
6
ByLayer
62
1
370
-1
100
AcDbSpline
210
0
220
0
230
1
70
8
71
3
72
8
73
4
74
0
42
1e-07
43
1e-07
40
0
40
0
40
0
40
0
40
1
40
1
40
1
40
1
10
136.652536
20
11.248157
30
0
10
137.016247
20
11.248157
30
0
10
137.294242
20
11.68031
30
0
10
137.657953
20
11.68031
30
0
0
SPLINE
5
B5
100
AcDbEntity
8
Layer_1
6
ByLayer
62
1
370
-1
100
AcDbSpline
210
0
220
0
230
1
70
8
71
3
72
8
73
4
74
0
42
1e-07
43
1e-07
40
0
40
0
40
0
40
0
40
1
40
1
40
1
40
1
10
137.657953
20
11.68031
30
0
10
138.021664
20
11.68031
30
0
10
138.290839
20
11.248157
30
0
10
138.65455
20
11.248157
30
0
0
SPLINE
5
B6
100
AcDbEntity
8
Layer_1
6
ByLayer
62
1
370
-1
100
AcDbSpline
210
0
220
0
230
1
70
8
71
3
72
8
73
4
74
0
42
1e-07
43
1e-07
40
0
40
0
40
0
40
0
40
1
40
1
40
1
40
1
10
138.65455
20
11.248157
30
0
10
139.018261
20
11.248157
30
0
10
139.296256
20
11.68031
30
0
10
139.659967
20
11.68031
30
0
0
SPLINE
5
B7
100
AcDbEntity
8
Layer_1
6
ByLayer
62
1
370
-1
100
AcDbSpline
210
0
220
0
230
1
70
8
71
3
72
8
73
4
74
0
42
1e-07
43
1e-07
40
0
40
0
40
0
40
0
40
1
40
1
40
1
40
1
10
139.659967
20
11.68031
30
0
10
140.023678
20
11.68031
30
0
10
140.301672
20
11.248157
30
0
10
140.665383
20
11.248157
30
0
0
SPLINE
5
B8
100
AcDbEntity
8
Layer_1
6
ByLayer
62
1
370
-1
100
AcDbSpline
210
0
220
0
230
1
70
8
71
3
72
8
73
4
74
0
42
1e-07
43
1e-07
40
0
40
0
40
0
40
0
40
1
40
1
40
1
40
1
10
140.665383
20
11.248157
30
0
10
140.795694
20
11.248157
30
0
10
140.914066
20
11.279774
30
0
10
141.026981
20
11.327532
30
0
0
SPLINE
5
B9
100
AcDbEntity
8
Layer_1
6
ByLayer
62
1
370
-1
100
AcDbSpline
210
0
220
0
230
1
70
8
71
3
72
8
73
4
74
0
42
1e-07
43
1e-07
40
0
40
0
40
0
40
0
40
1
40
1
40
1
40
1
10
141.026981
20
11.327532
30
0
10
141.139895
20
11.37529
30
0
10
141.241444
20
11.436165
30
0
10
141.326842
20
11.52156
30
0
0
SPLINE
5
BA
100
AcDbEntity
8
Layer_1
6
ByLayer
62
1
370
-1
100
AcDbSpline
210
0
220
0
230
1
70
8
71
3
72
8
73
4
74
0
42
1e-07
43
1e-07
40
0
40
0
40
0
40
0
40
1
40
1
40
1
40
1
10
141.326842
20
11.52156
30
0
10
141.412239
20
11.606955
30
0
10
141.481931
20
11.708509
30
0
10
141.529689
20
11.821421
30
0
0
SPLINE
5
BB
100
AcDbEntity
8
Layer_1
6
ByLayer
62
1
370
-1
100
AcDbSpline
210
0
220
0
230
1
70
8
71
3
72
8
73
4
74
0
42
1e-07
43
1e-07
40
0
40
0
40
0
40
0
40
1
40
1
40
1
40
1
10
141.529689
20
11.821421
30
0
10
141.577447
20
11.934332
30
0
10
141.609064
20
12.061527
30
0
10
141.609064
20
12.191837
30
0
0
SPLINE
5
BC
100
AcDbEntity
8
Layer_1
6
ByLayer
62
1
370
-1
100
AcDbSpline
210
0
220
0
230
1
70
8
71
3
72
8
73
4
74
0
42
1e-07
43
1e-07
40
0
40
0
40
0
40
0
40
1
40
1
40
1
40
1
10
144.607675
20
12.262393
30
0
10
145.417272
20
12.262393
30
0
10
146.071703
20
12.924436
30
0
10
146.071703
20
13.74406
30
0
0
SPLINE
5
BD
100
AcDbEntity
8
Layer_1
6
ByLayer
62
1
370
-1
100
AcDbSpline
210
0
220
0
230
1
70
8
71
3
72
8
73
4
74
0
42
1e-07
43
1e-07
40
0
40
0
40
0
40
0
40
1
40
1
40
1
40
1
10
146.071703
20
13.74406
30
0
10
146.071703
20
14.563684
30
0
10
145.417272
20
15.225726
30
0
10
144.607675
20
15.225726
30
0
0
SPLINE
5
BE
100
AcDbEntity
8
Layer_1
6
ByLayer
62
1
370
-1
100
AcDbSpline
210
0
220
0
230
1
70
8
71
3
72
8
73
4
74
0
42
1e-07
43
1e-07
40
0
40
0
40
0
40
0
40
1
40
1
40
1
40
1
10
144.607675
20
15.225726
30
0
10
144.607675
20
15.225726
30
0
10
142.747489
20
15.265788
30
0
10
141.168092
20
15.058157
30
0
0
SPLINE
5
BF
100
AcDbEntity
8
Layer_1
6
ByLayer
62
1
370
-1
100
AcDbSpline
210
0
220
0
230
1
70
8
71
3
72
8
73
4
74
0
42
1e-07
43
1e-07
40
0
40
0
40
0
40
0
40
1
40
1
40
1
40
1
10
141.168092
20
15.058157
30
0
10
139.588697
20
14.850526
30
0
10
136.070374
20
13.747785
30
0
10
134.297744
20
13.514754
30
0
0
SPLINE
5
C0
100
AcDbEntity
8
Layer_1
6
ByLayer
62
1
370
-1
100
AcDbSpline
210
0
220
0
230
1
70
8
71
3
72
8
73
4
74
0
42
1e-07
43
1e-07
40
0
40
0
40
0
40
0
40
1
40
1
40
1
40
1
10
134.297744
20
13.514754
30
0
10
132.525118
20
13.281695
30
0
10
129.641078
20
13.25899
30
0
10
129.641078
20
13.25899
30
0
0
SPLINE
5
C1
100
AcDbEntity
8
Layer_1
6
ByLayer
62
1
370
-1
100
AcDbSpline
210
0
220
0
230
1
70
8
71
3
72
8
73
4
74
0
42
1e-07
43
1e-07
40
0
40
0
40
0
40
0
40
1
40
1
40
1
40
1
10
129.641078
20
13.25899
30
0
10
129.365883
20
13.25899
30
0
10
129.138369
20
13.493954
30
0
10
129.138369
20
13.779337
30
0
0
SPLINE
5
C2
100
AcDbEntity
8
Layer_1
6
ByLayer
62
1
370
-1
100
AcDbSpline
210
0
220
0
230
1
70
8
71
3
72
8
73
4
74
0
42
1e-07
43
1e-07
40
0
40
0
40
0
40
0
40
1
40
1
40
1
40
1
10
129.138369
20
13.779337
30
0
10
129.138369
20
14.064721
30
0
10
129.365883
20
14.290865
30
0
10
129.641078
20
14.290865
30
0
0
SPLINE
5
C3
100
AcDbEntity
8
Layer_1
6
ByLayer
62
1
370
-1
100
AcDbSpline
210
0
220
0
230
1
70
8
71
3
72
8
73
4
74
0
42
1e-07
43
1e-07
40
0
40
0
40
0
40
0
40
1
40
1
40
1
40
1
10
129.641078
20
14.290865
30
0
10
129.641078
20
14.290865
30
0
10
132.496244
20
14.314515
30
0
10
134.262467
20
14.546629
30
0
0
SPLINE
5
C4
100
AcDbEntity
8
Layer_1
6
ByLayer
62
1
370
-1
100
AcDbSpline
210
0
220
0
230
1
70
8
71
3
72
8
73
4
74
0
42
1e-07
43
1e-07
40
0
40
0
40
0
40
0
40
1
40
1
40
1
40
1
10
134.262467
20
14.546629
30
0
10
136.02869
20
14.778842
30
0
10
139.547772
20
15.872848
30
0
10
141.132814
20
16.081212
30
0
0
SPLINE
5
C5
100
AcDbEntity
8
Layer_1
6
ByLayer
62
1
370
-1
100
AcDbSpline
210
0
220
0
230
1
70
8
71
3
72
8
73
4
74
0
42
1e-07
43
1e-07
40
0
40
0
40
0
40
0
40
1
40
1
40
1
40
1
10
141.132814
20
16.081212
30
0
10
142.321596
20
16.237485
30
0
10
143.674866
20
16.265425
30
0
10
144.281356
20
16.266421
30
0
0
SPLINE
5
C6
100
AcDbEntity
8
Layer_1
6
ByLayer
62
1
370
-1
100
AcDbSpline
210
0
220
0
230
1
70
8
71
3
72
8
73
4
74
0
42
1e-07
43
1e-07
40
0
40
0
40
0
40
0
40
1
40
1
40
1
40
1
10
144.281356
20
16.266421
30
0
10
144.48352
20
16.266703
30
0
10
144.607675
20
16.257615
30
0
10
144.607675
20
16.257615
30
0
0
LWPOLYLINE
5
C7
100
AcDbEntity
8
Layer_1
6
ByLayer
62
1
370
-1
100
AcDbPolyline
90
4
70
0
43
0
10
141.609064
20
12.191837
10
141.609064
20
13.25899
10
144.607675
20
13.25899
10
144.607675
20
12.262393
0
SPLINE
5
C8
100
AcDbEntity
8
Layer_1
6
ByLayer
62
1
370
-1
100
AcDbSpline
210
0
220
0
230
1
70
8
71
3
72
8
73
4
74
0
42
1e-07
43
1e-07
40
0
40
0
40
0
40
0
40
1
40
1
40
1
40
1
10
144.607675
20
20.316574
30
0
10
144.607675
20
20.446884
30
0
10
144.576058
20
20.565257
30
0
10
144.5283
20
20.678171
30
0
0
SPLINE
5
C9
100
AcDbEntity
8
Layer_1
6
ByLayer
62
1
370
-1
100
AcDbSpline
210
0
220
0
230
1
70
8
71
3
72
8
73
4
74
0
42
1e-07
43
1e-07
40
0
40
0
40
0
40
0
40
1
40
1
40
1
40
1
10
144.5283
20
20.678171
30
0
10
144.480542
20
20.791085
30
0
10
144.41085
20
20.892635
30
0
10
144.325453
20
20.978032
30
0
0
SPLINE
5
CA
100
AcDbEntity
8
Layer_1
6
ByLayer
62
1
370
-1
100
AcDbSpline
210
0
220
0
230
1
70
8
71
3
72
8
73
4
74
0
42
1e-07
43
1e-07
40
0
40
0
40
0
40
0
40
1
40
1
40
1
40
1
10
144.325453
20
20.978032
30
0
10
144.240055
20
21.06343
30
0
10
144.138506
20
21.133122
30
0
10
144.025592
20
21.180879
30
0
0
SPLINE
5
CB
100
AcDbEntity
8
Layer_1
6
ByLayer
62
1
370
-1
100
AcDbSpline
210
0
220
0
230
1
70
8
71
3
72
8
73
4
74
0
42
1e-07
43
1e-07
40
0
40
0
40
0
40
0
40
1
40
1
40
1
40
1
10
144.025592
20
21.180879
30
0
10
143.912677
20
21.228637
30
0
10
143.794305
20
21.260254
30
0
10
143.663994
20
21.260254
30
0
0
LINE
5
CC
100
AcDbEntity
8
Layer_1
6
ByLayer
62
1
370
-1
100
AcDbLine
10
143.663994
20
21.260254
11
141.609064
21
21.260254
0
LINE
5
CD
100
AcDbEntity
8
Layer_1
6
ByLayer
62
1
370
-1
100
AcDbLine
10
144.607675
20
16.257615
11
144.607675
21
20.316574
0
LINE
5
CE
100
AcDbEntity
8
Layer_1
6
ByLayer
62
1
370
-1
100
AcDbLine
10
141.609064
20
21.260254
11
141.609064
21
29.755007
0
SPLINE
5
CF
100
AcDbEntity
8
Layer_1
6
ByLayer
62
1
370
-1
100
AcDbSpline
210
0
220
0
230
1
70
8
71
3
72
8
73
4
74
0
42
1e-07
43
1e-07
40
0
40
0
40
0
40
0
40
1
40
1
40
1
40
1
10
82.552708
20
39.749437
30
0
10
82.422398
20
39.749437
30
0
10
82.295206
20
39.726634
30
0
10
82.182292
20
39.678882
30
0
0
SPLINE
5
D0
100
AcDbEntity
8
Layer_1
6
ByLayer
62
1
370
-1
100
AcDbSpline
210
0
220
0
230
1
70
8
71
3
72
8
73
4
74
0
42
1e-07
43
1e-07
40
0
40
0
40
0
40
0
40
1
40
1
40
1
40
1
10
82.182292
20
39.678882
30
0
10
82.069377
20
39.631124
30
0
10
81.967828
20
39.561432
30
0
10
81.882431
20
39.476035
30
0
0
SPLINE
5
D1
100
AcDbEntity
8
Layer_1
6
ByLayer
62
1
370
-1
100
AcDbSpline
210
0
220
0
230
1
70
8
71
3
72
8
73
4
74
0
42
1e-07
43
1e-07
40
0
40
0
40
0
40
0
40
1
40
1
40
1
40
1
10
81.882431
20
39.476035
30
0
10
81.797033
20
39.390637
30
0
10
81.727341
20
39.289088
30
0
10
81.679583
20
39.176174
30
0
0
SPLINE
5
D2
100
AcDbEntity
8
Layer_1
6
ByLayer
62
1
370
-1
100
AcDbSpline
210
0
220
0
230
1
70
8
71
3
72
8
73
4
74
0
42
1e-07
43
1e-07
40
0
40
0
40
0
40
0
40
1
40
1
40
1
40
1
10
81.679583
20
39.176174
30
0
10
81.631826
20
39.063259
30
0
10
81.609028
20
38.936067
30
0
10
81.609028
20
38.805757
30
0
0
SPLINE
5
D3
100
AcDbEntity
8
Layer_1
6
ByLayer
62
1
370
-1
100
AcDbSpline
210
0
220
0
230
1
70
8
71
3
72
8
73
4
74
0
42
1e-07
43
1e-07
40
0
40
0
40
0
40
0
40
1
40
1
40
1
40
1
10
78.610417
20
38.75284
30
0
10
77.80082
20
38.75284
30
0
10
77.146389
20
38.081978
30
0
10
77.146389
20
37.262354
30
0
0
SPLINE
5
D4
100
AcDbEntity
8
Layer_1
6
ByLayer
62
1
370
-1
100
AcDbSpline
210
0
220
0
230
1
70
8
71
3
72
8
73
4
74
0
42
1e-07
43
1e-07
40
0
40
0
40
0
40
0
40
1
40
1
40
1
40
1
10
77.146389
20
37.262354
30
0
10
77.146389
20
36.44273
30
0
10
77.80082
20
35.780687
30
0
10
78.610417
20
35.780687
30
0
0
LWPOLYLINE
5
D5
100
AcDbEntity
8
Layer_1
6
ByLayer
62
1
370
-1
100
AcDbPolyline
90
4
70
0
43
0
10
81.609028
20
38.805757
10
81.609028
20
37.747424
10
78.610417
20
37.747424
10
78.610417
20
38.75284
0
LINE
5
D6
100
AcDbEntity
8
Layer_1
6
ByLayer
62
1
370
-1
100
AcDbLine
10
82.552708
20
39.749452
11
82.552708
21
39.749437
0
SPLINE
5
D7
100
AcDbEntity
8
Layer_1
6
ByLayer
62
1
370
-1
100
AcDbSpline
210
0
220
0
230
1
70
8
71
3
72
8
73
4
74
0
42
1e-07
43
1e-07
40
0
40
0
40
0
40
0
40
1
40
1
40
1
40
1
10
78.610417
20
30.689854
30
0
10
78.610417
20
30.559544
30
0
10
78.63322
20
30.441171
30
0
10
78.680972
20
30.328257
30
0
0
SPLINE
5
D8
100
AcDbEntity
8
Layer_1
6
ByLayer
62
1
370
-1
100
AcDbSpline
210
0
220
0
230
1
70
8
71
3
72
8
73
4
74
0
42
1e-07
43
1e-07
40
0
40
0
40
0
40
0
40
1
40
1
40
1
40
1
10
78.680972
20
30.328257
30
0
10
78.72873
20
30.215343
30
0
10
78.798422
20
30.113793
30
0
10
78.883819
20
30.028396
30
0
0
SPLINE
5
D9
100
AcDbEntity
8
Layer_1
6
ByLayer
62
1
370
-1
100
AcDbSpline
210
0
220
0
230
1
70
8
71
3
72
8
73
4
74
0
42
1e-07
43
1e-07
40
0
40
0
40
0
40
0
40
1
40
1
40
1
40
1
10
78.883819
20
30.028396
30
0
10
78.969217
20
29.942998
30
0
10
79.070766
20
29.873306
30
0
10
79.183681
20
29.825549
30
0
0
SPLINE
5
DA
100
AcDbEntity
8
Layer_1
6
ByLayer
62
1
370
-1
100
AcDbSpline
210
0
220
0
230
1
70
8
71
3
72
8
73
4
74
0
42
1e-07
43
1e-07
40
0
40
0
40
0
40
0
40
1
40
1
40
1
40
1
10
79.183681
20
29.825549
30
0
10
79.296595
20
29.777791
30
0
10
79.423787
20
29.746174
30
0
10
79.554097
20
29.746174
30
0
0
LINE
5
DB
100
AcDbEntity
8
Layer_1
6
ByLayer
62
1
370
-1
100
AcDbLine
10
79.554097
20
29.746174
11
81.609028
21
29.746174
0
LINE
5
DC
100
AcDbEntity
8
Layer_1
6
ByLayer
62
1
370
-1
100
AcDbLine
10
78.610417
20
35.780687
11
78.610417
21
30.689854
0
SPLINE
5
DD
100
AcDbEntity
8
Layer_1
6
ByLayer
62
1
370
-1
100
AcDbSpline
210
0
220
0
230
1
70
8
71
3
72
8
73
4
74
0
42
1e-07
43
1e-07
40
0
40
0
40
0
40
0
40
1
40
1
40
1
40
1
10
78.610417
20
16.257601
30
0
10
78.610417
20
16.257601
30
0
10
80.500236
20
16.289577
30
0
10
82.085278
20
16.081212
30
0
0
SPLINE
5
DE
100
AcDbEntity
8
Layer_1
6
ByLayer
62
1
370
-1
100
AcDbSpline
210
0
220
0
230
1
70
8
71
3
72
8
73
4
74
0
42
1e-07
43
1e-07
40
0
40
0
40
0
40
0
40
1
40
1
40
1
40
1
10
82.085278
20
16.081212
30
0
10
83.67032
20
15.872848
30
0
10
87.180583
20
14.770022
30
0
10
88.946806
20
14.53781
30
0
0
SPLINE
5
DF
100
AcDbEntity
8
Layer_1
6
ByLayer
62
1
370
-1
100
AcDbSpline
210
0
220
0
230
1
70
8
71
3
72
8
73
4
74
0
42
1e-07
43
1e-07
40
0
40
0
40
0
40
0
40
1
40
1
40
1
40
1
10
88.946806
20
14.53781
30
0
10
90.713028
20
14.305682
30
0
10
93.577014
20
14.290865
30
0
10
93.577014
20
14.290865
30
0
0
SPLINE
5
E0
100
AcDbEntity
8
Layer_1
6
ByLayer
62
1
370
-1
100
AcDbSpline
210
0
220
0
230
1
70
8
71
3
72
8
73
4
74
0
42
1e-07
43
1e-07
40
0
40
0
40
0
40
0
40
1
40
1
40
1
40
1
10
93.577014
20
14.290865
30
0
10
93.852209
20
14.290865
30
0
10
94.070903
20
14.055901
30
0
10
94.070903
20
13.770518
30
0
0
SPLINE
5
E1
100
AcDbEntity
8
Layer_1
6
ByLayer
62
1
370
-1
100
AcDbSpline
210
0
220
0
230
1
70
8
71
3
72
8
73
4
74
0
42
1e-07
43
1e-07
40
0
40
0
40
0
40
0
40
1
40
1
40
1
40
1
10
94.070903
20
13.770518
30
0
10
94.070903
20
13.485135
30
0
10
93.852209
20
13.25899
30
0
10
93.577014
20
13.25899
30
0
0
SPLINE
5
E2
100
AcDbEntity
8
Layer_1
6
ByLayer
62
1
370
-1
100
AcDbSpline
210
0
220
0
230
1
70
8
71
3
72
8
73
4
74
0
42
1e-07
43
1e-07
40
0
40
0
40
0
40
0
40
1
40
1
40
1
40
1
10
93.577014
20
13.25899
30
0
10
93.577014
20
13.25899
30
0
10
90.684154
20
13.272876
30
0
10
88.911528
20
13.505935
30
0
0
SPLINE
5
E3
100
AcDbEntity
8
Layer_1
6
ByLayer
62
1
370
-1
100
AcDbSpline
210
0
220
0
230
1
70
8
71
3
72
8
73
4
74
0
42
1e-07
43
1e-07
40
0
40
0
40
0
40
0
40
1
40
1
40
1
40
1
10
88.911528
20
13.505935
30
0
10
87.138898
20
13.738966
30
0
10
83.629395
20
14.841707
30
0
10
82.05
20
15.049337
30
0
0
SPLINE
5
E4
100
AcDbEntity
8
Layer_1
6
ByLayer
62
1
370
-1
100
AcDbSpline
210
0
220
0
230
1
70
8
71
3
72
8
73
4
74
0
42
1e-07
43
1e-07
40
0
40
0
40
0
40
0
40
1
40
1
40
1
40
1
10
82.05
20
15.049337
30
0
10
80.470603
20
15.256968
30
0
10
78.610417
20
15.225726
30
0
10
78.610417
20
15.225726
30
0
0
SPLINE
5
E5
100
AcDbEntity
8
Layer_1
6
ByLayer
62
1
370
-1
100
AcDbSpline
210
0
220
0
230
1
70
8
71
3
72
8
73
4
74
0
42
1e-07
43
1e-07
40
0
40
0
40
0
40
0
40
1
40
1
40
1
40
1
10
78.610417
20
15.225726
30
0
10
77.80082
20
15.225726
30
0
10
77.146389
20
14.554864
30
0
10
77.146389
20
13.73524
30
0
0
SPLINE
5
E6
100
AcDbEntity
8
Layer_1
6
ByLayer
62
1
370
-1
100
AcDbSpline
210
0
220
0
230
1
70
8
71
3
72
8
73
4
74
0
42
1e-07
43
1e-07
40
0
40
0
40
0
40
0
40
1
40
1
40
1
40
1
10
77.146389
20
13.73524
30
0
10
77.146389
20
12.915616
30
0
10
77.80082
20
12.253574
30
0
10
78.610417
20
12.253574
30
0
0
SPLINE
5
E7
100
AcDbEntity
8
Layer_1
6
ByLayer
62
1
370
-1
100
AcDbSpline
210
0
220
0
230
1
70
8
71
3
72
8
73
4
74
0
42
1e-07
43
1e-07
40
0
40
0
40
0
40
0
40
1
40
1
40
1
40
1
10
81.609028
20
12.191837
30
0
10
81.609028
20
12.061527
30
0
10
81.631831
20
11.934332
30
0
10
81.679583
20
11.821421
30
0
0
SPLINE
5
E8
100
AcDbEntity
8
Layer_1
6
ByLayer
62
1
370
-1
100
AcDbSpline
210
0
220
0
230
1
70
8
71
3
72
8
73
4
74
0
42
1e-07
43
1e-07
40
0
40
0
40
0
40
0
40
1
40
1
40
1
40
1
10
81.679583
20
11.821421
30
0
10
81.727341
20
11.708509
30
0
10
81.797033
20
11.606955
30
0
10
81.882431
20
11.52156
30
0
0
SPLINE
5
E9
100
AcDbEntity
8
Layer_1
6
ByLayer
62
1
370
-1
100
AcDbSpline
210
0
220
0
230
1
70
8
71
3
72
8
73
4
74
0
42
1e-07
43
1e-07
40
0
40
0
40
0
40
0
40
1
40
1
40
1
40
1
10
81.882431
20
11.52156
30
0
10
81.967828
20
11.436165
30
0
10
82.069377
20
11.37529
30
0
10
82.182292
20
11.327532
30
0
0
SPLINE
5
EA
100
AcDbEntity
8
Layer_1
6
ByLayer
62
1
370
-1
100
AcDbSpline
210
0
220
0
230
1
70
8
71
3
72
8
73
4
74
0
42
1e-07
43
1e-07
40
0
40
0
40
0
40
0
40
1
40
1
40
1
40
1
10
82.182292
20
11.327532
30
0
10
82.295206
20
11.279774
30
0
10
82.422398
20
11.248157
30
0
10
82.552708
20
11.248157
30
0
0
SPLINE
5
EB
100
AcDbEntity
8
Layer_1
6
ByLayer
62
1
370
-1
100
AcDbSpline
210
0
220
0
230
1
70
8
71
3
72
8
73
4
74
0
42
1e-07
43
1e-07
40
0
40
0
40
0
40
0
40
1
40
1
40
1
40
1
10
82.552708
20
11.248157
30
0
10
82.916419
20
11.248157
30
0
10
83.194414
20
11.68031
30
0
10
83.558125
20
11.68031
30
0
0
SPLINE
5
EC
100
AcDbEntity
8
Layer_1
6
ByLayer
62
1
370
-1
100
AcDbSpline
210
0
220
0
230
1
70
8
71
3
72
8
73
4
74
0
42
1e-07
43
1e-07
40
0
40
0
40
0
40
0
40
1
40
1
40
1
40
1
10
83.558125
20
11.68031
30
0
10
83.921836
20
11.68031
30
0
10
84.191011
20
11.248157
30
0
10
84.554722
20
11.248157
30
0
0
SPLINE
5
ED
100
AcDbEntity
8
Layer_1
6
ByLayer
62
1
370
-1
100
AcDbSpline
210
0
220
0
230
1
70
8
71
3
72
8
73
4
74
0
42
1e-07
43
1e-07
40
0
40
0
40
0
40
0
40
1
40
1
40
1
40
1
10
84.554722
20
11.248157
30
0
10
84.918433
20
11.248157
30
0
10
85.196428
20
11.68031
30
0
10
85.560139
20
11.68031
30
0
0
SPLINE
5
EE
100
AcDbEntity
8
Layer_1
6
ByLayer
62
1
370
-1
100
AcDbSpline
210
0
220
0
230
1
70
8
71
3
72
8
73
4
74
0
42
1e-07
43
1e-07
40
0
40
0
40
0
40
0
40
1
40
1
40
1
40
1
10
85.560139
20
11.68031
30
0
10
85.92385
20
11.68031
30
0
10
86.193025
20
11.248157
30
0
10
86.556736
20
11.248157
30
0
0
SPLINE
5
EF
100
AcDbEntity
8
Layer_1
6
ByLayer
62
1
370
-1
100
AcDbSpline
210
0
220
0
230
1
70
8
71
3
72
8
73
4
74
0
42
1e-07
43
1e-07
40
0
40
0
40
0
40
0
40
1
40
1
40
1
40
1
10
86.556736
20
11.248157
30
0
10
86.920447
20
11.248157
30
0
10
87.198442
20
11.68031
30
0
10
87.562153
20
11.68031
30
0
0
SPLINE
5
F0
100
AcDbEntity
8
Layer_1
6
ByLayer
62
1
370
-1
100
AcDbSpline
210
0
220
0
230
1
70
8
71
3
72
8
73
4
74
0
42
1e-07
43
1e-07
40
0
40
0
40
0
40
0
40
1
40
1
40
1
40
1
10
87.562153
20
11.68031
30
0
10
87.925861
20
11.68031
30
0
10
88.203856
20
11.248157
30
0
10
88.567569
20
11.248157
30
0
0
SPLINE
5
F1
100
AcDbEntity
8
Layer_1
6
ByLayer
62
1
370
-1
100
AcDbSpline
210
0
220
0
230
1
70
8
71
3
72
8
73
4
74
0
42
1e-07
43
1e-07
40
0
40
0
40
0
40
0
40
1
40
1
40
1
40
1
10
88.567569
20
11.248157
30
0
10
88.931281
20
11.248157
30
0
10
89.200456
20
11.68031
30
0
10
89.564167
20
11.68031
30
0
0
SPLINE
5
F2
100
AcDbEntity
8
Layer_1
6
ByLayer
62
1
370
-1
100
AcDbSpline
210
0
220
0
230
1
70
8
71
3
72
8
73
4
74
0
42
1e-07
43
1e-07
40
0
40
0
40
0
40
0
40
1
40
1
40
1
40
1
10
89.564167
20
11.68031
30
0
10
89.927878
20
11.68031
30
0
10
90.205872
20
11.248157
30
0
10
90.569583
20
11.248157
30
0
0
LWPOLYLINE
5
F3
100
AcDbEntity
8
Layer_1
6
ByLayer
62
1
370
-1
100
AcDbPolyline
90
4
70
0
43
0
10
78.610417
20
12.253574
10
78.610417
20
13.25899
10
81.609028
20
13.25899
10
81.609028
20
12.191837
0
SPLINE
5
F4
100
AcDbEntity
8
Layer_1
6
ByLayer
62
1
370
-1
100
AcDbSpline
210
0
220
0
230
1
70
8
71
3
72
8
73
4
74
0
42
1e-07
43
1e-07
40
0
40
0
40
0
40
0
40
1
40
1
40
1
40
1
10
79.554097
20
21.251421
30
0
10
79.423787
20
21.251421
30
0
10
79.296595
20
21.228617
30
0
10
79.183681
20
21.180865
30
0
0
SPLINE
5
F5
100
AcDbEntity
8
Layer_1
6
ByLayer
62
1
370
-1
100
AcDbSpline
210
0
220
0
230
1
70
8
71
3
72
8
73
4
74
0
42
1e-07
43
1e-07
40
0
40
0
40
0
40
0
40
1
40
1
40
1
40
1
10
79.183681
20
21.180865
30
0
10
79.070766
20
21.133108
30
0
10
78.969217
20
21.063416
30
0
10
78.883819
20
20.978018
30
0
0
SPLINE
5
F6
100
AcDbEntity
8
Layer_1
6
ByLayer
62
1
370
-1
100
AcDbSpline
210
0
220
0
230
1
70
8
71
3
72
8
73
4
74
0
42
1e-07
43
1e-07
40
0
40
0
40
0
40
0
40
1
40
1
40
1
40
1
10
78.883819
20
20.978018
30
0
10
78.798422
20
20.89262
30
0
10
78.72873
20
20.791071
30
0
10
78.680972
20
20.678157
30
0
0
SPLINE
5
F7
100
AcDbEntity
8
Layer_1
6
ByLayer
62
1
370
-1
100
AcDbSpline
210
0
220
0
230
1
70
8
71
3
72
8
73
4
74
0
42
1e-07
43
1e-07
40
0
40
0
40
0
40
0
40
1
40
1
40
1
40
1
10
78.680972
20
20.678157
30
0
10
78.633215
20
20.565243
30
0
10
78.610417
20
20.438051
30
0
10
78.610417
20
20.30774
30
0
0
LINE
5
F8
100
AcDbEntity
8
Layer_1
6
ByLayer
62
1
370
-1
100
AcDbLine
10
81.609028
20
21.251421
11
79.554097
21
21.251421
0
LINE
5
F9
100
AcDbEntity
8
Layer_1
6
ByLayer
62
1
370
-1
100
AcDbLine
10
78.610417
20
20.30774
11
78.610417
21
16.257601
0
LINE
5
FA
100
AcDbEntity
8
Layer_1
6
ByLayer
62
1
370
-1
100
AcDbLine
10
81.609028
20
29.746174
11
81.609028
21
21.251421
0
SPLINE
5
FB
100
AcDbEntity
8
Layer_1
6
ByLayer
62
1
370
-1
100
AcDbSpline
210
0
220
0
230
1
70
8
71
3
72
8
73
4
74
0
42
1e-07
43
1e-07
40
0
40
0
40
0
40
0
40
1
40
1
40
1
40
1
10
74.105937
20
36.794156
30
0
10
74.105937
20
37.202342
30
0
10
74.025718
20
37.586989
30
0
10
73.876631
20
37.940684
30
0
0
SPLINE
5
FC
100
AcDbEntity
8
Layer_1
6
ByLayer
62
1
370
-1
100
AcDbSpline
210
0
220
0
230
1
70
8
71
3
72
8
73
4
74
0
42
1e-07
43
1e-07
40
0
40
0
40
0
40
0
40
1
40
1
40
1
40
1
10
73.876631
20
37.940684
30
0
10
73.727547
20
38.294379
30
0
10
73.508204
20
38.616866
30
0
10
73.241631
20
38.884364
30
0
0
SPLINE
5
FD
100
AcDbEntity
8
Layer_1
6
ByLayer
62
1
370
-1
100
AcDbSpline
210
0
220
0
230
1
70
8
71
3
72
8
73
4
74
0
42
1e-07
43
1e-07
40
0
40
0
40
0
40
0
40
1
40
1
40
1
40
1
10
73.241631
20
38.884364
30
0
10
72.975061
20
39.151863
30
0
10
72.659243
20
39.369764
30
0
10
72.30677
20
39.519364
30
0
0
SPLINE
5
FE
100
AcDbEntity
8
Layer_1
6
ByLayer
62
1
370
-1
100
AcDbSpline
210
0
220
0
230
1
70
8
71
3
72
8
73
4
74
0
42
1e-07
43
1e-07
40
0
40
0
40
0
40
0
40
1
40
1
40
1
40
1
10
72.30677
20
39.519364
30
0
10
71.9543
20
39.668965
30
0
10
71.567018
20
39.74867
30
0
10
71.160242
20
39.74867
30
0
0
LINE
5
FF
100
AcDbEntity
8
Layer_1
6
ByLayer
62
1
370
-1
100
AcDbLine
10
72.10751
20
37.74592
11
69.10751
21
37.74592
0
LINE
5
100
100
AcDbEntity
8
Layer_1
6
ByLayer
62
1
370
-1
100
AcDbLine
10
69.10751
20
29.74592
11
72.10751
21
29.74592
0
LINE
5
101
100
AcDbEntity
8
Layer_1
6
ByLayer
62
1
370
-1
100
AcDbLine
10
69.10751
20
37.74592
11
69.10751
21
29.74592
0
LINE
5
102
100
AcDbEntity
8
Layer_1
6
ByLayer
62
1
370
-1
100
AcDbLine
10
72.10751
20
29.74592
11
72.10751
21
37.74592
0
SPLINE
5
103
100
AcDbEntity
8
Layer_1
6
ByLayer
62
1
370
-1
100
AcDbSpline
210
0
220
0
230
1
70
8
71
3
72
8
73
4
74
0
42
1e-07
43
1e-07
40
0
40
0
40
0
40
0
40
1
40
1
40
1
40
1
10
63.002256
20
11.247398
30
0
10
66.843812
20
11.247398
30
0
10
67.943753
20
10.443403
30
0
10
68.726076
20
9.474675
30
0
0
SPLINE
5
104
100
AcDbEntity
8
Layer_1
6
ByLayer
62
1
370
-1
100
AcDbSpline
210
0
220
0
230
1
70
8
71
3
72
8
73
4
74
0
42
1e-07
43
1e-07
40
0
40
0
40
0
40
0
40
1
40
1
40
1
40
1
10
68.726076
20
9.474675
30
0
10
69.296436
20
8.768386
30
0
10
70.143904
20
8.284064
30
0
10
71.124965
20
8.284064
30
0
0
SPLINE
5
105
100
AcDbEntity
8
Layer_1
6
ByLayer
62
1
370
-1
100
AcDbSpline
210
0
220
0
230
1
70
8
71
3
72
8
73
4
74
0
42
1e-07
43
1e-07
40
0
40
0
40
0
40
0
40
1
40
1
40
1
40
1
10
71.124965
20
8.284064
30
0
10
72.774156
20
8.284064
30
0
10
74.105937
20
9.607263
30
0
10
74.105937
20
11.247398
30
0
0
LINE
5
106
100
AcDbEntity
8
Layer_1
6
ByLayer
62
1
370
-1
100
AcDbLine
10
69.10751
20
13.252361
11
72.10751
21
13.252361
0
LINE
5
107
100
AcDbEntity
8
Layer_1
6
ByLayer
62
1
370
-1
100
AcDbLine
10
72.10751
20
21.252361
11
69.10751
21
21.252361
0
LINE
5
108
100
AcDbEntity
8
Layer_1
6
ByLayer
62
1
370
-1
100
AcDbLine
10
72.10751
20
13.252361
11
72.10751
21
21.252361
0
LINE
5
109
100
AcDbEntity
8
Layer_1
6
ByLayer
62
1
370
-1
100
AcDbLine
10
69.10751
20
21.252361
11
69.10751
21
13.252361
0
LINE
5
10A
100
AcDbEntity
8
Layer_1
6
ByLayer
62
1
370
-1
100
AcDbLine
10
74.105937
20
11.247398
11
74.105937
21
36.794156
0
SPLINE
5
10B
100
AcDbEntity
8
Layer_1
6
ByLayer
62
1
370
-1
100
AcDbSpline
210
0
220
0
230
1
70
8
71
3
72
8
73
4
74
0
42
1e-07
43
1e-07
40
0
40
0
40
0
40
0
40
1
40
1
40
1
40
1
10
10.051691
20
39.74867
30
0
10
9.644916
20
39.74867
30
0
10
9.257634
20
39.668965
30
0
10
8.905163
20
39.519364
30
0
0
SPLINE
5
10C
100
AcDbEntity
8
Layer_1
6
ByLayer
62
1
370
-1
100
AcDbSpline
210
0
220
0
230
1
70
8
71
3
72
8
73
4
74
0
42
1e-07
43
1e-07
40
0
40
0
40
0
40
0
40
1
40
1
40
1
40
1
10
8.905163
20
39.519364
30
0
10
8.552692
20
39.369764
30
0
10
8.236876
20
39.15186
30
0
10
7.970302
20
38.884364
30
0
0
SPLINE
5
10D
100
AcDbEntity
8
Layer_1
6
ByLayer
62
1
370
-1
100
AcDbSpline
210
0
220
0
230
1
70
8
71
3
72
8
73
4
74
0
42
1e-07
43
1e-07
40
0
40
0
40
0
40
0
40
1
40
1
40
1
40
1
10
7.970302
20
38.884364
30
0
10
7.703728
20
38.616868
30
0
10
7.484386
20
38.294373
30
0
10
7.335302
20
37.940684
30
0
0
SPLINE
5
10E
100
AcDbEntity
8
Layer_1
6
ByLayer
62
1
370
-1
100
AcDbSpline
210
0
220
0
230
1
70
8
71
3
72
8
73
4
74
0
42
1e-07
43
1e-07
40
0
40
0
40
0
40
0
40
1
40
1
40
1
40
1
10
7.335302
20
37.940684
30
0
10
7.186218
20
37.586994
30
0
10
7.105997
20
37.202334
30
0
10
7.105997
20
36.794156
30
0
0
LINE
5
10F
100
AcDbEntity
8
Layer_1
6
ByLayer
62
1
370
-1
100
AcDbLine
10
10.051691
20
39.74867
11
10.051691
21
39.74867
0
LINE
5
110
100
AcDbEntity
8
Layer_1
6
ByLayer
62
1
370
-1
100
AcDbLine
10
12.107532
20
37.744816
11
9.107532
21
37.744816
0
LINE
5
111
100
AcDbEntity
8
Layer_1
6
ByLayer
62
1
370
-1
100
AcDbLine
10
9.107532
20
29.744816
11
12.107532
21
29.744816
0
LINE
5
112
100
AcDbEntity
8
Layer_1
6
ByLayer
62
1
370
-1
100
AcDbLine
10
12.107532
20
29.744816
11
12.107532
21
37.744816
0
LINE
5
113
100
AcDbEntity
8
Layer_1
6
ByLayer
62
1
370
-1
100
AcDbLine
10
9.107532
20
37.744816
11
9.107532
21
29.744816
0
SPLINE
5
114
100
AcDbEntity
8
Layer_1
6
ByLayer
62
1
370
-1
100
AcDbSpline
210
0
220
0
230
1
70
8
71
3
72
8
73
4
74
0
42
1e-07
43
1e-07
40
0
40
0
40
0
40
0
40
1
40
1
40
1
40
1
10
7.105997
20
11.247398
30
0
10
7.105997
20
9.607235
30
0
10
8.446597
20
8.275231
30
0
10
10.095788
20
8.275231
30
0
0
SPLINE
5
115
100
AcDbEntity
8
Layer_1
6
ByLayer
62
1
370
-1
100
AcDbSpline
210
0
220
0
230
1
70
8
71
3
72
8
73
4
74
0
42
1e-07
43
1e-07
40
0
40
0
40
0
40
0
40
1
40
1
40
1
40
1
10
10.095788
20
8.275231
30
0
10
11.076849
20
8.275231
30
0
10
11.915496
20
8.768414
30
0
10
12.485859
20
9.474675
30
0
0
SPLINE
5
116
100
AcDbEntity
8
Layer_1
6
ByLayer
62
1
370
-1
100
AcDbSpline
210
0
220
0
230
1
70
8
71
3
72
8
73
4
74
0
42
1e-07
43
1e-07
40
0
40
0
40
0
40
0
40
1
40
1
40
1
40
1
10
12.485859
20
9.474675
30
0
10
13.268179
20
10.443403
30
0
10
14.376943
20
11.247398
30
0
10
18.218498
20
11.247398
30
0
0
LINE
5
117
100
AcDbEntity
8
Layer_1
6
ByLayer
62
1
370
-1
100
AcDbLine
10
9.107532
20
13.25126
11
12.107532
21
13.25126
0
LINE
5
118
100
AcDbEntity
8
Layer_1
6
ByLayer
62
1
370
-1
100
AcDbLine
10
12.107532
20
21.25126
11
9.107532
21
21.25126
0
LINE
5
119
100
AcDbEntity
8
Layer_1
6
ByLayer
62
1
370
-1
100
AcDbLine
10
12.107532
20
13.25126
11
12.107532
21
21.25126
0
LINE
5
11A
100
AcDbEntity
8
Layer_1
6
ByLayer
62
1
370
-1
100
AcDbLine
10
9.107532
20
21.25126
11
9.107532
21
13.25126
0
CIRCLE
5
11B
100
AcDbEntity
8
Layer_1
6
ByLayer
62
1
370
-1
100
AcDbCircle
10
14.1075
20
18.2488
40
1.2
0
LINE
5
11C
100
AcDbEntity
8
Layer_1
6
ByLayer
62
1
370
-1
100
AcDbLine
10
7.105997
20
36.794156
11
7.105997
21
11.247398
0
LINE
5
11D
100
AcDbEntity
8
Layer_1
6
ByLayer
62
1
370
-1
100
AcDbLine
10
18.218498
20
11.247398
11
63.002256
21
11.247398
0
LINE
5
11E
100
AcDbEntity
8
Layer_1
6
ByLayer
62
1
370
-1
100
AcDbLine
10
71.160242
20
39.74867
11
10.051691
21
39.74867
0
LWPOLYLINE
5
11F
100
AcDbEntity
8
Layer_1
6
ByLayer
62
1
370
-1
100
AcDbPolyline
90
6
70
0
43
0
10
97.331389
20
137.53435713
10
107.332639
20
137.53435713
10
107.332639
20
140.53296913
10
97.331389
20
140.53296913
10
97.331389
20
137.53435713
10
97.331389
20
137.53435713
0
LWPOLYLINE
5
120
100
AcDbEntity
8
Layer_1
6
ByLayer
62
1
370
-1
100
AcDbPolyline
90
6
70
0
43
0
10
115.876633
20
137.53435713
10
125.877883
20
137.53435713
10
125.877883
20
140.53296913
10
115.876633
20
140.53296913
10
115.876633
20
137.53435713
10
115.876633
20
137.53435713
0
LWPOLYLINE
5
121
100
AcDbEntity
8
Layer_1
6
ByLayer
62
1
370
-1
100
AcDbPolyline
90
6
70
0
43
0
10
115.876633
20
159.03299913
10
125.877883
20
159.03299913
10
125.877883
20
162.03161013
10
115.876633
20
162.03161013
10
115.876633
20
159.03299913
10
115.876633
20
159.03299913
0
LINE
5
122
100
AcDbEntity
8
Layer_1
6
ByLayer
62
1
370
-1
100
AcDbLine
10
97.331389
20
159.03299913
11
107.332639
21
159.03299913
0
LINE
5
123
100
AcDbEntity
8
Layer_1
6
ByLayer
62
1
370
-1
100
AcDbLine
10
107.332639
20
159.03299913
11
107.332639
21
162.03161013
0
LINE
5
124
100
AcDbEntity
8
Layer_1
6
ByLayer
62
1
370
-1
100
AcDbLine
10
107.332639
20
162.03161013
11
97.331389
21
162.03161013
0
LINE
5
125
100
AcDbEntity
8
Layer_1
6
ByLayer
62
1
370
-1
100
AcDbLine
10
97.331389
20
162.03161013
11
97.331389
21
159.03299913
0
LINE
5
126
100
AcDbEntity
8
Layer_1
6
ByLayer
62
1
370
-1
100
AcDbLine
10
97.331389
20
159.03299913
11
97.331389
21
159.03299913
0
SPLINE
5
127
100
AcDbEntity
8
Layer_1
6
ByLayer
62
1
370
-1
100
AcDbSpline
210
0
220
0
230
1
70
8
71
3
72
8
73
4
74
0
42
1e-07
43
1e-07
40
0
40
0
40
0
40
0
40
1
40
1
40
1
40
1
10
144.607675
20
139.50107913
30
0
10
145.417272
20
139.50107913
30
0
10
146.071703
20
138.83021713
30
0
10
146.071703
20
138.01059313
30
0
0
SPLINE
5
128
100
AcDbEntity
8
Layer_1
6
ByLayer
62
1
370
-1
100
AcDbSpline
210
0
220
0
230
1
70
8
71
3
72
8
73
4
74
0
42
1e-07
43
1e-07
40
0
40
0
40
0
40
0
40
1
40
1
40
1
40
1
10
146.071703
20
138.01059313
30
0
10
146.071703
20
137.19096913
30
0
10
145.417272
20
136.52892713
30
0
10
144.607675
20
136.52892713
30
0
0
SPLINE
5
129
100
AcDbEntity
8
Layer_1
6
ByLayer
62
1
370
-1
100
AcDbSpline
210
0
220
0
230
1
70
8
71
3
72
8
73
4
74
0
42
1e-07
43
1e-07
40
0
40
0
40
0
40
0
40
1
40
1
40
1
40
1
10
141.609064
20
136.47601013
30
0
10
141.609064
20
136.34569913
30
0
10
141.577447
20
136.21850813
30
0
10
141.529689
20
136.10559313
30
0
0
SPLINE
5
12A
100
AcDbEntity
8
Layer_1
6
ByLayer
62
1
370
-1
100
AcDbSpline
210
0
220
0
230
1
70
8
71
3
72
8
73
4
74
0
42
1e-07
43
1e-07
40
0
40
0
40
0
40
0
40
1
40
1
40
1
40
1
10
141.529689
20
136.10559313
30
0
10
141.481931
20
135.99267913
30
0
10
141.412239
20
135.89113013
30
0
10
141.326842
20
135.80573213
30
0
0
SPLINE
5
12B
100
AcDbEntity
8
Layer_1
6
ByLayer
62
1
370
-1
100
AcDbSpline
210
0
220
0
230
1
70
8
71
3
72
8
73
4
74
0
42
1e-07
43
1e-07
40
0
40
0
40
0
40
0
40
1
40
1
40
1
40
1
10
141.326842
20
135.80573213
30
0
10
141.241444
20
135.72033513
30
0
10
141.139895
20
135.65064313
30
0
10
141.026981
20
135.60288513
30
0
0
SPLINE
5
12C
100
AcDbEntity
8
Layer_1
6
ByLayer
62
1
370
-1
100
AcDbSpline
210
0
220
0
230
1
70
8
71
3
72
8
73
4
74
0
42
1e-07
43
1e-07
40
0
40
0
40
0
40
0
40
1
40
1
40
1
40
1
10
141.026981
20
135.60288513
30
0
10
140.914066
20
135.55512713
30
0
10
140.795694
20
135.53232913
30
0
10
140.665383
20
135.53232913
30
0
0
LWPOLYLINE
5
12D
100
AcDbEntity
8
Layer_1
6
ByLayer
62
1
370
-1
100
AcDbPolyline
90
4
70
0
43
0
10
144.607675
20
136.52892713
10
144.607675
20
137.52552413
10
141.609064
20
137.52552413
10
141.609064
20
136.47601013
0
SPLINE
5
12E
100
AcDbEntity
8
Layer_1
6
ByLayer
62
1
370
-1
100
AcDbSpline
210
0
220
0
230
1
70
8
71
3
72
8
73
4
74
0
42
1e-07
43
1e-07
40
0
40
0
40
0
40
0
40
1
40
1
40
1
40
1
10
143.663994
20
145.52677413
30
0
10
143.794305
20
145.52677413
30
0
10
143.912677
20
145.50397013
30
0
10
144.025592
20
145.45621813
30
0
0
SPLINE
5
12F
100
AcDbEntity
8
Layer_1
6
ByLayer
62
1
370
-1
100
AcDbSpline
210
0
220
0
230
1
70
8
71
3
72
8
73
4
74
0
42
1e-07
43
1e-07
40
0
40
0
40
0
40
0
40
1
40
1
40
1
40
1
10
144.025592
20
145.45621813
30
0
10
144.138506
20
145.40846113
30
0
10
144.240055
20
145.33876913
30
0
10
144.325453
20
145.25337113
30
0
0
SPLINE
5
130
100
AcDbEntity
8
Layer_1
6
ByLayer
62
1
370
-1
100
AcDbSpline
210
0
220
0
230
1
70
8
71
3
72
8
73
4
74
0
42
1e-07
43
1e-07
40
0
40
0
40
0
40
0
40
1
40
1
40
1
40
1
10
144.325453
20
145.25337113
30
0
10
144.41085
20
145.16797313
30
0
10
144.480542
20
145.06642413
30
0
10
144.5283
20
144.95351013
30
0
0
SPLINE
5
131
100
AcDbEntity
8
Layer_1
6
ByLayer
62
1
370
-1
100
AcDbSpline
210
0
220
0
230
1
70
8
71
3
72
8
73
4
74
0
42
1e-07
43
1e-07
40
0
40
0
40
0
40
0
40
1
40
1
40
1
40
1
10
144.5283
20
144.95351013
30
0
10
144.576058
20
144.84059613
30
0
10
144.607675
20
144.71340413
30
0
10
144.607675
20
144.58309313
30
0
0
LINE
5
132
100
AcDbEntity
8
Layer_1
6
ByLayer
62
1
370
-1
100
AcDbLine
10
141.609064
20
145.52677413
11
143.663994
21
145.52677413
0
LINE
5
133
100
AcDbEntity
8
Layer_1
6
ByLayer
62
1
370
-1
100
AcDbLine
10
144.607675
20
144.58309313
11
144.607675
21
139.50107913
0
SPLINE
5
134
100
AcDbEntity
8
Layer_1
6
ByLayer
62
1
370
-1
100
AcDbSpline
210
0
220
0
230
1
70
8
71
3
72
8
73
4
74
0
42
1e-07
43
1e-07
40
0
40
0
40
0
40
0
40
1
40
1
40
1
40
1
10
132.648508
20
164.03362413
30
0
10
133.012219
20
164.03362413
30
0
10
133.281394
20
163.60147113
30
0
10
133.645106
20
163.60147113
30
0
0
SPLINE
5
135
100
AcDbEntity
8
Layer_1
6
ByLayer
62
1
370
-1
100
AcDbSpline
210
0
220
0
230
1
70
8
71
3
72
8
73
4
74
0
42
1e-07
43
1e-07
40
0
40
0
40
0
40
0
40
1
40
1
40
1
40
1
10
133.645106
20
163.60147113
30
0
10
134.008817
20
163.60147113
30
0
10
134.286811
20
164.03362413
30
0
10
134.650522
20
164.03362413
30
0
0
SPLINE
5
136
100
AcDbEntity
8
Layer_1
6
ByLayer
62
1
370
-1
100
AcDbSpline
210
0
220
0
230
1
70
8
71
3
72
8
73
4
74
0
42
1e-07
43
1e-07
40
0
40
0
40
0
40
0
40
1
40
1
40
1
40
1
10
134.650522
20
164.03362413
30
0
10
135.014233
20
164.03362413
30
0
10
135.292228
20
163.60147113
30
0
10
135.655939
20
163.60147113
30
0
0
SPLINE
5
137
100
AcDbEntity
8
Layer_1
6
ByLayer
62
1
370
-1
100
AcDbSpline
210
0
220
0
230
1
70
8
71
3
72
8
73
4
74
0
42
1e-07
43
1e-07
40
0
40
0
40
0
40
0
40
1
40
1
40
1
40
1
10
135.655939
20
163.60147113
30
0
10
136.01965
20
163.60147113
30
0
10
136.288825
20
164.03362413
30
0
10
136.652536
20
164.03362413
30
0
0
SPLINE
5
138
100
AcDbEntity
8
Layer_1
6
ByLayer
62
1
370
-1
100
AcDbSpline
210
0
220
0
230
1
70
8
71
3
72
8
73
4
74
0
42
1e-07
43
1e-07
40
0
40
0
40
0
40
0
40
1
40
1
40
1
40
1
10
136.652536
20
164.03362413
30
0
10
137.016247
20
164.03362413
30
0
10
137.294242
20
163.60147113
30
0
10
137.657953
20
163.60147113
30
0
0
SPLINE
5
139
100
AcDbEntity
8
Layer_1
6
ByLayer
62
1
370
-1
100
AcDbSpline
210
0
220
0
230
1
70
8
71
3
72
8
73
4
74
0
42
1e-07
43
1e-07
40
0
40
0
40
0
40
0
40
1
40
1
40
1
40
1
10
137.657953
20
163.60147113
30
0
10
138.021664
20
163.60147113
30
0
10
138.290839
20
164.03362413
30
0
10
138.65455
20
164.03362413
30
0
0
SPLINE
5
13A
100
AcDbEntity
8
Layer_1
6
ByLayer
62
1
370
-1
100
AcDbSpline
210
0
220
0
230
1
70
8
71
3
72
8
73
4
74
0
42
1e-07
43
1e-07
40
0
40
0
40
0
40
0
40
1
40
1
40
1
40
1
10
138.65455
20
164.03362413
30
0
10
139.018261
20
164.03362413
30
0
10
139.296256
20
163.60147113
30
0
10
139.659967
20
163.60147113
30
0
0
SPLINE
5
13B
100
AcDbEntity
8
Layer_1
6
ByLayer
62
1
370
-1
100
AcDbSpline
210
0
220
0
230
1
70
8
71
3
72
8
73
4
74
0
42
1e-07
43
1e-07
40
0
40
0
40
0
40
0
40
1
40
1
40
1
40
1
10
139.659967
20
163.60147113
30
0
10
140.023678
20
163.60147113
30
0
10
140.301672
20
164.03362413
30
0
10
140.665383
20
164.03362413
30
0
0
SPLINE
5
13C
100
AcDbEntity
8
Layer_1
6
ByLayer
62
1
370
-1
100
AcDbSpline
210
0
220
0
230
1
70
8
71
3
72
8
73
4
74
0
42
1e-07
43
1e-07
40
0
40
0
40
0
40
0
40
1
40
1
40
1
40
1
10
140.665383
20
164.03362413
30
0
10
140.795694
20
164.03362413
30
0
10
140.914066
20
164.00200713
30
0
10
141.026981
20
163.95424913
30
0
0
SPLINE
5
13D
100
AcDbEntity
8
Layer_1
6
ByLayer
62
1
370
-1
100
AcDbSpline
210
0
220
0
230
1
70
8
71
3
72
8
73
4
74
0
42
1e-07
43
1e-07
40
0
40
0
40
0
40
0
40
1
40
1
40
1
40
1
10
141.026981
20
163.95424913
30
0
10
141.139895
20
163.90649113
30
0
10
141.241444
20
163.84561613
30
0
10
141.326842
20
163.76022113
30
0
0
SPLINE
5
13E
100
AcDbEntity
8
Layer_1
6
ByLayer
62
1
370
-1
100
AcDbSpline
210
0
220
0
230
1
70
8
71
3
72
8
73
4
74
0
42
1e-07
43
1e-07
40
0
40
0
40
0
40
0
40
1
40
1
40
1
40
1
10
141.326842
20
163.76022113
30
0
10
141.412239
20
163.67482613
30
0
10
141.481931
20
163.57327213
30
0
10
141.529689
20
163.46036013
30
0
0
SPLINE
5
13F
100
AcDbEntity
8
Layer_1
6
ByLayer
62
1
370
-1
100
AcDbSpline
210
0
220
0
230
1
70
8
71
3
72
8
73
4
74
0
42
1e-07
43
1e-07
40
0
40
0
40
0
40
0
40
1
40
1
40
1
40
1
10
141.529689
20
163.46036013
30
0
10
141.577447
20
163.34744913
30
0
10
141.609064
20
163.22025413
30
0
10
141.609064
20
163.08994413
30
0
0
SPLINE
5
140
100
AcDbEntity
8
Layer_1
6
ByLayer
62
1
370
-1
100
AcDbSpline
210
0
220
0
230
1
70
8
71
3
72
8
73
4
74
0
42
1e-07
43
1e-07
40
0
40
0
40
0
40
0
40
1
40
1
40
1
40
1
10
144.607675
20
163.01938813
30
0
10
145.417272
20
163.01938813
30
0
10
146.071703
20
162.35734513
30
0
10
146.071703
20
161.53772113
30
0
0
SPLINE
5
141
100
AcDbEntity
8
Layer_1
6
ByLayer
62
1
370
-1
100
AcDbSpline
210
0
220
0
230
1
70
8
71
3
72
8
73
4
74
0
42
1e-07
43
1e-07
40
0
40
0
40
0
40
0
40
1
40
1
40
1
40
1
10
146.071703
20
161.53772113
30
0
10
146.071703
20
160.71809713
30
0
10
145.417272
20
160.05605513
30
0
10
144.607675
20
160.05605513
30
0
0
SPLINE
5
142
100
AcDbEntity
8
Layer_1
6
ByLayer
62
1
370
-1
100
AcDbSpline
210
0
220
0
230
1
70
8
71
3
72
8
73
4
74
0
42
1e-07
43
1e-07
40
0
40
0
40
0
40
0
40
1
40
1
40
1
40
1
10
144.607675
20
160.05605513
30
0
10
144.607675
20
160.05605513
30
0
10
142.747489
20
160.01599313
30
0
10
141.168092
20
160.22362413
30
0
0
SPLINE
5
143
100
AcDbEntity
8
Layer_1
6
ByLayer
62
1
370
-1
100
AcDbSpline
210
0
220
0
230
1
70
8
71
3
72
8
73
4
74
0
42
1e-07
43
1e-07
40
0
40
0
40
0
40
0
40
1
40
1
40
1
40
1
10
141.168092
20
160.22362413
30
0
10
139.588697
20
160.43125513
30
0
10
136.070374
20
161.53399613
30
0
10
134.297744
20
161.76702713
30
0
0
SPLINE
5
144
100
AcDbEntity
8
Layer_1
6
ByLayer
62
1
370
-1
100
AcDbSpline
210
0
220
0
230
1
70
8
71
3
72
8
73
4
74
0
42
1e-07
43
1e-07
40
0
40
0
40
0
40
0
40
1
40
1
40
1
40
1
10
134.297744
20
161.76702713
30
0
10
132.525118
20
162.00008613
30
0
10
129.641078
20
162.02279113
30
0
10
129.641078
20
162.02279113
30
0
0
SPLINE
5
145
100
AcDbEntity
8
Layer_1
6
ByLayer
62
1
370
-1
100
AcDbSpline
210
0
220
0
230
1
70
8
71
3
72
8
73
4
74
0
42
1e-07
43
1e-07
40
0
40
0
40
0
40
0
40
1
40
1
40
1
40
1
10
129.641078
20
162.02279113
30
0
10
129.365883
20
162.02279113
30
0
10
129.138369
20
161.78782713
30
0
10
129.138369
20
161.50244413
30
0
0
SPLINE
5
146
100
AcDbEntity
8
Layer_1
6
ByLayer
62
1
370
-1
100
AcDbSpline
210
0
220
0
230
1
70
8
71
3
72
8
73
4
74
0
42
1e-07
43
1e-07
40
0
40
0
40
0
40
0
40
1
40
1
40
1
40
1
10
129.138369
20
161.50244413
30
0
10
129.138369
20
161.21706013
30
0
10
129.365883
20
160.99091613
30
0
10
129.641078
20
160.99091613
30
0
0
SPLINE
5
147
100
AcDbEntity
8
Layer_1
6
ByLayer
62
1
370
-1
100
AcDbSpline
210
0
220
0
230
1
70
8
71
3
72
8
73
4
74
0
42
1e-07
43
1e-07
40
0
40
0
40
0
40
0
40
1
40
1
40
1
40
1
10
129.641078
20
160.99091613
30
0
10
129.641078
20
160.99091613
30
0
10
132.496244
20
160.96726613
30
0
10
134.262467
20
160.73515213
30
0
0
SPLINE
5
148
100
AcDbEntity
8
Layer_1
6
ByLayer
62
1
370
-1
100
AcDbSpline
210
0
220
0
230
1
70
8
71
3
72
8
73
4
74
0
42
1e-07
43
1e-07
40
0
40
0
40
0
40
0
40
1
40
1
40
1
40
1
10
134.262467
20
160.73515213
30
0
10
136.02869
20
160.50293913
30
0
10
139.547772
20
159.40893313
30
0
10
141.132814
20
159.20056913
30
0
0
SPLINE
5
149
100
AcDbEntity
8
Layer_1
6
ByLayer
62
1
370
-1
100
AcDbSpline
210
0
220
0
230
1
70
8
71
3
72
8
73
4
74
0
42
1e-07
43
1e-07
40
0
40
0
40
0
40
0
40
1
40
1
40
1
40
1
10
141.132814
20
159.20056913
30
0
10
142.321596
20
159.04429613
30
0
10
143.674866
20
159.01635613
30
0
10
144.281356
20
159.01536013
30
0
0
SPLINE
5
14A
100
AcDbEntity
8
Layer_1
6
ByLayer
62
1
370
-1
100
AcDbSpline
210
0
220
0
230
1
70
8
71
3
72
8
73
4
74
0
42
1e-07
43
1e-07
40
0
40
0
40
0
40
0
40
1
40
1
40
1
40
1
10
144.281356
20
159.01536013
30
0
10
144.48352
20
159.01507813
30
0
10
144.607675
20
159.02416613
30
0
10
144.607675
20
159.02416613
30
0
0
LWPOLYLINE
5
14B
100
AcDbEntity
8
Layer_1
6
ByLayer
62
1
370
-1
100
AcDbPolyline
90
4
70
0
43
0
10
141.609064
20
163.08994413
10
141.609064
20
162.02279113
10
144.607675
20
162.02279113
10
144.607675
20
163.01938813
0
SPLINE
5
14C
100
AcDbEntity
8
Layer_1
6
ByLayer
62
1
370
-1
100
AcDbSpline
210
0
220
0
230
1
70
8
71
3
72
8
73
4
74
0
42
1e-07
43
1e-07
40
0
40
0
40
0
40
0
40
1
40
1
40
1
40
1
10
144.607675
20
154.96520713
30
0
10
144.607675
20
154.83489713
30
0
10
144.576058
20
154.71652413
30
0
10
144.5283
20
154.60361013
30
0
0
SPLINE
5
14D
100
AcDbEntity
8
Layer_1
6
ByLayer
62
1
370
-1
100
AcDbSpline
210
0
220
0
230
1
70
8
71
3
72
8
73
4
74
0
42
1e-07
43
1e-07
40
0
40
0
40
0
40
0
40
1
40
1
40
1
40
1
10
144.5283
20
154.60361013
30
0
10
144.480542
20
154.49069613
30
0
10
144.41085
20
154.38914613
30
0
10
144.325453
20
154.30374913
30
0
0
SPLINE
5
14E
100
AcDbEntity
8
Layer_1
6
ByLayer
62
1
370
-1
100
AcDbSpline
210
0
220
0
230
1
70
8
71
3
72
8
73
4
74
0
42
1e-07
43
1e-07
40
0
40
0
40
0
40
0
40
1
40
1
40
1
40
1
10
144.325453
20
154.30374913
30
0
10
144.240055
20
154.21835113
30
0
10
144.138506
20
154.14865913
30
0
10
144.025592
20
154.10090213
30
0
0
SPLINE
5
14F
100
AcDbEntity
8
Layer_1
6
ByLayer
62
1
370
-1
100
AcDbSpline
210
0
220
0
230
1
70
8
71
3
72
8
73
4
74
0
42
1e-07
43
1e-07
40
0
40
0
40
0
40
0
40
1
40
1
40
1
40
1
10
144.025592
20
154.10090213
30
0
10
143.912677
20
154.05314413
30
0
10
143.794305
20
154.02152713
30
0
10
143.663994
20
154.02152713
30
0
0
LINE
5
150
100
AcDbEntity
8
Layer_1
6
ByLayer
62
1
370
-1
100
AcDbLine
10
143.663994
20
154.02152713
11
141.609064
21
154.02152713
0
LINE
5
151
100
AcDbEntity
8
Layer_1
6
ByLayer
62
1
370
-1
100
AcDbLine
10
144.607675
20
159.02416613
11
144.607675
21
154.96520713
0
LINE
5
152
100
AcDbEntity
8
Layer_1
6
ByLayer
62
1
370
-1
100
AcDbLine
10
141.609064
20
154.02152713
11
141.609064
21
145.52677413
0
SPLINE
5
153
100
AcDbEntity
8
Layer_1
6
ByLayer
62
1
370
-1
100
AcDbSpline
210
0
220
0
230
1
70
8
71
3
72
8
73
4
74
0
42
1e-07
43
1e-07
40
0
40
0
40
0
40
0
40
1
40
1
40
1
40
1
10
82.552708
20
135.53234413
30
0
10
82.422398
20
135.53234413
30
0
10
82.295206
20
135.55514713
30
0
10
82.182292
20
135.60289913
30
0
0
SPLINE
5
154
100
AcDbEntity
8
Layer_1
6
ByLayer
62
1
370
-1
100
AcDbSpline
210
0
220
0
230
1
70
8
71
3
72
8
73
4
74
0
42
1e-07
43
1e-07
40
0
40
0
40
0
40
0
40
1
40
1
40
1
40
1
10
82.182292
20
135.60289913
30
0
10
82.069377
20
135.65065713
30
0
10
81.967828
20
135.72034913
30
0
10
81.882431
20
135.80574613
30
0
0
SPLINE
5
155
100
AcDbEntity
8
Layer_1
6
ByLayer
62
1
370
-1
100
AcDbSpline
210
0
220
0
230
1
70
8
71
3
72
8
73
4
74
0
42
1e-07
43
1e-07
40
0
40
0
40
0
40
0
40
1
40
1
40
1
40
1
10
81.882431
20
135.80574613
30
0
10
81.797033
20
135.89114413
30
0
10
81.727341
20
135.99269313
30
0
10
81.679583
20
136.10560713
30
0
0
SPLINE
5
156
100
AcDbEntity
8
Layer_1
6
ByLayer
62
1
370
-1
100
AcDbSpline
210
0
220
0
230
1
70
8
71
3
72
8
73
4
74
0
42
1e-07
43
1e-07
40
0
40
0
40
0
40
0
40
1
40
1
40
1
40
1
10
81.679583
20
136.10560713
30
0
10
81.631826
20
136.21852213
30
0
10
81.609028
20
136.34571413
30
0
10
81.609028
20
136.47602413
30
0
0
SPLINE
5
157
100
AcDbEntity
8
Layer_1
6
ByLayer
62
1
370
-1
100
AcDbSpline
210
0
220
0
230
1
70
8
71
3
72
8
73
4
74
0
42
1e-07
43
1e-07
40
0
40
0
40
0
40
0
40
1
40
1
40
1
40
1
10
78.610417
20
136.52894113
30
0
10
77.80082
20
136.52894113
30
0
10
77.146389
20
137.19980313
30
0
10
77.146389
20
138.01942713
30
0
0
SPLINE
5
158
100
AcDbEntity
8
Layer_1
6
ByLayer
62
1
370
-1
100
AcDbSpline
210
0
220
0
230
1
70
8
71
3
72
8
73
4
74
0
42
1e-07
43
1e-07
40
0
40
0
40
0
40
0
40
1
40
1
40
1
40
1
10
77.146389
20
138.01942713
30
0
10
77.146389
20
138.83905113
30
0
10
77.80082
20
139.50109413
30
0
10
78.610417
20
139.50109413
30
0
0
LWPOLYLINE
5
159
100
AcDbEntity
8
Layer_1
6
ByLayer
62
1
370
-1
100
AcDbPolyline
90
4
70
0
43
0
10
81.609028
20
136.47602413
10
81.609028
20
137.53435713
10
78.610417
20
137.53435713
10
78.610417
20
136.52894113
0
LINE
5
15A
100
AcDbEntity
8
Layer_1
6
ByLayer
62
1
370
-1
100
AcDbLine
10
82.552708
20
135.53232913
11
82.552708
21
135.53234413
0
SPLINE
5
15B
100
AcDbEntity
8
Layer_1
6
ByLayer
62
1
370
-1
100
AcDbSpline
210
0
220
0
230
1
70
8
71
3
72
8
73
4
74
0
42
1e-07
43
1e-07
40
0
40
0
40
0
40
0
40
1
40
1
40
1
40
1
10
78.610417
20
144.59192713
30
0
10
78.610417
20
144.72223713
30
0
10
78.63322
20
144.84061013
30
0
10
78.680972
20
144.95352413
30
0
0
SPLINE
5
15C
100
AcDbEntity
8
Layer_1
6
ByLayer
62
1
370
-1
100
AcDbSpline
210
0
220
0
230
1
70
8
71
3
72
8
73
4
74
0
42
1e-07
43
1e-07
40
0
40
0
40
0
40
0
40
1
40
1
40
1
40
1
10
78.680972
20
144.95352413
30
0
10
78.72873
20
145.06643813
30
0
10
78.798422
20
145.16798813
30
0
10
78.883819
20
145.25338513
30
0
0
SPLINE
5
15D
100
AcDbEntity
8
Layer_1
6
ByLayer
62
1
370
-1
100
AcDbSpline
210
0
220
0
230
1
70
8
71
3
72
8
73
4
74
0
42
1e-07
43
1e-07
40
0
40
0
40
0
40
0
40
1
40
1
40
1
40
1
10
78.883819
20
145.25338513
30
0
10
78.969217
20
145.33878313
30
0
10
79.070766
20
145.40847513
30
0
10
79.183681
20
145.45623213
30
0
0
SPLINE
5
15E
100
AcDbEntity
8
Layer_1
6
ByLayer
62
1
370
-1
100
AcDbSpline
210
0
220
0
230
1
70
8
71
3
72
8
73
4
74
0
42
1e-07
43
1e-07
40
0
40
0
40
0
40
0
40
1
40
1
40
1
40
1
10
79.183681
20
145.45623213
30
0
10
79.296595
20
145.50399013
30
0
10
79.423787
20
145.53560713
30
0
10
79.554097
20
145.53560713
30
0
0
LINE
5
15F
100
AcDbEntity
8
Layer_1
6
ByLayer
62
1
370
-1
100
AcDbLine
10
79.554097
20
145.53560713
11
81.609028
21
145.53560713
0
LINE
5
160
100
AcDbEntity
8
Layer_1
6
ByLayer
62
1
370
-1
100
AcDbLine
10
78.610417
20
139.50109413
11
78.610417
21
144.59192713
0
SPLINE
5
161
100
AcDbEntity
8
Layer_1
6
ByLayer
62
1
370
-1
100
AcDbSpline
210
0
220
0
230
1
70
8
71
3
72
8
73
4
74
0
42
1e-07
43
1e-07
40
0
40
0
40
0
40
0
40
1
40
1
40
1
40
1
10
78.610417
20
159.02418013
30
0
10
78.610417
20
159.02418013
30
0
10
80.500236
20
158.99220413
30
0
10
82.085278
20
159.20056913
30
0
0
SPLINE
5
162
100
AcDbEntity
8
Layer_1
6
ByLayer
62
1
370
-1
100
AcDbSpline
210
0
220
0
230
1
70
8
71
3
72
8
73
4
74
0
42
1e-07
43
1e-07
40
0
40
0
40
0
40
0
40
1
40
1
40
1
40
1
10
82.085278
20
159.20056913
30
0
10
83.67032
20
159.40893313
30
0
10
87.180583
20
160.51175913
30
0
10
88.946806
20
160.74397113
30
0
0
SPLINE
5
163
100
AcDbEntity
8
Layer_1
6
ByLayer
62
1
370
-1
100
AcDbSpline
210
0
220
0
230
1
70
8
71
3
72
8
73
4
74
0
42
1e-07
43
1e-07
40
0
40
0
40
0
40
0
40
1
40
1
40
1
40
1
10
88.946806
20
160.74397113
30
0
10
90.713028
20
160.97609913
30
0
10
93.577014
20
160.99091613
30
0
10
93.577014
20
160.99091613
30
0
0
SPLINE
5
164
100
AcDbEntity
8
Layer_1
6
ByLayer
62
1
370
-1
100
AcDbSpline
210
0
220
0
230
1
70
8
71
3
72
8
73
4
74
0
42
1e-07
43
1e-07
40
0
40
0
40
0
40
0
40
1
40
1
40
1
40
1
10
93.577014
20
160.99091613
30
0
10
93.852209
20
160.99091613
30
0
10
94.070903
20
161.22588013
30
0
10
94.070903
20
161.51126313
30
0
0
SPLINE
5
165
100
AcDbEntity
8
Layer_1
6
ByLayer
62
1
370
-1
100
AcDbSpline
210
0
220
0
230
1
70
8
71
3
72
8
73
4
74
0
42
1e-07
43
1e-07
40
0
40
0
40
0
40
0
40
1
40
1
40
1
40
1
10
94.070903
20
161.51126313
30
0
10
94.070903
20
161.79664613
30
0
10
93.852209
20
162.02279113
30
0
10
93.577014
20
162.02279113
30
0
0
SPLINE
5
166
100
AcDbEntity
8
Layer_1
6
ByLayer
62
1
370
-1
100
AcDbSpline
210
0
220
0
230
1
70
8
71
3
72
8
73
4
74
0
42
1e-07
43
1e-07
40
0
40
0
40
0
40
0
40
1
40
1
40
1
40
1
10
93.577014
20
162.02279113
30
0
10
93.577014
20
162.02279113
30
0
10
90.684154
20
162.00890513
30
0
10
88.911528
20
161.77584613
30
0
0
SPLINE
5
167
100
AcDbEntity
8
Layer_1
6
ByLayer
62
1
370
-1
100
AcDbSpline
210
0
220
0
230
1
70
8
71
3
72
8
73
4
74
0
42
1e-07
43
1e-07
40
0
40
0
40
0
40
0
40
1
40
1
40
1
40
1
10
88.911528
20
161.77584613
30
0
10
87.138898
20
161.54281513
30
0
10
83.629395
20
160.44007413
30
0
10
82.05
20
160.23244413
30
0
0
SPLINE
5
168
100
AcDbEntity
8
Layer_1
6
ByLayer
62
1
370
-1
100
AcDbSpline
210
0
220
0
230
1
70
8
71
3
72
8
73
4
74
0
42
1e-07
43
1e-07
40
0
40
0
40
0
40
0
40
1
40
1
40
1
40
1
10
82.05
20
160.23244413
30
0
10
80.470603
20
160.02481313
30
0
10
78.610417
20
160.05605513
30
0
10
78.610417
20
160.05605513
30
0
0
SPLINE
5
169
100
AcDbEntity
8
Layer_1
6
ByLayer
62
1
370
-1
100
AcDbSpline
210
0
220
0
230
1
70
8
71
3
72
8
73
4
74
0
42
1e-07
43
1e-07
40
0
40
0
40
0
40
0
40
1
40
1
40
1
40
1
10
78.610417
20
160.05605513
30
0
10
77.80082
20
160.05605513
30
0
10
77.146389
20
160.72691713
30
0
10
77.146389
20
161.54654113
30
0
0
SPLINE
5
16A
100
AcDbEntity
8
Layer_1
6
ByLayer
62
1
370
-1
100
AcDbSpline
210
0
220
0
230
1
70
8
71
3
72
8
73
4
74
0
42
1e-07
43
1e-07
40
0
40
0
40
0
40
0
40
1
40
1
40
1
40
1
10
77.146389
20
161.54654113
30
0
10
77.146389
20
162.36616513
30
0
10
77.80082
20
163.02820713
30
0
10
78.610417
20
163.02820713
30
0
0
SPLINE
5
16B
100
AcDbEntity
8
Layer_1
6
ByLayer
62
1
370
-1
100
AcDbSpline
210
0
220
0
230
1
70
8
71
3
72
8
73
4
74
0
42
1e-07
43
1e-07
40
0
40
0
40
0
40
0
40
1
40
1
40
1
40
1
10
81.609028
20
163.08994413
30
0
10
81.609028
20
163.22025413
30
0
10
81.631831
20
163.34744913
30
0
10
81.679583
20
163.46036013
30
0
0
SPLINE
5
16C
100
AcDbEntity
8
Layer_1
6
ByLayer
62
1
370
-1
100
AcDbSpline
210
0
220
0
230
1
70
8
71
3
72
8
73
4
74
0
42
1e-07
43
1e-07
40
0
40
0
40
0
40
0
40
1
40
1
40
1
40
1
10
81.679583
20
163.46036013
30
0
10
81.727341
20
163.57327213
30
0
10
81.797033
20
163.67482613
30
0
10
81.882431
20
163.76022113
30
0
0
SPLINE
5
16D
100
AcDbEntity
8
Layer_1
6
ByLayer
62
1
370
-1
100
AcDbSpline
210
0
220
0
230
1
70
8
71
3
72
8
73
4
74
0
42
1e-07
43
1e-07
40
0
40
0
40
0
40
0
40
1
40
1
40
1
40
1
10
81.882431
20
163.76022113
30
0
10
81.967828
20
163.84561613
30
0
10
82.069377
20
163.90649113
30
0
10
82.182292
20
163.95424913
30
0
0
SPLINE
5
16E
100
AcDbEntity
8
Layer_1
6
ByLayer
62
1
370
-1
100
AcDbSpline
210
0
220
0
230
1
70
8
71
3
72
8
73
4
74
0
42
1e-07
43
1e-07
40
0
40
0
40
0
40
0
40
1
40
1
40
1
40
1
10
82.182292
20
163.95424913
30
0
10
82.295206
20
164.00200713
30
0
10
82.422398
20
164.03362413
30
0
10
82.552708
20
164.03362413
30
0
0
SPLINE
5
16F
100
AcDbEntity
8
Layer_1
6
ByLayer
62
1
370
-1
100
AcDbSpline
210
0
220
0
230
1
70
8
71
3
72
8
73
4
74
0
42
1e-07
43
1e-07
40
0
40
0
40
0
40
0
40
1
40
1
40
1
40
1
10
82.552708
20
164.03362413
30
0
10
82.916419
20
164.03362413
30
0
10
83.194414
20
163.60147113
30
0
10
83.558125
20
163.60147113
30
0
0
SPLINE
5
170
100
AcDbEntity
8
Layer_1
6
ByLayer
62
1
370
-1
100
AcDbSpline
210
0
220
0
230
1
70
8
71
3
72
8
73
4
74
0
42
1e-07
43
1e-07
40
0
40
0
40
0
40
0
40
1
40
1
40
1
40
1
10
83.558125
20
163.60147113
30
0
10
83.921836
20
163.60147113
30
0
10
84.191011
20
164.03362413
30
0
10
84.554722
20
164.03362413
30
0
0
SPLINE
5
171
100
AcDbEntity
8
Layer_1
6
ByLayer
62
1
370
-1
100
AcDbSpline
210
0
220
0
230
1
70
8
71
3
72
8
73
4
74
0
42
1e-07
43
1e-07
40
0
40
0
40
0
40
0
40
1
40
1
40
1
40
1
10
84.554722
20
164.03362413
30
0
10
84.918433
20
164.03362413
30
0
10
85.196428
20
163.60147113
30
0
10
85.560139
20
163.60147113
30
0
0
SPLINE
5
172
100
AcDbEntity
8
Layer_1
6
ByLayer
62
1
370
-1
100
AcDbSpline
210
0
220
0
230
1
70
8
71
3
72
8
73
4
74
0
42
1e-07
43
1e-07
40
0
40
0
40
0
40
0
40
1
40
1
40
1
40
1
10
85.560139
20
163.60147113
30
0
10
85.92385
20
163.60147113
30
0
10
86.193025
20
164.03362413
30
0
10
86.556736
20
164.03362413
30
0
0
SPLINE
5
173
100
AcDbEntity
8
Layer_1
6
ByLayer
62
1
370
-1
100
AcDbSpline
210
0
220
0
230
1
70
8
71
3
72
8
73
4
74
0
42
1e-07
43
1e-07
40
0
40
0
40
0
40
0
40
1
40
1
40
1
40
1
10
86.556736
20
164.03362413
30
0
10
86.920447
20
164.03362413
30
0
10
87.198442
20
163.60147113
30
0
10
87.562153
20
163.60147113
30
0
0
SPLINE
5
174
100
AcDbEntity
8
Layer_1
6
ByLayer
62
1
370
-1
100
AcDbSpline
210
0
220
0
230
1
70
8
71
3
72
8
73
4
74
0
42
1e-07
43
1e-07
40
0
40
0
40
0
40
0
40
1
40
1
40
1
40
1
10
87.562153
20
163.60147113
30
0
10
87.925861
20
163.60147113
30
0
10
88.203856
20
164.03362413
30
0
10
88.567569
20
164.03362413
30
0
0
SPLINE
5
175
100
AcDbEntity
8
Layer_1
6
ByLayer
62
1
370
-1
100
AcDbSpline
210
0
220
0
230
1
70
8
71
3
72
8
73
4
74
0
42
1e-07
43
1e-07
40
0
40
0
40
0
40
0
40
1
40
1
40
1
40
1
10
88.567569
20
164.03362413
30
0
10
88.931281
20
164.03362413
30
0
10
89.200456
20
163.60147113
30
0
10
89.564167
20
163.60147113
30
0
0
SPLINE
5
176
100
AcDbEntity
8
Layer_1
6
ByLayer
62
1
370
-1
100
AcDbSpline
210
0
220
0
230
1
70
8
71
3
72
8
73
4
74
0
42
1e-07
43
1e-07
40
0
40
0
40
0
40
0
40
1
40
1
40
1
40
1
10
89.564167
20
163.60147113
30
0
10
89.927878
20
163.60147113
30
0
10
90.205872
20
164.03362413
30
0
10
90.569583
20
164.03362413
30
0
0
LWPOLYLINE
5
177
100
AcDbEntity
8
Layer_1
6
ByLayer
62
1
370
-1
100
AcDbPolyline
90
4
70
0
43
0
10
78.610417
20
163.02820713
10
78.610417
20
162.02279113
10
81.609028
20
162.02279113
10
81.609028
20
163.08994413
0
SPLINE
5
178
100
AcDbEntity
8
Layer_1
6
ByLayer
62
1
370
-1
100
AcDbSpline
210
0
220
0
230
1
70
8
71
3
72
8
73
4
74
0
42
1e-07
43
1e-07
40
0
40
0
40
0
40
0
40
1
40
1
40
1
40
1
10
79.554097
20
154.03036013
30
0
10
79.423787
20
154.03036013
30
0
10
79.296595
20
154.05316413
30
0
10
79.183681
20
154.10091613
30
0
0
SPLINE
5
179
100
AcDbEntity
8
Layer_1
6
ByLayer
62
1
370
-1
100
AcDbSpline
210
0
220
0
230
1
70
8
71
3
72
8
73
4
74
0
42
1e-07
43
1e-07
40
0
40
0
40
0
40
0
40
1
40
1
40
1
40
1
10
79.183681
20
154.10091613
30
0
10
79.070766
20
154.14867313
30
0
10
78.969217
20
154.21836513
30
0
10
78.883819
20
154.30376313
30
0
0
SPLINE
5
17A
100
AcDbEntity
8
Layer_1
6
ByLayer
62
1
370
-1
100
AcDbSpline
210
0
220
0
230
1
70
8
71
3
72
8
73
4
74
0
42
1e-07
43
1e-07
40
0
40
0
40
0
40
0
40
1
40
1
40
1
40
1
10
78.883819
20
154.30376313
30
0
10
78.798422
20
154.38916113
30
0
10
78.72873
20
154.49071013
30
0
10
78.680972
20
154.60362413
30
0
0
SPLINE
5
17B
100
AcDbEntity
8
Layer_1
6
ByLayer
62
1
370
-1
100
AcDbSpline
210
0
220
0
230
1
70
8
71
3
72
8
73
4
74
0
42
1e-07
43
1e-07
40
0
40
0
40
0
40
0
40
1
40
1
40
1
40
1
10
78.680972
20
154.60362413
30
0
10
78.633215
20
154.71653813
30
0
10
78.610417
20
154.84373013
30
0
10
78.610417
20
154.97404113
30
0
0
LINE
5
17C
100
AcDbEntity
8
Layer_1
6
ByLayer
62
1
370
-1
100
AcDbLine
10
81.609028
20
154.03036013
11
79.554097
21
154.03036013
0
LINE
5
17D
100
AcDbEntity
8
Layer_1
6
ByLayer
62
1
370
-1
100
AcDbLine
10
78.610417
20
154.97404113
11
78.610417
21
159.02418013
0
LINE
5
17E
100
AcDbEntity
8
Layer_1
6
ByLayer
62
1
370
-1
100
AcDbLine
10
81.609028
20
145.53560713
11
81.609028
21
154.03036013
0
SPLINE
5
17F
100
AcDbEntity
8
Layer_1
6
ByLayer
62
1
370
-1
100
AcDbSpline
210
0
220
0
230
1
70
8
71
3
72
8
73
4
74
0
42
1e-07
43
1e-07
40
0
40
0
40
0
40
0
40
1
40
1
40
1
40
1
10
74.105937
20
138.48762513
30
0
10
74.105937
20
138.07943913
30
0
10
74.025718
20
137.69479213
30
0
10
73.876631
20
137.34109713
30
0
0
SPLINE
5
180
100
AcDbEntity
8
Layer_1
6
ByLayer
62
1
370
-1
100
AcDbSpline
210
0
220
0
230
1
70
8
71
3
72
8
73
4
74
0
42
1e-07
43
1e-07
40
0
40
0
40
0
40
0
40
1
40
1
40
1
40
1
10
73.876631
20
137.34109713
30
0
10
73.727547
20
136.98740213
30
0
10
73.508204
20
136.66491513
30
0
10
73.241631
20
136.39741713
30
0
0
SPLINE
5
181
100
AcDbEntity
8
Layer_1
6
ByLayer
62
1
370
-1
100
AcDbSpline
210
0
220
0
230
1
70
8
71
3
72
8
73
4
74
0
42
1e-07
43
1e-07
40
0
40
0
40
0
40
0
40
1
40
1
40
1
40
1
10
73.241631
20
136.39741713
30
0
10
72.975061
20
136.12991813
30
0
10
72.659243
20
135.91201713
30
0
10
72.30677
20
135.76241713
30
0
0
SPLINE
5
182
100
AcDbEntity
8
Layer_1
6
ByLayer
62
1
370
-1
100
AcDbSpline
210
0
220
0
230
1
70
8
71
3
72
8
73
4
74
0
42
1e-07
43
1e-07
40
0
40
0
40
0
40
0
40
1
40
1
40
1
40
1
10
72.30677
20
135.76241713
30
0
10
71.9543
20
135.61281613
30
0
10
71.567018
20
135.53311113
30
0
10
71.160242
20
135.53311113
30
0
0
LINE
5
183
100
AcDbEntity
8
Layer_1
6
ByLayer
62
1
370
-1
100
AcDbLine
10
72.10751
20
137.53586113
11
69.10751
21
137.53586113
0
LINE
5
184
100
AcDbEntity
8
Layer_1
6
ByLayer
62
1
370
-1
100
AcDbLine
10
69.10751
20
145.53586113
11
72.10751
21
145.53586113
0
LINE
5
185
100
AcDbEntity
8
Layer_1
6
ByLayer
62
1
370
-1
100
AcDbLine
10
69.10751
20
137.53586113
11
69.10751
21
145.53586113
0
LINE
5
186
100
AcDbEntity
8
Layer_1
6
ByLayer
62
1
370
-1
100
AcDbLine
10
72.10751
20
145.53586113
11
72.10751
21
137.53586113
0
SPLINE
5
187
100
AcDbEntity
8
Layer_1
6
ByLayer
62
1
370
-1
100
AcDbSpline
210
0
220
0
230
1
70
8
71
3
72
8
73
4
74
0
42
1e-07
43
1e-07
40
0
40
0
40
0
40
0
40
1
40
1
40
1
40
1
10
63.002256
20
164.03438313
30
0
10
66.843812
20
164.03438313
30
0
10
67.943753
20
164.83837813
30
0
10
68.726076
20
165.80710613
30
0
0
SPLINE
5
188
100
AcDbEntity
8
Layer_1
6
ByLayer
62
1
370
-1
100
AcDbSpline
210
0
220
0
230
1
70
8
71
3
72
8
73
4
74
0
42
1e-07
43
1e-07
40
0
40
0
40
0
40
0
40
1
40
1
40
1
40
1
10
68.726076
20
165.80710613
30
0
10
69.296436
20
166.51339513
30
0
10
70.143904
20
166.99771713
30
0
10
71.124965
20
166.99771713
30
0
0
SPLINE
5
189
100
AcDbEntity
8
Layer_1
6
ByLayer
62
1
370
-1
100
AcDbSpline
210
0
220
0
230
1
70
8
71
3
72
8
73
4
74
0
42
1e-07
43
1e-07
40
0
40
0
40
0
40
0
40
1
40
1
40
1
40
1
10
71.124965
20
166.99771713
30
0
10
72.774156
20
166.99771713
30
0
10
74.105937
20
165.67451813
30
0
10
74.105937
20
164.03438313
30
0
0
LINE
5
18A
100
AcDbEntity
8
Layer_1
6
ByLayer
62
1
370
-1
100
AcDbLine
10
69.10751
20
162.02942013
11
72.10751
21
162.02942013
0
LINE
5
18B
100
AcDbEntity
8
Layer_1
6
ByLayer
62
1
370
-1
100
AcDbLine
10
72.10751
20
154.02942013
11
69.10751
21
154.02942013
0
LINE
5
18C
100
AcDbEntity
8
Layer_1
6
ByLayer
62
1
370
-1
100
AcDbLine
10
72.10751
20
162.02942013
11
72.10751
21
154.02942013
0
LINE
5
18D
100
AcDbEntity
8
Layer_1
6
ByLayer
62
1
370
-1
100
AcDbLine
10
69.10751
20
154.02942013
11
69.10751
21
162.02942013
0
LINE
5
18E
100
AcDbEntity
8
Layer_1
6
ByLayer
62
1
370
-1
100
AcDbLine
10
74.105937
20
164.03438313
11
74.105937
21
138.48762513
0
SPLINE
5
18F
100
AcDbEntity
8
Layer_1
6
ByLayer
62
1
370
-1
100
AcDbSpline
210
0
220
0
230
1
70
8
71
3
72
8
73
4
74
0
42
1e-07
43
1e-07
40
0
40
0
40
0
40
0
40
1
40
1
40
1
40
1
10
10.051691
20
135.53311113
30
0
10
9.644916
20
135.53311113
30
0
10
9.257634
20
135.61281613
30
0
10
8.905163
20
135.76241713
30
0
0
SPLINE
5
190
100
AcDbEntity
8
Layer_1
6
ByLayer
62
1
370
-1
100
AcDbSpline
210
0
220
0
230
1
70
8
71
3
72
8
73
4
74
0
42
1e-07
43
1e-07
40
0
40
0
40
0
40
0
40
1
40
1
40
1
40
1
10
8.905163
20
135.76241713
30
0
10
8.552692
20
135.91201713
30
0
10
8.236876
20
136.12992113
30
0
10
7.970302
20
136.39741713
30
0
0
SPLINE
5
191
100
AcDbEntity
8
Layer_1
6
ByLayer
62
1
370
-1
100
AcDbSpline
210
0
220
0
230
1
70
8
71
3
72
8
73
4
74
0
42
1e-07
43
1e-07
40
0
40
0
40
0
40
0
40
1
40
1
40
1
40
1
10
7.970302
20
136.39741713
30
0
10
7.703728
20
136.66491313
30
0
10
7.484386
20
136.98740813
30
0
10
7.335302
20
137.34109713
30
0
0
SPLINE
5
192
100
AcDbEntity
8
Layer_1
6
ByLayer
62
1
370
-1
100
AcDbSpline
210
0
220
0
230
1
70
8
71
3
72
8
73
4
74
0
42
1e-07
43
1e-07
40
0
40
0
40
0
40
0
40
1
40
1
40
1
40
1
10
7.335302
20
137.34109713
30
0
10
7.186218
20
137.69478713
30
0
10
7.105997
20
138.07944713
30
0
10
7.105997
20
138.48762513
30
0
0
LINE
5
193
100
AcDbEntity
8
Layer_1
6
ByLayer
62
1
370
-1
100
AcDbLine
10
10.051691
20
135.53311113
11
10.051691
21
135.53311113
0
LINE
5
194
100
AcDbEntity
8
Layer_1
6
ByLayer
62
1
370
-1
100
AcDbLine
10
12.107532
20
137.53696513
11
9.107532
21
137.53696513
0
LINE
5
195
100
AcDbEntity
8
Layer_1
6
ByLayer
62
1
370
-1
100
AcDbLine
10
9.107532
20
145.53696513
11
12.107532
21
145.53696513
0
LINE
5
196
100
AcDbEntity
8
Layer_1
6
ByLayer
62
1
370
-1
100
AcDbLine
10
12.107532
20
145.53696513
11
12.107532
21
137.53696513
0
LINE
5
197
100
AcDbEntity
8
Layer_1
6
ByLayer
62
1
370
-1
100
AcDbLine
10
9.107532
20
137.53696513
11
9.107532
21
145.53696513
0
SPLINE
5
198
100
AcDbEntity
8
Layer_1
6
ByLayer
62
1
370
-1
100
AcDbSpline
210
0
220
0
230
1
70
8
71
3
72
8
73
4
74
0
42
1e-07
43
1e-07
40
0
40
0
40
0
40
0
40
1
40
1
40
1
40
1
10
7.105997
20
164.03438313
30
0
10
7.105997
20
165.67454613
30
0
10
8.446597
20
167.00655013
30
0
10
10.095788
20
167.00655013
30
0
0
SPLINE
5
199
100
AcDbEntity
8
Layer_1
6
ByLayer
62
1
370
-1
100
AcDbSpline
210
0
220
0
230
1
70
8
71
3
72
8
73
4
74
0
42
1e-07
43
1e-07
40
0
40
0
40
0
40
0
40
1
40
1
40
1
40
1
10
10.095788
20
167.00655013
30
0
10
11.076849
20
167.00655013
30
0
10
11.915496
20
166.51336713
30
0
10
12.485859
20
165.80710613
30
0
0
SPLINE
5
19A
100
AcDbEntity
8
Layer_1
6
ByLayer
62
1
370
-1
100
AcDbSpline
210
0
220
0
230
1
70
8
71
3
72
8
73
4
74
0
42
1e-07
43
1e-07
40
0
40
0
40
0
40
0
40
1
40
1
40
1
40
1
10
12.485859
20
165.80710613
30
0
10
13.268179
20
164.83837813
30
0
10
14.376943
20
164.03438313
30
0
10
18.218498
20
164.03438313
30
0
0
LINE
5
19B
100
AcDbEntity
8
Layer_1
6
ByLayer
62
1
370
-1
100
AcDbLine
10
9.107532
20
162.03052113
11
12.107532
21
162.03052113
0
LINE
5
19C
100
AcDbEntity
8
Layer_1
6
ByLayer
62
1
370
-1
100
AcDbLine
10
12.107532
20
154.03052113
11
9.107532
21
154.03052113
0
LINE
5
19D
100
AcDbEntity
8
Layer_1
6
ByLayer
62
1
370
-1
100
AcDbLine
10
12.107532
20
162.03052113
11
12.107532
21
154.03052113
0
LINE
5
19E
100
AcDbEntity
8
Layer_1
6
ByLayer
62
1
370
-1
100
AcDbLine
10
9.107532
20
154.03052113
11
9.107532
21
162.03052113
0
LINE
5
19F
100
AcDbEntity
8
Layer_1
6
ByLayer
62
1
370
-1
100
AcDbLine
10
7.105997
20
138.48762513
11
7.105997
21
164.03438313
0
LINE
5
1A0
100
AcDbEntity
8
Layer_1
6
ByLayer
62
1
370
-1
100
AcDbLine
10
18.218498
20
164.03438313
11
63.002256
21
164.03438313
0
LINE
5
1A1
100
AcDbEntity
8
Layer_1
6
ByLayer
62
1
370
-1
100
AcDbLine
10
71.160242
20
135.53311113
11
10.051691
21
135.53311113
0
LINE
5
1A2
100
AcDbEntity
8
Layer_1
6
ByLayer
62
1
370
-1
100
AcDbLine
10
44.2882598044
20
58.5774188367
11
44.2882598044
21
59.7774188367
0
LINE
5
1A3
100
AcDbEntity
8
Layer_1
6
ByLayer
62
1
370
-1
100
AcDbLine
10
52.6882598044
20
58.5774188367
11
52.6882598044
21
59.7774188367
0
LINE
5
1A4
100
AcDbEntity
8
Layer_1
6
ByLayer
62
1
370
-1
100
AcDbLine
10
52.6882598044
20
59.7774188367
11
44.2882598044
21
59.7774188367
0
LINE
5
1A5
100
AcDbEntity
8
Layer_1
6
ByLayer
62
1
370
-1
100
AcDbLine
10
52.6882598044
20
58.5774188367
11
44.2882598044
21
58.5774188367
0
LINE
5
1A6
100
AcDbEntity
8
Layer_1
6
ByLayer
62
1
370
-1
100
AcDbLine
10
44.2882598044
20
56.1774188367
11
44.2882598044
21
57.3774188367
0
LINE
5
1A7
100
AcDbEntity
8
Layer_1
6
ByLayer
62
1
370
-1
100
AcDbLine
10
52.6882598044
20
56.1774188367
11
52.6882598044
21
57.3774188367
0
LINE
5
1A8
100
AcDbEntity
8
Layer_1
6
ByLayer
62
1
370
-1
100
AcDbLine
10
52.6882598044
20
57.3774188367
11
44.2882598044
21
57.3774188367
0
LINE
5
1A9
100
AcDbEntity
8
Layer_1
6
ByLayer
62
1
370
-1
100
AcDbLine
10
52.6882598044
20
56.1774188367
11
44.2882598044
21
56.1774188367
0
LINE
5
1AA
100
AcDbEntity
8
Layer_1
6
ByLayer
62
1
370
-1
100
AcDbLine
10
44.2882598044
20
53.7774188367
11
44.2882598044
21
54.9774188367
0
LINE
5
1AB
100
AcDbEntity
8
Layer_1
6
ByLayer
62
1
370
-1
100
AcDbLine
10
52.6882598044
20
53.7774188367
11
52.6882598044
21
54.9774188367
0
LINE
5
1AC
100
AcDbEntity
8
Layer_1
6
ByLayer
62
1
370
-1
100
AcDbLine
10
52.6882598044
20
54.9774188367
11
44.2882598044
21
54.9774188367
0
LINE
5
1AD
100
AcDbEntity
8
Layer_1
6
ByLayer
62
1
370
-1
100
AcDbLine
10
52.6882598044
20
53.7774188367
11
44.2882598044
21
53.7774188367
0
LINE
5
1AE
100
AcDbEntity
8
Layer_1
6
ByLayer
62
1
370
-1
100
AcDbLine
10
44.2882598044
20
51.3774188367
11
44.2882598044
21
52.5774188367
0
LINE
5
1AF
100
AcDbEntity
8
Layer_1
6
ByLayer
62
1
370
-1
100
AcDbLine
10
52.6882598044
20
51.3774188367
11
52.6882598044
21
52.5774188367
0
LINE
5
1B0
100
AcDbEntity
8
Layer_1
6
ByLayer
62
1
370
-1
100
AcDbLine
10
52.6882598044
20
52.5774188367
11
44.2882598044
21
52.5774188367
0
LINE
5
1B1
100
AcDbEntity
8
Layer_1
6
ByLayer
62
1
370
-1
100
AcDbLine
10
52.6882598044
20
51.3774188367
11
44.2882598044
21
51.3774188367
0
TEXT
5
1B2
100
AcDbEntity
8
0
6
ByLayer
62
256
370
-1
100
AcDbText
10
130.032696631
20
51.0486417721
30
0
40
2.5
1
FoxTemp2016
50
90
41
1
51
0
7

71
0
210
0
220
0
230
1
100
AcDbText
0
MTEXT
5
1B3
100
AcDbEntity
8
0
6
ByLayer
62
256
370
-1
100
AcDbMText
10
131.482677596
20
72.8449152688
30
0
40
1.4
41
22.8666688267
71
1
72
1
1
based on\Phttps://github.com/\Pdiy-electronics/\Praspberrypi-b-plus-case
7

210
0
220
0
230
1
50
90
73
2
44
1
0
LINE
5
1B4
100
AcDbEntity
8
Layer_1
6
ByLayer
62
1
370
-1
100
AcDbLine
10
140.665383
20
135.53232913
11
82.552708
21
135.53232913
0
LINE
5
1B5
100
AcDbEntity
8
Layer_1
6
ByLayer
62
1
370
-1
100
AcDbLine
10
90.569583
20
164.03362413
11
132.648508
21
164.03362413
0
LINE
5
1B6
100
AcDbEntity
8
Layer_1
6
ByLayer
62
1
370
-1
100
AcDbLine
10
140.665383
20
39.749452
11
82.552708
21
39.749452
0
LINE
5
1B7
100
AcDbEntity
8
Layer_1
6
ByLayer
62
1
370
-1
100
AcDbLine
10
90.569583
20
11.248157
11
132.648508
21
11.248157
0
ENDSEC
0
SECTION
2
OBJECTS
0
DICTIONARY
5
C
330
0
100
AcDbDictionary
281
1
3
ACAD_GROUP
350
D
3
ACAD_IMAGE_DICT
350
1B8
0
DICTIONARY
5
D
330
C
100
AcDbDictionary
281
1
0
IMAGEDEF_REACTOR
5
48
330
49
100
AcDbRasterImageDefReactor
90
2
330
49
0
DICTIONARY
5
1B8
330
C
100
AcDbDictionary
281
1
3
CC-BY-SA_icon.svg
350
47
0
IMAGEDEF
5
47
102
{ACAD_REACTORS
330
48
102
}
100
AcDbRasterImageDef
90
0
1
/tmp/CC-BY-SA_icon.svg.png
10
1000
20
352
11
1
21
1
280
1
281
0
0
ENDSEC
0
EOF
