999
dxfrw 0.5.10
0
SECTION
2
HEADER
9
$ACADVER
1
AC1021
9
$HANDSEED
5
20000
9
$DWGCODEPAGE
3
ANSI_1252
9
$INSBASE
10
0
20
0
30
0
9
$EXTMIN
10
8.105997
20
8.775231
30
0
9
$EXTMAX
10
145.571703
20
162.516371921
30
0
9
$LIMMIN
10
0
20
0
9
$LIMMAX
10
420
20
297
9
$ORTHOMODE
70
0
9
$LTSCALE
40
1
9
$TEXTSTYLE
7
STANDARD
9
$CLAYER
8
0
9
$DIMASZ
40
2.5
9
$DIMLFAC
40
1
9
$DIMSCALE
40
1
9
$DIMEXO
40
0.625
9
$DIMEXE
40
1.25
9
$DIMTXT
40
2.5
9
$DIMTSZ
40
0
9
$DIMAUNIT
70
0
9
$DIMADEC
70
0
9
$DIMLUNIT
70
2
9
$DIMSTYLE
2
Standard
9
$DIMGAP
40
0.625
9
$DIMTIH
70
0
9
$LUNITS
70
2
9
$LUPREC
70
4
9
$AUNITS
70
0
9
$AUPREC
70
2
9
$SPLINESEGS
70
8
9
$GRIDMODE
70
1
9
$SNAPSTYLE
70
0
9
$PINSBASE
10
0
20
0
30
0
9
$PLIMMIN
10
0
20
0
9
$PLIMMAX
10
210
20
297
9
$INSUNITS
70
4
9
$PSVPSCALE
40
1
0
ENDSEC
0
SECTION
2
CLASSES
0
ENDSEC
0
SECTION
2
TABLES
0
TABLE
2
VPORT
5
8
330
0
100
AcDbSymbolTable
70
1
0
VPORT
5
31
330
2
100
AcDbSymbolTableRecord
100
AcDbViewportTableRecord
2
*ACTIVE
70
0
10
0
20
0
11
1
21
1
12
105.672459393
22
82.0804684585
13
0
23
0
14
10
24
10
15
10
25
10
16
0
26
0
36
1
17
0
27
0
37
0
40
157.67313941
41
1.69950124688
42
50
43
0
44
0
50
0
51
0
71
0
72
100
73
1
74
3
75
0
76
1
77
0
78
0
281
0
65
1
110
0
120
0
130
0
111
1
121
0
131
0
112
0
122
1
132
0
79
0
146
0
348
10020
60
7
61
5
292
1
282
1
141
0
142
0
63
250
421
3358443
0
ENDTAB
0
TABLE
2
LTYPE
5
5
330
0
100
AcDbSymbolTable
70
4
0
LTYPE
5
14
330
5
100
AcDbSymbolTableRecord
100
AcDbLinetypeTableRecord
2
ByBlock
70
0
3

72
65
73
0
40
0
0
LTYPE
5
15
330
5
100
AcDbSymbolTableRecord
100
AcDbLinetypeTableRecord
2
ByLayer
70
0
3

72
65
73
0
40
0
0
LTYPE
5
16
330
5
100
AcDbSymbolTableRecord
100
AcDbLinetypeTableRecord
2
Continuous
70
0
3
Solid line
72
65
73
0
40
0
0
LTYPE
5
32
330
5
100
AcDbSymbolTableRecord
100
AcDbLinetypeTableRecord
2
DOT
70
0
3
Dot . . . . . . . . . . . . . . . . . . . . . .
72
65
73
2
40
6.35
49
0
74
0
49
-6.35
74
0
0
LTYPE
5
33
330
5
100
AcDbSymbolTableRecord
100
AcDbLinetypeTableRecord
2
DOT2
70
0
3
Dot (.5x) .....................................
72
65
73
2
40
3.175
49
0
74
0
49
-3.175
74
0
0
LTYPE
5
34
330
5
100
AcDbSymbolTableRecord
100
AcDbLinetypeTableRecord
2
DOTX2
70
0
3
Dot (2x) .  .  .  .  .  .  .  .  .  .  .  .  .
72
65
73
2
40
12.7
49
0
74
0
49
-12.7
74
0
0
LTYPE
5
35
330
5
100
AcDbSymbolTableRecord
100
AcDbLinetypeTableRecord
2
DASHED
70
0
3
Dot . . . . . . . . . . . . . . . . . . . . . .
72
65
73
2
40
19.05
49
12.7
74
0
49
-6.35
74
0
0
LTYPE
5
36
330
5
100
AcDbSymbolTableRecord
100
AcDbLinetypeTableRecord
2
DASHED2
70
0
3
Dashed (.5x) _ _ _ _ _ _ _ _ _ _ _ _ _ _ _ _ _
72
65
73
2
40
9.525
49
6.35
74
0
49
-3.175
74
0
0
LTYPE
5
37
330
5
100
AcDbSymbolTableRecord
100
AcDbLinetypeTableRecord
2
DASHEDX2
70
0
3
Dashed (2x) ____  ____  ____  ____  ____  ___
72
65
73
2
40
38.1
49
25.4
74
0
49
-12.7
74
0
0
LTYPE
5
38
330
5
100
AcDbSymbolTableRecord
100
AcDbLinetypeTableRecord
2
DASHDOT
70
0
3
Dash dot __ . __ . __ . __ . __ . __ . __ . __
72
65
73
4
40
25.4
49
12.7
74
0
49
-6.35
74
0
49
0
74
0
49
-6.35
74
0
0
LTYPE
5
39
330
5
100
AcDbSymbolTableRecord
100
AcDbLinetypeTableRecord
2
DASHDOT2
70
0
3
Dash dot (.5x) _._._._._._._._._._._._._._._.
72
65
73
4
40
12.7
49
6.35
74
0
49
-3.175
74
0
49
0
74
0
49
-3.175
74
0
0
LTYPE
5
3A
330
5
100
AcDbSymbolTableRecord
100
AcDbLinetypeTableRecord
2
DASHDOTX2
70
0
3
Dash dot (2x) ____  .  ____  .  ____  .  ___
72
65
73
4
40
50.8
49
25.4
74
0
49
-12.7
74
0
49
0
74
0
49
-12.7
74
0
0
LTYPE
5
3B
330
5
100
AcDbSymbolTableRecord
100
AcDbLinetypeTableRecord
2
DIVIDE
70
0
3
Divide ____ . . ____ . . ____ . . ____ . . ____
72
65
73
6
40
31.75
49
12.7
74
0
49
-6.35
74
0
49
0
74
0
49
-6.35
74
0
49
0
74
0
49
-6.35
74
0
0
LTYPE
5
3C
330
5
100
AcDbSymbolTableRecord
100
AcDbLinetypeTableRecord
2
DIVIDE2
70
0
3
Divide (.5x) __..__..__..__..__..__..__..__.._
72
65
73
6
40
15.875
49
6.35
74
0
49
-3.175
74
0
49
0
74
0
49
-3.175
74
0
49
0
74
0
49
-3.175
74
0
0
LTYPE
5
3D
330
5
100
AcDbSymbolTableRecord
100
AcDbLinetypeTableRecord
2
DIVIDEX2
70
0
3
Divide (2x) ________  .  .  ________  .  .  _
72
65
73
6
40
63.5
49
25.4
74
0
49
-12.7
74
0
49
0
74
0
49
-12.7
74
0
49
0
74
0
49
-12.7
74
0
0
LTYPE
5
3E
330
5
100
AcDbSymbolTableRecord
100
AcDbLinetypeTableRecord
2
BORDER
70
0
3
Border __ __ . __ __ . __ __ . __ __ . __ __ .
72
65
73
6
40
44.45
49
12.7
74
0
49
-6.35
74
0
49
12.7
74
0
49
-6.35
74
0
49
0
74
0
49
-6.35
74
0
0
LTYPE
5
3F
330
5
100
AcDbSymbolTableRecord
100
AcDbLinetypeTableRecord
2
BORDER2
70
0
3
Border (.5x) __.__.__.__.__.__.__.__.__.__.__.
72
65
73
6
40
22.225
49
6.35
74
0
49
-3.175
74
0
49
6.35
74
0
49
-3.175
74
0
49
0
74
0
49
-3.175
74
0
0
LTYPE
5
40
330
5
100
AcDbSymbolTableRecord
100
AcDbLinetypeTableRecord
2
BORDERX2
70
0
3
Border (2x) ____  ____  .  ____  ____  .  ___
72
65
73
6
40
88.9
49
25.4
74
0
49
-12.7
74
0
49
25.4
74
0
49
-12.7
74
0
49
0
74
0
49
-12.7
74
0
0
LTYPE
5
41
330
5
100
AcDbSymbolTableRecord
100
AcDbLinetypeTableRecord
2
CENTER
70
0
3
Center ____ _ ____ _ ____ _ ____ _ ____ _ ____
72
65
73
4
40
50.8
49
31.75
74
0
49
-6.35
74
0
49
6.35
74
0
49
-6.35
74
0
0
LTYPE
5
42
330
5
100
AcDbSymbolTableRecord
100
AcDbLinetypeTableRecord
2
CENTER2
70
0
3
Center (.5x) ___ _ ___ _ ___ _ ___ _ ___ _ ___
72
65
73
4
40
28.575
49
19.05
74
0
49
-3.175
74
0
49
3.175
74
0
49
-3.175
74
0
0
LTYPE
5
43
330
5
100
AcDbSymbolTableRecord
100
AcDbLinetypeTableRecord
2
CENTERX2
70
0
3
Center (2x) ________  __  ________  __  _____
72
65
73
4
40
101.6
49
63.5
74
0
49
-12.7
74
0
49
12.7
74
0
49
-12.7
74
0
0
ENDTAB
0
TABLE
2
LAYER
5
2
330
0
100
AcDbSymbolTable
70
1
0
LAYER
5
10
330
2
100
AcDbSymbolTableRecord
100
AcDbLayerTableRecord
2
0
70
0
62
7
6
CONTINUOUS
370
-3
390
F
0
LAYER
5
44
330
2
100
AcDbSymbolTableRecord
100
AcDbLayerTableRecord
2
Layer_1
70
0
62
7
6
CONTINUOUS
370
-3
390
F
0
ENDTAB
0
TABLE
2
STYLE
5
3
330
0
100
AcDbSymbolTable
70
3
0
STYLE
5
45
330
2
100
AcDbSymbolTableRecord
100
AcDbTextStyleTableRecord
2
OpenGostTypeA-Regular
70
0
40
0
41
1
50
0
71
0
42
1
3
OpenGostTypeA-Regular
4

0
STYLE
5
46
330
2
100
AcDbSymbolTableRecord
100
AcDbTextStyleTableRecord
2
opengosttypea-regular
70
0
40
0
41
1
50
0
71
0
42
1
3
opengosttypea-regular
4

0
STYLE
5
47
330
2
100
AcDbSymbolTableRecord
100
AcDbTextStyleTableRecord
2
Standard
70
0
40
0
41
1
50
0
71
0
42
1
3
txt
4

0
ENDTAB
0
TABLE
2
VIEW
5
6
330
0
100
AcDbSymbolTable
70
0
0
ENDTAB
0
TABLE
2
UCS
5
7
330
0
100
AcDbSymbolTable
70
0
0
ENDTAB
0
TABLE
2
APPID
5
9
330
0
100
AcDbSymbolTable
70
1
0
APPID
5
12
330
9
100
AcDbSymbolTableRecord
100
AcDbRegAppTableRecord
2
ACAD
70
0
0
ENDTAB
0
TABLE
2
DIMSTYLE
5
A
330
0
100
AcDbSymbolTable
70
1
100
AcDbDimStyleTable
71
1
0
DIMSTYLE
105
48
330
A
100
AcDbSymbolTableRecord
100
AcDbDimStyleTableRecord
2
Standard
70
0
40
1
41
2.5
42
0.625
43
0.38
44
1.25
45
0
46
0
47
0
48
0
140
2.5
141
0.09
142
0
143
25.4
144
1
145
0
146
1
147
0.625
148
0
71
0
72
0
73
0
74
1
75
0
76
0
77
0
78
0
79
0
170
0
171
2
172
0
173
0
174
0
175
0
176
0
177
0
178
0
179
0
271
4
272
4
273
2
274
2
275
0
276
0
277
2
278
46
279
0
280
0
281
0
282
0
283
1
284
0
285
0
286
0
288
0
289
3
340
Standard
341

371
-2
372
-2
0
ENDTAB
0
TABLE
2
BLOCK_RECORD
5
1
330
0
100
AcDbSymbolTable
70
2
0
BLOCK_RECORD
5
1F
330
1
100
AcDbSymbolTableRecord
100
AcDbBlockTableRecord
2
*Model_Space
70
0
280
1
281
0
0
BLOCK_RECORD
5
1E
330
1
100
AcDbSymbolTableRecord
100
AcDbBlockTableRecord
2
*Paper_Space
70
0
280
1
281
0
0
ENDTAB
0
ENDSEC
0
SECTION
2
BLOCKS
0
BLOCK
5
20
330
1F
100
AcDbEntity
8
0
100
AcDbBlockBegin
2
*Model_Space
70
0
10
0
20
0
30
0
3
*Model_Space
1

0
ENDBLK
5
21
330
1F
100
AcDbEntity
8
0
100
AcDbBlockEnd
0
BLOCK
5
1C
330
1B
100
AcDbEntity
8
0
100
AcDbBlockBegin
2
*Paper_Space
70
0
10
0
20
0
30
0
3
*Paper_Space
1

0
ENDBLK
5
1D
330
1F
100
AcDbEntity
8
0
100
AcDbBlockEnd
0
ENDSEC
0
SECTION
2
ENTITIES
0
SPLINE
5
49
100
AcDbEntity
8
Layer_1
6
ByLayer
62
1
370
-1
100
AcDbSpline
210
0
220
0
230
1
70
8
71
3
72
8
73
4
74
0
42
1e-07
43
1e-07
40
0
40
0
40
0
40
0
40
1
40
1
40
1
40
1
10
11.051691
20
39.24867
30
0
10
10.644916
20
39.24867
30
0
10
10.257634
20
39.168965
30
0
10
9.905163
20
39.019364
30
0
0
SPLINE
5
4A
100
AcDbEntity
8
Layer_1
6
ByLayer
62
1
370
-1
100
AcDbSpline
210
0
220
0
230
1
70
8
71
3
72
8
73
4
74
0
42
1e-07
43
1e-07
40
0
40
0
40
0
40
0
40
1
40
1
40
1
40
1
10
9.905163
20
39.019364
30
0
10
9.552692
20
38.869764
30
0
10
9.236876
20
38.65186
30
0
10
8.970302
20
38.384364
30
0
0
SPLINE
5
4B
100
AcDbEntity
8
Layer_1
6
ByLayer
62
1
370
-1
100
AcDbSpline
210
0
220
0
230
1
70
8
71
3
72
8
73
4
74
0
42
1e-07
43
1e-07
40
0
40
0
40
0
40
0
40
1
40
1
40
1
40
1
10
8.970302
20
38.384364
30
0
10
8.703728
20
38.116868
30
0
10
8.484386
20
37.794373
30
0
10
8.335302
20
37.440684
30
0
0
SPLINE
5
4C
100
AcDbEntity
8
Layer_1
6
ByLayer
62
1
370
-1
100
AcDbSpline
210
0
220
0
230
1
70
8
71
3
72
8
73
4
74
0
42
1e-07
43
1e-07
40
0
40
0
40
0
40
0
40
1
40
1
40
1
40
1
10
8.335302
20
37.440684
30
0
10
8.186218
20
37.086994
30
0
10
8.105997
20
36.702334
30
0
10
8.105997
20
36.294156
30
0
0
SPLINE
5
4D
100
AcDbEntity
8
Layer_1
6
ByLayer
62
1
370
-1
100
AcDbSpline
210
0
220
0
230
1
70
8
71
3
72
8
73
4
74
0
42
1e-07
43
1e-07
40
0
40
0
40
0
40
0
40
1
40
1
40
1
40
1
10
83.052708
20
39.249437
30
0
10
82.922398
20
39.249437
30
0
10
82.795206
20
39.226634
30
0
10
82.682292
20
39.178882
30
0
0
SPLINE
5
4E
100
AcDbEntity
8
Layer_1
6
ByLayer
62
1
370
-1
100
AcDbSpline
210
0
220
0
230
1
70
8
71
3
72
8
73
4
74
0
42
1e-07
43
1e-07
40
0
40
0
40
0
40
0
40
1
40
1
40
1
40
1
10
82.682292
20
39.178882
30
0
10
82.569377
20
39.131124
30
0
10
82.467828
20
39.061432
30
0
10
82.382431
20
38.976035
30
0
0
SPLINE
5
4F
100
AcDbEntity
8
Layer_1
6
ByLayer
62
1
370
-1
100
AcDbSpline
210
0
220
0
230
1
70
8
71
3
72
8
73
4
74
0
42
1e-07
43
1e-07
40
0
40
0
40
0
40
0
40
1
40
1
40
1
40
1
10
82.382431
20
38.976035
30
0
10
82.297033
20
38.890637
30
0
10
82.227341
20
38.789088
30
0
10
82.179583
20
38.676174
30
0
0
SPLINE
5
50
100
AcDbEntity
8
Layer_1
6
ByLayer
62
1
370
-1
100
AcDbSpline
210
0
220
0
230
1
70
8
71
3
72
8
73
4
74
0
42
1e-07
43
1e-07
40
0
40
0
40
0
40
0
40
1
40
1
40
1
40
1
10
82.179583
20
38.676174
30
0
10
82.131826
20
38.563259
30
0
10
82.109028
20
38.436067
30
0
10
82.109028
20
38.305757
30
0
0
SPLINE
5
51
100
AcDbEntity
8
Layer_1
6
ByLayer
62
1
370
-1
100
AcDbSpline
210
0
220
0
230
1
70
8
71
3
72
8
73
4
74
0
42
1e-07
43
1e-07
40
0
40
0
40
0
40
0
40
1
40
1
40
1
40
1
10
79.110417
20
38.25284
30
0
10
78.30082
20
38.25284
30
0
10
77.646389
20
37.581978
30
0
10
77.646389
20
36.762354
30
0
0
SPLINE
5
52
100
AcDbEntity
8
Layer_1
6
ByLayer
62
1
370
-1
100
AcDbSpline
210
0
220
0
230
1
70
8
71
3
72
8
73
4
74
0
42
1e-07
43
1e-07
40
0
40
0
40
0
40
0
40
1
40
1
40
1
40
1
10
77.646389
20
36.762354
30
0
10
77.646389
20
35.94273
30
0
10
78.30082
20
35.280687
30
0
10
79.110417
20
35.280687
30
0
0
LWPOLYLINE
5
53
100
AcDbEntity
8
Layer_1
6
ByLayer
62
1
370
-1
100
AcDbPolyline
90
4
70
0
43
0
10
82.109028
20
38.305757
10
82.109028
20
37.247424
10
79.110417
20
37.247424
10
79.110417
20
38.25284
0
LWPOLYLINE
5
54
100
AcDbEntity
8
Layer_1
6
ByLayer
62
1
370
-1
100
AcDbPolyline
90
6
70
0
43
0
10
97.331389
20
37.247424
10
107.332639
20
37.247424
10
107.332639
20
34.248812
10
97.331389
20
34.248812
10
97.331389
20
37.247424
10
97.331389
20
37.247424
0
LINE
5
55
100
AcDbEntity
8
Layer_1
6
ByLayer
62
1
370
-1
100
AcDbLine
10
11.051691
20
39.24867
11
11.051691
21
39.24867
0
SPLINE
5
56
100
AcDbEntity
8
Layer_1
6
ByLayer
62
1
370
-1
100
AcDbSpline
210
0
220
0
230
1
70
8
71
3
72
8
73
4
74
0
42
1e-07
43
1e-07
40
0
40
0
40
0
40
0
40
1
40
1
40
1
40
1
10
73.105937
20
36.294156
30
0
10
73.105937
20
36.702342
30
0
10
73.025718
20
37.086989
30
0
10
72.876631
20
37.440684
30
0
0
SPLINE
5
57
100
AcDbEntity
8
Layer_1
6
ByLayer
62
1
370
-1
100
AcDbSpline
210
0
220
0
230
1
70
8
71
3
72
8
73
4
74
0
42
1e-07
43
1e-07
40
0
40
0
40
0
40
0
40
1
40
1
40
1
40
1
10
72.876631
20
37.440684
30
0
10
72.727547
20
37.794379
30
0
10
72.508204
20
38.116866
30
0
10
72.241631
20
38.384364
30
0
0
SPLINE
5
58
100
AcDbEntity
8
Layer_1
6
ByLayer
62
1
370
-1
100
AcDbSpline
210
0
220
0
230
1
70
8
71
3
72
8
73
4
74
0
42
1e-07
43
1e-07
40
0
40
0
40
0
40
0
40
1
40
1
40
1
40
1
10
72.241631
20
38.384364
30
0
10
71.975061
20
38.651863
30
0
10
71.659243
20
38.869764
30
0
10
71.30677
20
39.019364
30
0
0
SPLINE
5
59
100
AcDbEntity
8
Layer_1
6
ByLayer
62
1
370
-1
100
AcDbSpline
210
0
220
0
230
1
70
8
71
3
72
8
73
4
74
0
42
1e-07
43
1e-07
40
0
40
0
40
0
40
0
40
1
40
1
40
1
40
1
10
71.30677
20
39.019364
30
0
10
70.9543
20
39.168965
30
0
10
70.567018
20
39.24867
30
0
10
70.160242
20
39.24867
30
0
0
LINE
5
5A
100
AcDbEntity
8
Layer_1
6
ByLayer
62
1
370
-1
100
AcDbLine
10
70.160242
20
39.24867
11
11.051691
21
39.24867
0
LINE
5
5B
100
AcDbEntity
8
Layer_1
6
ByLayer
62
1
370
-1
100
AcDbLine
10
83.052708
20
39.249452
11
83.052708
21
39.249437
0
LINE
5
5C
100
AcDbEntity
8
Layer_1
6
ByLayer
62
1
370
-1
100
AcDbLine
10
134.080189146
20
39.249452
11
83.052708
21
39.249452
0
SPLINE
5
5D
100
AcDbEntity
8
Layer_1
6
ByLayer
62
1
370
-1
100
AcDbSpline
210
0
220
0
230
1
70
8
71
3
72
8
73
4
74
0
42
1e-07
43
1e-07
40
0
40
0
40
0
40
0
40
1
40
1
40
1
40
1
10
144.107675
20
35.280702
30
0
10
144.917272
20
35.280702
30
0
10
145.571703
20
35.951564
30
0
10
145.571703
20
36.771188
30
0
0
SPLINE
5
5E
100
AcDbEntity
8
Layer_1
6
ByLayer
62
1
370
-1
100
AcDbSpline
210
0
220
0
230
1
70
8
71
3
72
8
73
4
74
0
42
1e-07
43
1e-07
40
0
40
0
40
0
40
0
40
1
40
1
40
1
40
1
10
145.571703
20
36.771188
30
0
10
145.571703
20
37.590812
30
0
10
144.917272
20
38.252854
30
0
10
144.107675
20
38.252854
30
0
0
SPLINE
5
5F
100
AcDbEntity
8
Layer_1
6
ByLayer
62
1
370
-1
100
AcDbSpline
210
0
220
0
230
1
70
8
71
3
72
8
73
4
74
0
42
1e-07
43
1e-07
40
0
40
0
40
0
40
0
40
1
40
1
40
1
40
1
10
141.109064
20
38.305771
30
0
10
141.109064
20
38.436082
30
0
10
141.077447
20
38.563273
30
0
10
141.029689
20
38.676188
30
0
0
SPLINE
5
60
100
AcDbEntity
8
Layer_1
6
ByLayer
62
1
370
-1
100
AcDbSpline
210
0
220
0
230
1
70
8
71
3
72
8
73
4
74
0
42
1e-07
43
1e-07
40
0
40
0
40
0
40
0
40
1
40
1
40
1
40
1
10
141.029689
20
38.676188
30
0
10
140.981931
20
38.789102
30
0
10
140.912239
20
38.890651
30
0
10
140.826842
20
38.976049
30
0
0
SPLINE
5
61
100
AcDbEntity
8
Layer_1
6
ByLayer
62
1
370
-1
100
AcDbSpline
210
0
220
0
230
1
70
8
71
3
72
8
73
4
74
0
42
1e-07
43
1e-07
40
0
40
0
40
0
40
0
40
1
40
1
40
1
40
1
10
140.826842
20
38.976049
30
0
10
140.741444
20
39.061446
30
0
10
140.639895
20
39.131138
30
0
10
140.526981
20
39.178896
30
0
0
SPLINE
5
62
100
AcDbEntity
8
Layer_1
6
ByLayer
62
1
370
-1
100
AcDbSpline
210
0
220
0
230
1
70
8
71
3
72
8
73
4
74
0
42
1e-07
43
1e-07
40
0
40
0
40
0
40
0
40
1
40
1
40
1
40
1
10
140.526981
20
39.178896
30
0
10
140.414066
20
39.226654
30
0
10
140.295694
20
39.249452
30
0
10
140.165383
20
39.249452
30
0
0
LWPOLYLINE
5
63
100
AcDbEntity
8
Layer_1
6
ByLayer
62
1
370
-1
100
AcDbPolyline
90
4
70
0
43
0
10
144.107675
20
38.252854
10
144.107675
20
37.256257
10
141.109064
20
37.256257
10
141.109064
20
38.305771
0
LWPOLYLINE
5
64
100
AcDbEntity
8
Layer_1
6
ByLayer
62
1
370
-1
100
AcDbPolyline
90
6
70
0
43
0
10
115.876633
20
37.247424
10
125.877883
20
37.247424
10
125.877883
20
34.248812
10
115.876633
20
34.248812
10
115.876633
20
37.247424
10
115.876633
20
37.247424
0
LINE
5
65
100
AcDbEntity
8
Layer_1
6
ByLayer
62
1
370
-1
100
AcDbLine
10
134.080189146
20
39.249452
11
140.165383
21
39.249452
0
LINE
5
66
100
AcDbEntity
8
Layer_1
6
ByLayer
62
1
370
-1
100
AcDbLine
10
13.107532
20
37.244816
11
10.107532
21
37.244816
0
LINE
5
67
100
AcDbEntity
8
Layer_1
6
ByLayer
62
1
370
-1
100
AcDbLine
10
71.10751
20
37.24592
11
68.10751
21
37.24592
0
SPLINE
5
68
100
AcDbEntity
8
Layer_1
6
ByLayer
62
1
370
-1
100
AcDbSpline
210
0
220
0
230
1
70
8
71
3
72
8
73
4
74
0
42
1e-07
43
1e-07
40
0
40
0
40
0
40
0
40
1
40
1
40
1
40
1
10
79.110417
20
30.189854
30
0
10
79.110417
20
30.059544
30
0
10
79.13322
20
29.941171
30
0
10
79.180972
20
29.828257
30
0
0
SPLINE
5
69
100
AcDbEntity
8
Layer_1
6
ByLayer
62
1
370
-1
100
AcDbSpline
210
0
220
0
230
1
70
8
71
3
72
8
73
4
74
0
42
1e-07
43
1e-07
40
0
40
0
40
0
40
0
40
1
40
1
40
1
40
1
10
79.180972
20
29.828257
30
0
10
79.22873
20
29.715343
30
0
10
79.298422
20
29.613793
30
0
10
79.383819
20
29.528396
30
0
0
SPLINE
5
6A
100
AcDbEntity
8
Layer_1
6
ByLayer
62
1
370
-1
100
AcDbSpline
210
0
220
0
230
1
70
8
71
3
72
8
73
4
74
0
42
1e-07
43
1e-07
40
0
40
0
40
0
40
0
40
1
40
1
40
1
40
1
10
79.383819
20
29.528396
30
0
10
79.469217
20
29.442998
30
0
10
79.570766
20
29.373306
30
0
10
79.683681
20
29.325549
30
0
0
SPLINE
5
6B
100
AcDbEntity
8
Layer_1
6
ByLayer
62
1
370
-1
100
AcDbSpline
210
0
220
0
230
1
70
8
71
3
72
8
73
4
74
0
42
1e-07
43
1e-07
40
0
40
0
40
0
40
0
40
1
40
1
40
1
40
1
10
79.683681
20
29.325549
30
0
10
79.796595
20
29.277791
30
0
10
79.923787
20
29.246174
30
0
10
80.054097
20
29.246174
30
0
0
SPLINE
5
6C
100
AcDbEntity
8
Layer_1
6
ByLayer
62
1
370
-1
100
AcDbSpline
210
0
220
0
230
1
70
8
71
3
72
8
73
4
74
0
42
1e-07
43
1e-07
40
0
40
0
40
0
40
0
40
1
40
1
40
1
40
1
10
143.163994
20
29.255007
30
0
10
143.294305
20
29.255007
30
0
10
143.412677
20
29.277811
30
0
10
143.525592
20
29.325563
30
0
0
SPLINE
5
6D
100
AcDbEntity
8
Layer_1
6
ByLayer
62
1
370
-1
100
AcDbSpline
210
0
220
0
230
1
70
8
71
3
72
8
73
4
74
0
42
1e-07
43
1e-07
40
0
40
0
40
0
40
0
40
1
40
1
40
1
40
1
10
143.525592
20
29.325563
30
0
10
143.638506
20
29.37332
30
0
10
143.740055
20
29.443012
30
0
10
143.825453
20
29.52841
30
0
0
SPLINE
5
6E
100
AcDbEntity
8
Layer_1
6
ByLayer
62
1
370
-1
100
AcDbSpline
210
0
220
0
230
1
70
8
71
3
72
8
73
4
74
0
42
1e-07
43
1e-07
40
0
40
0
40
0
40
0
40
1
40
1
40
1
40
1
10
143.825453
20
29.52841
30
0
10
143.91085
20
29.613808
30
0
10
143.980542
20
29.715357
30
0
10
144.0283
20
29.828271
30
0
0
SPLINE
5
6F
100
AcDbEntity
8
Layer_1
6
ByLayer
62
1
370
-1
100
AcDbSpline
210
0
220
0
230
1
70
8
71
3
72
8
73
4
74
0
42
1e-07
43
1e-07
40
0
40
0
40
0
40
0
40
1
40
1
40
1
40
1
10
144.0283
20
29.828271
30
0
10
144.076058
20
29.941185
30
0
10
144.107675
20
30.068377
30
0
10
144.107675
20
30.198688
30
0
0
LINE
5
70
100
AcDbEntity
8
Layer_1
6
ByLayer
62
1
370
-1
100
AcDbLine
10
10.107532
20
29.244816
11
13.107532
21
29.244816
0
LINE
5
71
100
AcDbEntity
8
Layer_1
6
ByLayer
62
1
370
-1
100
AcDbLine
10
80.054097
20
29.246174
11
82.109028
21
29.246174
0
LINE
5
72
100
AcDbEntity
8
Layer_1
6
ByLayer
62
1
370
-1
100
AcDbLine
10
68.10751
20
29.24592
11
71.10751
21
29.24592
0
LINE
5
73
100
AcDbEntity
8
Layer_1
6
ByLayer
62
1
370
-1
100
AcDbLine
10
141.109064
20
29.255007
11
143.163994
21
29.255007
0
SPLINE
5
74
100
AcDbEntity
8
Layer_1
6
ByLayer
62
1
370
-1
100
AcDbSpline
210
0
220
0
230
1
70
8
71
3
72
8
73
4
74
0
42
1e-07
43
1e-07
40
0
40
0
40
0
40
0
40
1
40
1
40
1
40
1
10
8.105997
20
11.747398
30
0
10
8.105997
20
10.107235
30
0
10
9.446597
20
8.775231
30
0
10
11.095788
20
8.775231
30
0
0
SPLINE
5
75
100
AcDbEntity
8
Layer_1
6
ByLayer
62
1
370
-1
100
AcDbSpline
210
0
220
0
230
1
70
8
71
3
72
8
73
4
74
0
42
1e-07
43
1e-07
40
0
40
0
40
0
40
0
40
1
40
1
40
1
40
1
10
11.095788
20
8.775231
30
0
10
12.076849
20
8.775231
30
0
10
12.915496
20
9.268414
30
0
10
13.485859
20
9.974675
30
0
0
SPLINE
5
76
100
AcDbEntity
8
Layer_1
6
ByLayer
62
1
370
-1
100
AcDbSpline
210
0
220
0
230
1
70
8
71
3
72
8
73
4
74
0
42
1e-07
43
1e-07
40
0
40
0
40
0
40
0
40
1
40
1
40
1
40
1
10
13.485859
20
9.974675
30
0
10
14.268179
20
10.943403
30
0
10
15.376943
20
11.747398
30
0
10
19.218498
20
11.747398
30
0
0
SPLINE
5
77
100
AcDbEntity
8
Layer_1
6
ByLayer
62
1
370
-1
100
AcDbSpline
210
0
220
0
230
1
70
8
71
3
72
8
73
4
74
0
42
1e-07
43
1e-07
40
0
40
0
40
0
40
0
40
1
40
1
40
1
40
1
10
79.110417
20
16.757601
30
0
10
79.110417
20
16.757601
30
0
10
81.000236
20
16.789577
30
0
10
82.585278
20
16.581212
30
0
0
SPLINE
5
78
100
AcDbEntity
8
Layer_1
6
ByLayer
62
1
370
-1
100
AcDbSpline
210
0
220
0
230
1
70
8
71
3
72
8
73
4
74
0
42
1e-07
43
1e-07
40
0
40
0
40
0
40
0
40
1
40
1
40
1
40
1
10
82.585278
20
16.581212
30
0
10
84.17032
20
16.372848
30
0
10
87.680583
20
15.270022
30
0
10
89.446806
20
15.03781
30
0
0
SPLINE
5
79
100
AcDbEntity
8
Layer_1
6
ByLayer
62
1
370
-1
100
AcDbSpline
210
0
220
0
230
1
70
8
71
3
72
8
73
4
74
0
42
1e-07
43
1e-07
40
0
40
0
40
0
40
0
40
1
40
1
40
1
40
1
10
89.446806
20
15.03781
30
0
10
91.213028
20
14.805682
30
0
10
94.077014
20
14.790865
30
0
10
94.077014
20
14.790865
30
0
0
SPLINE
5
7A
100
AcDbEntity
8
Layer_1
6
ByLayer
62
1
370
-1
100
AcDbSpline
210
0
220
0
230
1
70
8
71
3
72
8
73
4
74
0
42
1e-07
43
1e-07
40
0
40
0
40
0
40
0
40
1
40
1
40
1
40
1
10
94.077014
20
14.790865
30
0
10
94.352209
20
14.790865
30
0
10
94.570903
20
14.555901
30
0
10
94.570903
20
14.270518
30
0
0
SPLINE
5
7B
100
AcDbEntity
8
Layer_1
6
ByLayer
62
1
370
-1
100
AcDbSpline
210
0
220
0
230
1
70
8
71
3
72
8
73
4
74
0
42
1e-07
43
1e-07
40
0
40
0
40
0
40
0
40
1
40
1
40
1
40
1
10
94.570903
20
14.270518
30
0
10
94.570903
20
13.985135
30
0
10
94.352209
20
13.75899
30
0
10
94.077014
20
13.75899
30
0
0
SPLINE
5
7C
100
AcDbEntity
8
Layer_1
6
ByLayer
62
1
370
-1
100
AcDbSpline
210
0
220
0
230
1
70
8
71
3
72
8
73
4
74
0
42
1e-07
43
1e-07
40
0
40
0
40
0
40
0
40
1
40
1
40
1
40
1
10
94.077014
20
13.75899
30
0
10
94.077014
20
13.75899
30
0
10
91.184154
20
13.772876
30
0
10
89.411528
20
14.005935
30
0
0
SPLINE
5
7D
100
AcDbEntity
8
Layer_1
6
ByLayer
62
1
370
-1
100
AcDbSpline
210
0
220
0
230
1
70
8
71
3
72
8
73
4
74
0
42
1e-07
43
1e-07
40
0
40
0
40
0
40
0
40
1
40
1
40
1
40
1
10
89.411528
20
14.005935
30
0
10
87.638898
20
14.238966
30
0
10
84.129395
20
15.341707
30
0
10
82.55
20
15.549337
30
0
0
SPLINE
5
7E
100
AcDbEntity
8
Layer_1
6
ByLayer
62
1
370
-1
100
AcDbSpline
210
0
220
0
230
1
70
8
71
3
72
8
73
4
74
0
42
1e-07
43
1e-07
40
0
40
0
40
0
40
0
40
1
40
1
40
1
40
1
10
82.55
20
15.549337
30
0
10
80.970603
20
15.756968
30
0
10
79.110417
20
15.725726
30
0
10
79.110417
20
15.725726
30
0
0
SPLINE
5
7F
100
AcDbEntity
8
Layer_1
6
ByLayer
62
1
370
-1
100
AcDbSpline
210
0
220
0
230
1
70
8
71
3
72
8
73
4
74
0
42
1e-07
43
1e-07
40
0
40
0
40
0
40
0
40
1
40
1
40
1
40
1
10
79.110417
20
15.725726
30
0
10
78.30082
20
15.725726
30
0
10
77.646389
20
15.054864
30
0
10
77.646389
20
14.23524
30
0
0
SPLINE
5
80
100
AcDbEntity
8
Layer_1
6
ByLayer
62
1
370
-1
100
AcDbSpline
210
0
220
0
230
1
70
8
71
3
72
8
73
4
74
0
42
1e-07
43
1e-07
40
0
40
0
40
0
40
0
40
1
40
1
40
1
40
1
10
77.646389
20
14.23524
30
0
10
77.646389
20
13.415616
30
0
10
78.30082
20
12.753574
30
0
10
79.110417
20
12.753574
30
0
0
SPLINE
5
81
100
AcDbEntity
8
Layer_1
6
ByLayer
62
1
370
-1
100
AcDbSpline
210
0
220
0
230
1
70
8
71
3
72
8
73
4
74
0
42
1e-07
43
1e-07
40
0
40
0
40
0
40
0
40
1
40
1
40
1
40
1
10
82.109028
20
12.691837
30
0
10
82.109028
20
12.561527
30
0
10
82.131831
20
12.434332
30
0
10
82.179583
20
12.321421
30
0
0
SPLINE
5
82
100
AcDbEntity
8
Layer_1
6
ByLayer
62
1
370
-1
100
AcDbSpline
210
0
220
0
230
1
70
8
71
3
72
8
73
4
74
0
42
1e-07
43
1e-07
40
0
40
0
40
0
40
0
40
1
40
1
40
1
40
1
10
82.179583
20
12.321421
30
0
10
82.227341
20
12.208509
30
0
10
82.297033
20
12.106955
30
0
10
82.382431
20
12.02156
30
0
0
SPLINE
5
83
100
AcDbEntity
8
Layer_1
6
ByLayer
62
1
370
-1
100
AcDbSpline
210
0
220
0
230
1
70
8
71
3
72
8
73
4
74
0
42
1e-07
43
1e-07
40
0
40
0
40
0
40
0
40
1
40
1
40
1
40
1
10
82.382431
20
12.02156
30
0
10
82.467828
20
11.936165
30
0
10
82.569377
20
11.87529
30
0
10
82.682292
20
11.827532
30
0
0
SPLINE
5
84
100
AcDbEntity
8
Layer_1
6
ByLayer
62
1
370
-1
100
AcDbSpline
210
0
220
0
230
1
70
8
71
3
72
8
73
4
74
0
42
1e-07
43
1e-07
40
0
40
0
40
0
40
0
40
1
40
1
40
1
40
1
10
82.682292
20
11.827532
30
0
10
82.795206
20
11.779774
30
0
10
82.922398
20
11.748157
30
0
10
83.052708
20
11.748157
30
0
0
SPLINE
5
85
100
AcDbEntity
8
Layer_1
6
ByLayer
62
1
370
-1
100
AcDbSpline
210
0
220
0
230
1
70
8
71
3
72
8
73
4
74
0
42
1e-07
43
1e-07
40
0
40
0
40
0
40
0
40
1
40
1
40
1
40
1
10
83.052708
20
11.748157
30
0
10
83.416419
20
11.748157
30
0
10
83.694414
20
12.18031
30
0
10
84.058125
20
12.18031
30
0
0
SPLINE
5
86
100
AcDbEntity
8
Layer_1
6
ByLayer
62
1
370
-1
100
AcDbSpline
210
0
220
0
230
1
70
8
71
3
72
8
73
4
74
0
42
1e-07
43
1e-07
40
0
40
0
40
0
40
0
40
1
40
1
40
1
40
1
10
84.058125
20
12.18031
30
0
10
84.421836
20
12.18031
30
0
10
84.691011
20
11.748157
30
0
10
85.054722
20
11.748157
30
0
0
SPLINE
5
87
100
AcDbEntity
8
Layer_1
6
ByLayer
62
1
370
-1
100
AcDbSpline
210
0
220
0
230
1
70
8
71
3
72
8
73
4
74
0
42
1e-07
43
1e-07
40
0
40
0
40
0
40
0
40
1
40
1
40
1
40
1
10
85.054722
20
11.748157
30
0
10
85.418433
20
11.748157
30
0
10
85.696428
20
12.18031
30
0
10
86.060139
20
12.18031
30
0
0
SPLINE
5
88
100
AcDbEntity
8
Layer_1
6
ByLayer
62
1
370
-1
100
AcDbSpline
210
0
220
0
230
1
70
8
71
3
72
8
73
4
74
0
42
1e-07
43
1e-07
40
0
40
0
40
0
40
0
40
1
40
1
40
1
40
1
10
86.060139
20
12.18031
30
0
10
86.42385
20
12.18031
30
0
10
86.693025
20
11.748157
30
0
10
87.056736
20
11.748157
30
0
0
SPLINE
5
89
100
AcDbEntity
8
Layer_1
6
ByLayer
62
1
370
-1
100
AcDbSpline
210
0
220
0
230
1
70
8
71
3
72
8
73
4
74
0
42
1e-07
43
1e-07
40
0
40
0
40
0
40
0
40
1
40
1
40
1
40
1
10
87.056736
20
11.748157
30
0
10
87.420447
20
11.748157
30
0
10
87.698442
20
12.18031
30
0
10
88.062153
20
12.18031
30
0
0
SPLINE
5
8A
100
AcDbEntity
8
Layer_1
6
ByLayer
62
1
370
-1
100
AcDbSpline
210
0
220
0
230
1
70
8
71
3
72
8
73
4
74
0
42
1e-07
43
1e-07
40
0
40
0
40
0
40
0
40
1
40
1
40
1
40
1
10
88.062153
20
12.18031
30
0
10
88.425861
20
12.18031
30
0
10
88.703856
20
11.748157
30
0
10
89.067569
20
11.748157
30
0
0
SPLINE
5
8B
100
AcDbEntity
8
Layer_1
6
ByLayer
62
1
370
-1
100
AcDbSpline
210
0
220
0
230
1
70
8
71
3
72
8
73
4
74
0
42
1e-07
43
1e-07
40
0
40
0
40
0
40
0
40
1
40
1
40
1
40
1
10
89.067569
20
11.748157
30
0
10
89.431281
20
11.748157
30
0
10
89.700456
20
12.18031
30
0
10
90.064167
20
12.18031
30
0
0
SPLINE
5
8C
100
AcDbEntity
8
Layer_1
6
ByLayer
62
1
370
-1
100
AcDbSpline
210
0
220
0
230
1
70
8
71
3
72
8
73
4
74
0
42
1e-07
43
1e-07
40
0
40
0
40
0
40
0
40
1
40
1
40
1
40
1
10
90.064167
20
12.18031
30
0
10
90.427878
20
12.18031
30
0
10
90.705872
20
11.748157
30
0
10
91.069583
20
11.748157
30
0
0
LWPOLYLINE
5
8D
100
AcDbEntity
8
Layer_1
6
ByLayer
62
1
370
-1
100
AcDbPolyline
90
4
70
0
43
0
10
79.110417
20
12.753574
10
79.110417
20
13.75899
10
82.109028
20
13.75899
10
82.109028
20
12.691837
0
SPLINE
5
8E
100
AcDbEntity
8
Layer_1
6
ByLayer
62
1
370
-1
100
AcDbSpline
210
0
220
0
230
1
70
8
71
3
72
8
73
4
74
0
42
1e-07
43
1e-07
40
0
40
0
40
0
40
0
40
1
40
1
40
1
40
1
10
62.002256
20
11.747398
30
0
10
65.843812
20
11.747398
30
0
10
66.943753
20
10.943403
30
0
10
67.726076
20
9.974675
30
0
0
SPLINE
5
8F
100
AcDbEntity
8
Layer_1
6
ByLayer
62
1
370
-1
100
AcDbSpline
210
0
220
0
230
1
70
8
71
3
72
8
73
4
74
0
42
1e-07
43
1e-07
40
0
40
0
40
0
40
0
40
1
40
1
40
1
40
1
10
67.726076
20
9.974675
30
0
10
68.296436
20
9.268386
30
0
10
69.143904
20
8.784064
30
0
10
70.124965
20
8.784064
30
0
0
SPLINE
5
90
100
AcDbEntity
8
Layer_1
6
ByLayer
62
1
370
-1
100
AcDbSpline
210
0
220
0
230
1
70
8
71
3
72
8
73
4
74
0
42
1e-07
43
1e-07
40
0
40
0
40
0
40
0
40
1
40
1
40
1
40
1
10
70.124965
20
8.784064
30
0
10
71.774156
20
8.784064
30
0
10
73.105937
20
10.107263
30
0
10
73.105937
20
11.747398
30
0
0
LINE
5
91
100
AcDbEntity
8
Layer_1
6
ByLayer
62
1
370
-1
100
AcDbLine
10
19.218498
20
11.747398
11
62.002256
21
11.747398
0
SPLINE
5
92
100
AcDbEntity
8
Layer_1
6
ByLayer
62
1
370
-1
100
AcDbSpline
210
0
220
0
230
1
70
8
71
3
72
8
73
4
74
0
42
1e-07
43
1e-07
40
0
40
0
40
0
40
0
40
1
40
1
40
1
40
1
10
132.148508
20
11.748157
30
0
10
132.512219
20
11.748157
30
0
10
132.781394
20
12.18031
30
0
10
133.145106
20
12.18031
30
0
0
SPLINE
5
93
100
AcDbEntity
8
Layer_1
6
ByLayer
62
1
370
-1
100
AcDbSpline
210
0
220
0
230
1
70
8
71
3
72
8
73
4
74
0
42
1e-07
43
1e-07
40
0
40
0
40
0
40
0
40
1
40
1
40
1
40
1
10
133.145106
20
12.18031
30
0
10
133.508817
20
12.18031
30
0
10
133.786811
20
11.748157
30
0
10
134.150522
20
11.748157
30
0
0
SPLINE
5
94
100
AcDbEntity
8
Layer_1
6
ByLayer
62
1
370
-1
100
AcDbSpline
210
0
220
0
230
1
70
8
71
3
72
8
73
4
74
0
42
1e-07
43
1e-07
40
0
40
0
40
0
40
0
40
1
40
1
40
1
40
1
10
134.150522
20
11.748157
30
0
10
134.514233
20
11.748157
30
0
10
134.792228
20
12.18031
30
0
10
135.155939
20
12.18031
30
0
0
SPLINE
5
95
100
AcDbEntity
8
Layer_1
6
ByLayer
62
1
370
-1
100
AcDbSpline
210
0
220
0
230
1
70
8
71
3
72
8
73
4
74
0
42
1e-07
43
1e-07
40
0
40
0
40
0
40
0
40
1
40
1
40
1
40
1
10
135.155939
20
12.18031
30
0
10
135.51965
20
12.18031
30
0
10
135.788825
20
11.748157
30
0
10
136.152536
20
11.748157
30
0
0
SPLINE
5
96
100
AcDbEntity
8
Layer_1
6
ByLayer
62
1
370
-1
100
AcDbSpline
210
0
220
0
230
1
70
8
71
3
72
8
73
4
74
0
42
1e-07
43
1e-07
40
0
40
0
40
0
40
0
40
1
40
1
40
1
40
1
10
136.152536
20
11.748157
30
0
10
136.516247
20
11.748157
30
0
10
136.794242
20
12.18031
30
0
10
137.157953
20
12.18031
30
0
0
SPLINE
5
97
100
AcDbEntity
8
Layer_1
6
ByLayer
62
1
370
-1
100
AcDbSpline
210
0
220
0
230
1
70
8
71
3
72
8
73
4
74
0
42
1e-07
43
1e-07
40
0
40
0
40
0
40
0
40
1
40
1
40
1
40
1
10
137.157953
20
12.18031
30
0
10
137.521664
20
12.18031
30
0
10
137.790839
20
11.748157
30
0
10
138.15455
20
11.748157
30
0
0
SPLINE
5
98
100
AcDbEntity
8
Layer_1
6
ByLayer
62
1
370
-1
100
AcDbSpline
210
0
220
0
230
1
70
8
71
3
72
8
73
4
74
0
42
1e-07
43
1e-07
40
0
40
0
40
0
40
0
40
1
40
1
40
1
40
1
10
138.15455
20
11.748157
30
0
10
138.518261
20
11.748157
30
0
10
138.796256
20
12.18031
30
0
10
139.159967
20
12.18031
30
0
0
SPLINE
5
99
100
AcDbEntity
8
Layer_1
6
ByLayer
62
1
370
-1
100
AcDbSpline
210
0
220
0
230
1
70
8
71
3
72
8
73
4
74
0
42
1e-07
43
1e-07
40
0
40
0
40
0
40
0
40
1
40
1
40
1
40
1
10
139.159967
20
12.18031
30
0
10
139.523678
20
12.18031
30
0
10
139.801672
20
11.748157
30
0
10
140.165383
20
11.748157
30
0
0
SPLINE
5
9A
100
AcDbEntity
8
Layer_1
6
ByLayer
62
1
370
-1
100
AcDbSpline
210
0
220
0
230
1
70
8
71
3
72
8
73
4
74
0
42
1e-07
43
1e-07
40
0
40
0
40
0
40
0
40
1
40
1
40
1
40
1
10
140.165383
20
11.748157
30
0
10
140.295694
20
11.748157
30
0
10
140.414066
20
11.779774
30
0
10
140.526981
20
11.827532
30
0
0
SPLINE
5
9B
100
AcDbEntity
8
Layer_1
6
ByLayer
62
1
370
-1
100
AcDbSpline
210
0
220
0
230
1
70
8
71
3
72
8
73
4
74
0
42
1e-07
43
1e-07
40
0
40
0
40
0
40
0
40
1
40
1
40
1
40
1
10
140.526981
20
11.827532
30
0
10
140.639895
20
11.87529
30
0
10
140.741444
20
11.936165
30
0
10
140.826842
20
12.02156
30
0
0
SPLINE
5
9C
100
AcDbEntity
8
Layer_1
6
ByLayer
62
1
370
-1
100
AcDbSpline
210
0
220
0
230
1
70
8
71
3
72
8
73
4
74
0
42
1e-07
43
1e-07
40
0
40
0
40
0
40
0
40
1
40
1
40
1
40
1
10
140.826842
20
12.02156
30
0
10
140.912239
20
12.106955
30
0
10
140.981931
20
12.208509
30
0
10
141.029689
20
12.321421
30
0
0
SPLINE
5
9D
100
AcDbEntity
8
Layer_1
6
ByLayer
62
1
370
-1
100
AcDbSpline
210
0
220
0
230
1
70
8
71
3
72
8
73
4
74
0
42
1e-07
43
1e-07
40
0
40
0
40
0
40
0
40
1
40
1
40
1
40
1
10
141.029689
20
12.321421
30
0
10
141.077447
20
12.434332
30
0
10
141.109064
20
12.561527
30
0
10
141.109064
20
12.691837
30
0
0
SPLINE
5
9E
100
AcDbEntity
8
Layer_1
6
ByLayer
62
1
370
-1
100
AcDbSpline
210
0
220
0
230
1
70
8
71
3
72
8
73
4
74
0
42
1e-07
43
1e-07
40
0
40
0
40
0
40
0
40
1
40
1
40
1
40
1
10
144.107675
20
12.762393
30
0
10
144.917272
20
12.762393
30
0
10
145.571703
20
13.424436
30
0
10
145.571703
20
14.24406
30
0
0
SPLINE
5
9F
100
AcDbEntity
8
Layer_1
6
ByLayer
62
1
370
-1
100
AcDbSpline
210
0
220
0
230
1
70
8
71
3
72
8
73
4
74
0
42
1e-07
43
1e-07
40
0
40
0
40
0
40
0
40
1
40
1
40
1
40
1
10
145.571703
20
14.24406
30
0
10
145.571703
20
15.063684
30
0
10
144.917272
20
15.725726
30
0
10
144.107675
20
15.725726
30
0
0
SPLINE
5
A0
100
AcDbEntity
8
Layer_1
6
ByLayer
62
1
370
-1
100
AcDbSpline
210
0
220
0
230
1
70
8
71
3
72
8
73
4
74
0
42
1e-07
43
1e-07
40
0
40
0
40
0
40
0
40
1
40
1
40
1
40
1
10
144.107675
20
15.725726
30
0
10
144.107675
20
15.725726
30
0
10
142.247489
20
15.765788
30
0
10
140.668092
20
15.558157
30
0
0
SPLINE
5
A1
100
AcDbEntity
8
Layer_1
6
ByLayer
62
1
370
-1
100
AcDbSpline
210
0
220
0
230
1
70
8
71
3
72
8
73
4
74
0
42
1e-07
43
1e-07
40
0
40
0
40
0
40
0
40
1
40
1
40
1
40
1
10
140.668092
20
15.558157
30
0
10
139.088697
20
15.350526
30
0
10
135.570374
20
14.247785
30
0
10
133.797744
20
14.014754
30
0
0
SPLINE
5
A2
100
AcDbEntity
8
Layer_1
6
ByLayer
62
1
370
-1
100
AcDbSpline
210
0
220
0
230
1
70
8
71
3
72
8
73
4
74
0
42
1e-07
43
1e-07
40
0
40
0
40
0
40
0
40
1
40
1
40
1
40
1
10
133.797744
20
14.014754
30
0
10
132.025118
20
13.781695
30
0
10
129.141078
20
13.75899
30
0
10
129.141078
20
13.75899
30
0
0
SPLINE
5
A3
100
AcDbEntity
8
Layer_1
6
ByLayer
62
1
370
-1
100
AcDbSpline
210
0
220
0
230
1
70
8
71
3
72
8
73
4
74
0
42
1e-07
43
1e-07
40
0
40
0
40
0
40
0
40
1
40
1
40
1
40
1
10
129.141078
20
13.75899
30
0
10
128.865883
20
13.75899
30
0
10
128.638369
20
13.993954
30
0
10
128.638369
20
14.279337
30
0
0
SPLINE
5
A4
100
AcDbEntity
8
Layer_1
6
ByLayer
62
1
370
-1
100
AcDbSpline
210
0
220
0
230
1
70
8
71
3
72
8
73
4
74
0
42
1e-07
43
1e-07
40
0
40
0
40
0
40
0
40
1
40
1
40
1
40
1
10
128.638369
20
14.279337
30
0
10
128.638369
20
14.564721
30
0
10
128.865883
20
14.790865
30
0
10
129.141078
20
14.790865
30
0
0
SPLINE
5
A5
100
AcDbEntity
8
Layer_1
6
ByLayer
62
1
370
-1
100
AcDbSpline
210
0
220
0
230
1
70
8
71
3
72
8
73
4
74
0
42
1e-07
43
1e-07
40
0
40
0
40
0
40
0
40
1
40
1
40
1
40
1
10
129.141078
20
14.790865
30
0
10
129.141078
20
14.790865
30
0
10
131.996244
20
14.814515
30
0
10
133.762467
20
15.046629
30
0
0
SPLINE
5
A6
100
AcDbEntity
8
Layer_1
6
ByLayer
62
1
370
-1
100
AcDbSpline
210
0
220
0
230
1
70
8
71
3
72
8
73
4
74
0
42
1e-07
43
1e-07
40
0
40
0
40
0
40
0
40
1
40
1
40
1
40
1
10
133.762467
20
15.046629
30
0
10
135.52869
20
15.278842
30
0
10
139.047772
20
16.372848
30
0
10
140.632814
20
16.581212
30
0
0
SPLINE
5
A7
100
AcDbEntity
8
Layer_1
6
ByLayer
62
1
370
-1
100
AcDbSpline
210
0
220
0
230
1
70
8
71
3
72
8
73
4
74
0
42
1e-07
43
1e-07
40
0
40
0
40
0
40
0
40
1
40
1
40
1
40
1
10
140.632814
20
16.581212
30
0
10
141.821596
20
16.737485
30
0
10
143.174866
20
16.765425
30
0
10
143.781356
20
16.766421
30
0
0
SPLINE
5
A8
100
AcDbEntity
8
Layer_1
6
ByLayer
62
1
370
-1
100
AcDbSpline
210
0
220
0
230
1
70
8
71
3
72
8
73
4
74
0
42
1e-07
43
1e-07
40
0
40
0
40
0
40
0
40
1
40
1
40
1
40
1
10
143.781356
20
16.766421
30
0
10
143.98352
20
16.766703
30
0
10
144.107675
20
16.757615
30
0
10
144.107675
20
16.757615
30
0
0
LWPOLYLINE
5
A9
100
AcDbEntity
8
Layer_1
6
ByLayer
62
1
370
-1
100
AcDbPolyline
90
4
70
0
43
0
10
141.109064
20
12.691837
10
141.109064
20
13.75899
10
144.107675
20
13.75899
10
144.107675
20
12.762393
0
LWPOLYLINE
5
AA
100
AcDbEntity
8
Layer_1
6
ByLayer
62
1
370
-1
100
AcDbPolyline
90
6
70
0
43
0
10
115.876633
20
16.748782
10
125.877883
20
16.748782
10
125.877883
20
13.750171
10
115.876633
20
13.750171
10
115.876633
20
16.748782
10
115.876633
20
16.748782
0
LINE
5
AB
100
AcDbEntity
8
Layer_1
6
ByLayer
62
1
370
-1
100
AcDbLine
10
91.069583
20
11.748157
11
132.148508
21
11.748157
0
LINE
5
AC
100
AcDbEntity
8
Layer_1
6
ByLayer
62
1
370
-1
100
AcDbLine
10
10.107532
20
13.75126
11
13.107532
21
13.75126
0
LINE
5
AD
100
AcDbEntity
8
Layer_1
6
ByLayer
62
1
370
-1
100
AcDbLine
10
68.10751
20
13.752361
11
71.10751
21
13.752361
0
SPLINE
5
AE
100
AcDbEntity
8
Layer_1
6
ByLayer
62
1
370
-1
100
AcDbSpline
210
0
220
0
230
1
70
8
71
3
72
8
73
4
74
0
42
1e-07
43
1e-07
40
0
40
0
40
0
40
0
40
1
40
1
40
1
40
1
10
80.054097
20
21.751421
30
0
10
79.923787
20
21.751421
30
0
10
79.796595
20
21.728617
30
0
10
79.683681
20
21.680865
30
0
0
SPLINE
5
AF
100
AcDbEntity
8
Layer_1
6
ByLayer
62
1
370
-1
100
AcDbSpline
210
0
220
0
230
1
70
8
71
3
72
8
73
4
74
0
42
1e-07
43
1e-07
40
0
40
0
40
0
40
0
40
1
40
1
40
1
40
1
10
79.683681
20
21.680865
30
0
10
79.570766
20
21.633108
30
0
10
79.469217
20
21.563416
30
0
10
79.383819
20
21.478018
30
0
0
SPLINE
5
B0
100
AcDbEntity
8
Layer_1
6
ByLayer
62
1
370
-1
100
AcDbSpline
210
0
220
0
230
1
70
8
71
3
72
8
73
4
74
0
42
1e-07
43
1e-07
40
0
40
0
40
0
40
0
40
1
40
1
40
1
40
1
10
79.383819
20
21.478018
30
0
10
79.298422
20
21.39262
30
0
10
79.22873
20
21.291071
30
0
10
79.180972
20
21.178157
30
0
0
SPLINE
5
B1
100
AcDbEntity
8
Layer_1
6
ByLayer
62
1
370
-1
100
AcDbSpline
210
0
220
0
230
1
70
8
71
3
72
8
73
4
74
0
42
1e-07
43
1e-07
40
0
40
0
40
0
40
0
40
1
40
1
40
1
40
1
10
79.180972
20
21.178157
30
0
10
79.133215
20
21.065243
30
0
10
79.110417
20
20.938051
30
0
10
79.110417
20
20.80774
30
0
0
SPLINE
5
B2
100
AcDbEntity
8
Layer_1
6
ByLayer
62
1
370
-1
100
AcDbSpline
210
0
220
0
230
1
70
8
71
3
72
8
73
4
74
0
42
1e-07
43
1e-07
40
0
40
0
40
0
40
0
40
1
40
1
40
1
40
1
10
144.107675
20
20.816574
30
0
10
144.107675
20
20.946884
30
0
10
144.076058
20
21.065257
30
0
10
144.0283
20
21.178171
30
0
0
SPLINE
5
B3
100
AcDbEntity
8
Layer_1
6
ByLayer
62
1
370
-1
100
AcDbSpline
210
0
220
0
230
1
70
8
71
3
72
8
73
4
74
0
42
1e-07
43
1e-07
40
0
40
0
40
0
40
0
40
1
40
1
40
1
40
1
10
144.0283
20
21.178171
30
0
10
143.980542
20
21.291085
30
0
10
143.91085
20
21.392635
30
0
10
143.825453
20
21.478032
30
0
0
SPLINE
5
B4
100
AcDbEntity
8
Layer_1
6
ByLayer
62
1
370
-1
100
AcDbSpline
210
0
220
0
230
1
70
8
71
3
72
8
73
4
74
0
42
1e-07
43
1e-07
40
0
40
0
40
0
40
0
40
1
40
1
40
1
40
1
10
143.825453
20
21.478032
30
0
10
143.740055
20
21.56343
30
0
10
143.638506
20
21.633122
30
0
10
143.525592
20
21.680879
30
0
0
SPLINE
5
B5
100
AcDbEntity
8
Layer_1
6
ByLayer
62
1
370
-1
100
AcDbSpline
210
0
220
0
230
1
70
8
71
3
72
8
73
4
74
0
42
1e-07
43
1e-07
40
0
40
0
40
0
40
0
40
1
40
1
40
1
40
1
10
143.525592
20
21.680879
30
0
10
143.412677
20
21.728637
30
0
10
143.294305
20
21.760254
30
0
10
143.163994
20
21.760254
30
0
0
LINE
5
B6
100
AcDbEntity
8
Layer_1
6
ByLayer
62
1
370
-1
100
AcDbLine
10
13.107532
20
21.75126
11
10.107532
21
21.75126
0
LINE
5
B7
100
AcDbEntity
8
Layer_1
6
ByLayer
62
1
370
-1
100
AcDbLine
10
82.109028
20
21.751421
11
80.054097
21
21.751421
0
LINE
5
B8
100
AcDbEntity
8
Layer_1
6
ByLayer
62
1
370
-1
100
AcDbLine
10
71.10751
20
21.752361
11
68.10751
21
21.752361
0
LINE
5
B9
100
AcDbEntity
8
Layer_1
6
ByLayer
62
1
370
-1
100
AcDbLine
10
143.163994
20
21.760254
11
141.109064
21
21.760254
0
LINE
5
BA
100
AcDbEntity
8
Layer_1
6
ByLayer
62
1
370
-1
100
AcDbLine
10
82.109028
20
29.246174
11
82.109028
21
21.751421
0
LINE
5
BB
100
AcDbEntity
8
Layer_1
6
ByLayer
62
1
370
-1
100
AcDbLine
10
79.110417
20
35.280687
11
79.110417
21
30.189854
0
LINE
5
BC
100
AcDbEntity
8
Layer_1
6
ByLayer
62
1
370
-1
100
AcDbLine
10
79.110417
20
20.80774
11
79.110417
21
16.757601
0
LINE
5
BD
100
AcDbEntity
8
Layer_1
6
ByLayer
62
1
370
-1
100
AcDbLine
10
73.105937
20
11.747398
11
73.105937
21
36.294156
0
LINE
5
BE
100
AcDbEntity
8
Layer_1
6
ByLayer
62
1
370
-1
100
AcDbLine
10
144.107675
20
16.757615
11
144.107675
21
20.816574
0
LINE
5
BF
100
AcDbEntity
8
Layer_1
6
ByLayer
62
1
370
-1
100
AcDbLine
10
144.107675
20
30.198688
11
144.107675
21
35.280702
0
LINE
5
C0
100
AcDbEntity
8
Layer_1
6
ByLayer
62
1
370
-1
100
AcDbLine
10
141.109064
20
21.760254
11
141.109064
21
29.255007
0
LINE
5
C1
100
AcDbEntity
8
Layer_1
6
ByLayer
62
1
370
-1
100
AcDbLine
10
8.105997
20
36.294156
11
8.105997
21
11.747398
0
LINE
5
C2
100
AcDbEntity
8
Layer_1
6
ByLayer
62
1
370
-1
100
AcDbLine
10
13.107532
20
13.75126
11
13.107532
21
21.75126
0
LINE
5
C3
100
AcDbEntity
8
Layer_1
6
ByLayer
62
1
370
-1
100
AcDbLine
10
10.107532
20
21.75126
11
10.107532
21
13.75126
0
LINE
5
C4
100
AcDbEntity
8
Layer_1
6
ByLayer
62
1
370
-1
100
AcDbLine
10
13.107532
20
29.244816
11
13.107532
21
37.244816
0
LINE
5
C5
100
AcDbEntity
8
Layer_1
6
ByLayer
62
1
370
-1
100
AcDbLine
10
10.107532
20
37.244816
11
10.107532
21
29.244816
0
LINE
5
C6
100
AcDbEntity
8
Layer_1
6
ByLayer
62
1
370
-1
100
AcDbLine
10
71.10751
20
13.752361
11
71.10751
21
21.752361
0
LINE
5
C7
100
AcDbEntity
8
Layer_1
6
ByLayer
62
1
370
-1
100
AcDbLine
10
68.10751
20
21.752361
11
68.10751
21
13.752361
0
LINE
5
C8
100
AcDbEntity
8
Layer_1
6
ByLayer
62
1
370
-1
100
AcDbLine
10
68.10751
20
37.24592
11
68.10751
21
29.24592
0
LINE
5
C9
100
AcDbEntity
8
Layer_1
6
ByLayer
62
1
370
-1
100
AcDbLine
10
71.10751
20
29.24592
11
71.10751
21
37.24592
0
SPLINE
5
CA
100
AcDbEntity
8
Layer_1
6
ByLayer
62
1
370
-1
100
AcDbSpline
210
0
220
0
230
1
70
8
71
3
72
8
73
4
74
0
42
1e-07
43
1e-07
40
0
40
0
40
0
40
0
40
1
40
1
40
1
40
1
10
35.7118348044
20
102.631040837
30
0
10
35.7118348044
20
102.761351837
30
0
10
35.6802168044
20
102.888542837
30
0
10
35.6324598044
20
103.001457837
30
0
0
SPLINE
5
CB
100
AcDbEntity
8
Layer_1
6
ByLayer
62
1
370
-1
100
AcDbSpline
210
0
220
0
230
1
70
8
71
3
72
8
73
4
74
0
42
1e-07
43
1e-07
40
0
40
0
40
0
40
0
40
1
40
1
40
1
40
1
10
35.6324598044
20
103.001457837
30
0
10
35.5847018044
20
103.114371837
30
0
10
35.5150098044
20
103.215920837
30
0
10
35.4296118044
20
103.301318837
30
0
0
SPLINE
5
CC
100
AcDbEntity
8
Layer_1
6
ByLayer
62
1
370
-1
100
AcDbSpline
210
0
220
0
230
1
70
8
71
3
72
8
73
4
74
0
42
1e-07
43
1e-07
40
0
40
0
40
0
40
0
40
1
40
1
40
1
40
1
10
35.4296118044
20
103.301318837
30
0
10
35.3442148044
20
103.386716837
30
0
10
35.2426648044
20
103.456407837
30
0
10
35.1297508044
20
103.504165837
30
0
0
SPLINE
5
CD
100
AcDbEntity
8
Layer_1
6
ByLayer
62
1
370
-1
100
AcDbSpline
210
0
220
0
230
1
70
8
71
3
72
8
73
4
74
0
42
1e-07
43
1e-07
40
0
40
0
40
0
40
0
40
1
40
1
40
1
40
1
10
35.1297508044
20
103.504165837
30
0
10
35.0168368044
20
103.551923837
30
0
10
34.8984638044
20
103.574721837
30
0
10
34.7681538044
20
103.574721837
30
0
0
SPLINE
5
CE
100
AcDbEntity
8
Layer_1
6
ByLayer
62
1
370
-1
100
AcDbSpline
210
0
220
0
230
1
70
8
71
3
72
8
73
4
74
0
42
1e-07
43
1e-07
40
0
40
0
40
0
40
0
40
1
40
1
40
1
40
1
10
26.6542648044
20
103.574721837
30
0
10
26.5239548044
20
103.574721837
30
0
10
26.3967628044
20
103.551917837
30
0
10
26.2838478044
20
103.504165837
30
0
0
SPLINE
5
CF
100
AcDbEntity
8
Layer_1
6
ByLayer
62
1
370
-1
100
AcDbSpline
210
0
220
0
230
1
70
8
71
3
72
8
73
4
74
0
42
1e-07
43
1e-07
40
0
40
0
40
0
40
0
40
1
40
1
40
1
40
1
10
26.2838478044
20
103.504165837
30
0
10
26.1709338044
20
103.456407837
30
0
10
26.0693848044
20
103.386716837
30
0
10
25.9839868044
20
103.301318837
30
0
0
SPLINE
5
D0
100
AcDbEntity
8
Layer_1
6
ByLayer
62
1
370
-1
100
AcDbSpline
210
0
220
0
230
1
70
8
71
3
72
8
73
4
74
0
42
1e-07
43
1e-07
40
0
40
0
40
0
40
0
40
1
40
1
40
1
40
1
10
25.9839868044
20
103.301318837
30
0
10
25.8985898044
20
103.215920837
30
0
10
25.8288978044
20
103.114371837
30
0
10
25.7811398044
20
103.001457837
30
0
0
SPLINE
5
D1
100
AcDbEntity
8
Layer_1
6
ByLayer
62
1
370
-1
100
AcDbSpline
210
0
220
0
230
1
70
8
71
3
72
8
73
4
74
0
42
1e-07
43
1e-07
40
0
40
0
40
0
40
0
40
1
40
1
40
1
40
1
10
25.7811398044
20
103.001457837
30
0
10
25.7333818044
20
102.888542837
30
0
10
25.7105848044
20
102.761351837
30
0
10
25.7105848044
20
102.631040837
30
0
0
LWPOLYLINE
5
D2
100
AcDbEntity
8
Layer_1
6
ByLayer
62
1
370
-1
100
AcDbPolyline
90
2
70
0
43
0
10
34.7681538044
20
103.574721837
10
26.6542648044
20
103.574721837
0
SPLINE
5
D3
100
AcDbEntity
8
Layer_1
6
ByLayer
62
1
370
-1
100
AcDbSpline
210
0
220
0
230
1
70
8
71
3
72
8
73
4
74
0
42
1e-07
43
1e-07
40
0
40
0
40
0
40
0
40
1
40
1
40
1
40
1
10
10.5940568044
20
100.576110837
30
0
10
10.5386568044
20
100.576110837
30
0
10
10.4970428044
20
100.534496837
30
0
10
10.4970428044
20
100.479096837
30
0
0
LWPOLYLINE
5
D4
100
AcDbEntity
8
Layer_1
6
ByLayer
62
1
370
-1
100
AcDbPolyline
90
3
70
0
43
0
10
25.7105848044
20
102.631040837
10
25.7105848044
20
100.576110837
10
10.5940568044
20
100.576110837
0
LINE
5
D5
100
AcDbEntity
8
Layer_1
6
ByLayer
62
1
370
-1
100
AcDbLine
10
35.7118348044
20
100.576110837
11
35.7118348044
21
102.631040837
0
SPLINE
5
D6
100
AcDbEntity
8
Layer_1
6
ByLayer
62
1
370
-1
100
AcDbSpline
210
0
220
0
230
1
70
8
71
3
72
8
73
4
74
0
42
1e-07
43
1e-07
40
0
40
0
40
0
40
0
40
1
40
1
40
1
40
1
10
69.4882598044
20
100.479096837
30
0
10
69.4882598044
20
100.534496837
30
0
10
69.4466458044
20
100.576110837
30
0
10
69.3912458044
20
100.576110837
30
0
0
SPLINE
5
D7
100
AcDbEntity
8
Layer_1
6
ByLayer
62
1
370
-1
100
AcDbSpline
210
0
220
0
230
1
70
8
71
3
72
8
73
4
74
0
42
1e-07
43
1e-07
40
0
40
0
40
0
40
0
40
1
40
1
40
1
40
1
10
54.2570788044
20
102.631040837
30
0
10
54.2570788044
20
102.761351837
30
0
10
54.2254618044
20
102.888542837
30
0
10
54.1777038044
20
103.001457837
30
0
0
SPLINE
5
D8
100
AcDbEntity
8
Layer_1
6
ByLayer
62
1
370
-1
100
AcDbSpline
210
0
220
0
230
1
70
8
71
3
72
8
73
4
74
0
42
1e-07
43
1e-07
40
0
40
0
40
0
40
0
40
1
40
1
40
1
40
1
10
54.1777038044
20
103.001457837
30
0
10
54.1299458044
20
103.114371837
30
0
10
54.0690738044
20
103.215920837
30
0
10
53.9836758044
20
103.301318837
30
0
0
SPLINE
5
D9
100
AcDbEntity
8
Layer_1
6
ByLayer
62
1
370
-1
100
AcDbSpline
210
0
220
0
230
1
70
8
71
3
72
8
73
4
74
0
42
1e-07
43
1e-07
40
0
40
0
40
0
40
0
40
1
40
1
40
1
40
1
10
53.9836758044
20
103.301318837
30
0
10
53.8982788044
20
103.386716837
30
0
10
53.7967288044
20
103.456407837
30
0
10
53.6838148044
20
103.504165837
30
0
0
SPLINE
5
DA
100
AcDbEntity
8
Layer_1
6
ByLayer
62
1
370
-1
100
AcDbSpline
210
0
220
0
230
1
70
8
71
3
72
8
73
4
74
0
42
1e-07
43
1e-07
40
0
40
0
40
0
40
0
40
1
40
1
40
1
40
1
10
53.6838148044
20
103.504165837
30
0
10
53.5709008044
20
103.551923837
30
0
10
53.4437088044
20
103.574721837
30
0
10
53.3133978044
20
103.574721837
30
0
0
LWPOLYLINE
5
DB
100
AcDbEntity
8
Layer_1
6
ByLayer
62
1
370
-1
100
AcDbPolyline
90
3
70
0
43
0
10
69.3912458044
20
100.576110837
10
54.2570788044
20
100.576110837
10
54.2570788044
20
102.631040837
0
SPLINE
5
DC
100
AcDbEntity
8
Layer_1
6
ByLayer
62
1
370
-1
100
AcDbSpline
210
0
220
0
230
1
70
8
71
3
72
8
73
4
74
0
42
1e-07
43
1e-07
40
0
40
0
40
0
40
0
40
1
40
1
40
1
40
1
10
45.1995098044
20
103.574721837
30
0
10
45.0691988044
20
103.574721837
30
0
10
44.9420068044
20
103.551917837
30
0
10
44.8290928044
20
103.504165837
30
0
0
SPLINE
5
DD
100
AcDbEntity
8
Layer_1
6
ByLayer
62
1
370
-1
100
AcDbSpline
210
0
220
0
230
1
70
8
71
3
72
8
73
4
74
0
42
1e-07
43
1e-07
40
0
40
0
40
0
40
0
40
1
40
1
40
1
40
1
10
44.8290928044
20
103.504165837
30
0
10
44.7161788044
20
103.456407837
30
0
10
44.6146288044
20
103.386716837
30
0
10
44.5292318044
20
103.301318837
30
0
0
SPLINE
5
DE
100
AcDbEntity
8
Layer_1
6
ByLayer
62
1
370
-1
100
AcDbSpline
210
0
220
0
230
1
70
8
71
3
72
8
73
4
74
0
42
1e-07
43
1e-07
40
0
40
0
40
0
40
0
40
1
40
1
40
1
40
1
10
44.5292318044
20
103.301318837
30
0
10
44.4438338044
20
103.215920837
30
0
10
44.3741418044
20
103.114371837
30
0
10
44.3263848044
20
103.001457837
30
0
0
SPLINE
5
DF
100
AcDbEntity
8
Layer_1
6
ByLayer
62
1
370
-1
100
AcDbSpline
210
0
220
0
230
1
70
8
71
3
72
8
73
4
74
0
42
1e-07
43
1e-07
40
0
40
0
40
0
40
0
40
1
40
1
40
1
40
1
10
44.3263848044
20
103.001457837
30
0
10
44.2786268044
20
102.888542837
30
0
10
44.2558288044
20
102.761351837
30
0
10
44.2558288044
20
102.631040837
30
0
0
LWPOLYLINE
5
E0
100
AcDbEntity
8
Layer_1
6
ByLayer
62
1
370
-1
100
AcDbPolyline
90
2
70
0
43
0
10
53.3133978044
20
103.574721837
10
45.1995098044
20
103.574721837
0
LINE
5
E1
100
AcDbEntity
8
Layer_1
6
ByLayer
62
1
370
-1
100
AcDbLine
10
44.2558288044
20
102.631040837
11
44.2558288044
21
100.576110837
0
LINE
5
E2
100
AcDbEntity
8
Layer_1
6
ByLayer
62
1
370
-1
100
AcDbLine
10
69.4882598044
20
100.479096837
11
69.4882598044
21
100.479096837
0
SPLINE
5
E3
100
AcDbEntity
8
Layer_1
6
ByLayer
62
1
370
-1
100
AcDbSpline
210
0
220
0
230
1
70
8
71
3
72
8
73
4
74
0
42
1e-07
43
1e-07
40
0
40
0
40
0
40
0
40
1
40
1
40
1
40
1
10
10.4970428044
20
45.6744328367
30
0
10
10.4970428044
20
45.6190328367
30
0
10
10.5386568044
20
45.5774188367
30
0
10
10.5940568044
20
45.5774188367
30
0
0
SPLINE
5
E4
100
AcDbEntity
8
Layer_1
6
ByLayer
62
1
370
-1
100
AcDbSpline
210
0
220
0
230
1
70
8
71
3
72
8
73
4
74
0
42
1e-07
43
1e-07
40
0
40
0
40
0
40
0
40
1
40
1
40
1
40
1
10
25.7105848044
20
43.5224878367
30
0
10
25.7105848044
20
43.3921778367
30
0
10
25.7422018044
20
43.2649858367
30
0
10
25.7899598044
20
43.1520718367
30
0
0
SPLINE
5
E5
100
AcDbEntity
8
Layer_1
6
ByLayer
62
1
370
-1
100
AcDbSpline
210
0
220
0
230
1
70
8
71
3
72
8
73
4
74
0
42
1e-07
43
1e-07
40
0
40
0
40
0
40
0
40
1
40
1
40
1
40
1
10
25.7899598044
20
43.1520718367
30
0
10
25.8377168044
20
43.0391568367
30
0
10
25.9074088044
20
42.9376048367
30
0
10
25.9928068044
20
42.8522108367
30
0
0
SPLINE
5
E6
100
AcDbEntity
8
Layer_1
6
ByLayer
62
1
370
-1
100
AcDbSpline
210
0
220
0
230
1
70
8
71
3
72
8
73
4
74
0
42
1e-07
43
1e-07
40
0
40
0
40
0
40
0
40
1
40
1
40
1
40
1
10
25.9928068044
20
42.8522108367
30
0
10
26.0782038044
20
42.7668158367
30
0
10
26.1797538044
20
42.6971208367
30
0
10
26.2926678044
20
42.6493628367
30
0
0
SPLINE
5
E7
100
AcDbEntity
8
Layer_1
6
ByLayer
62
1
370
-1
100
AcDbSpline
210
0
220
0
230
1
70
8
71
3
72
8
73
4
74
0
42
1e-07
43
1e-07
40
0
40
0
40
0
40
0
40
1
40
1
40
1
40
1
10
26.2926678044
20
42.6493628367
30
0
10
26.4055818044
20
42.6016058367
30
0
10
26.5239548044
20
42.5788078367
30
0
10
26.6542648044
20
42.5788078367
30
0
0
LWPOLYLINE
5
E8
100
AcDbEntity
8
Layer_1
6
ByLayer
62
1
370
-1
100
AcDbPolyline
90
3
70
0
43
0
10
10.5940568044
20
45.5774188367
10
25.7105848044
20
45.5774188367
10
25.7105848044
20
43.5224878367
0
SPLINE
5
E9
100
AcDbEntity
8
Layer_1
6
ByLayer
62
1
370
-1
100
AcDbSpline
210
0
220
0
230
1
70
8
71
3
72
8
73
4
74
0
42
1e-07
43
1e-07
40
0
40
0
40
0
40
0
40
1
40
1
40
1
40
1
10
34.7681538044
20
42.5788078367
30
0
10
34.8984638044
20
42.5788078367
30
0
10
35.0256558044
20
42.6016108367
30
0
10
35.1385708044
20
42.6493628367
30
0
0
SPLINE
5
EA
100
AcDbEntity
8
Layer_1
6
ByLayer
62
1
370
-1
100
AcDbSpline
210
0
220
0
230
1
70
8
71
3
72
8
73
4
74
0
42
1e-07
43
1e-07
40
0
40
0
40
0
40
0
40
1
40
1
40
1
40
1
10
35.1385708044
20
42.6493628367
30
0
10
35.2514848044
20
42.6971208367
30
0
10
35.3530338044
20
42.7668158367
30
0
10
35.4384318044
20
42.8522108367
30
0
0
SPLINE
5
EB
100
AcDbEntity
8
Layer_1
6
ByLayer
62
1
370
-1
100
AcDbSpline
210
0
220
0
230
1
70
8
71
3
72
8
73
4
74
0
42
1e-07
43
1e-07
40
0
40
0
40
0
40
0
40
1
40
1
40
1
40
1
10
35.4384318044
20
42.8522108367
30
0
10
35.5238288044
20
42.9376048367
30
0
10
35.5935208044
20
43.0391568367
30
0
10
35.6412788044
20
43.1520718367
30
0
0
SPLINE
5
EC
100
AcDbEntity
8
Layer_1
6
ByLayer
62
1
370
-1
100
AcDbSpline
210
0
220
0
230
1
70
8
71
3
72
8
73
4
74
0
42
1e-07
43
1e-07
40
0
40
0
40
0
40
0
40
1
40
1
40
1
40
1
10
35.6412788044
20
43.1520718367
30
0
10
35.6890368044
20
43.2649858367
30
0
10
35.7118348044
20
43.3921778367
30
0
10
35.7118348044
20
43.5224878367
30
0
0
LWPOLYLINE
5
ED
100
AcDbEntity
8
Layer_1
6
ByLayer
62
1
370
-1
100
AcDbPolyline
90
2
70
0
43
0
10
26.6542648044
20
42.5788078367
10
34.7681538044
20
42.5788078367
0
LINE
5
EE
100
AcDbEntity
8
Layer_1
6
ByLayer
62
1
370
-1
100
AcDbLine
10
35.7118348044
20
43.5224878367
11
35.7118348044
21
45.5774188367
0
SPLINE
5
EF
100
AcDbEntity
8
Layer_1
6
ByLayer
62
1
370
-1
100
AcDbSpline
210
0
220
0
230
1
70
8
71
3
72
8
73
4
74
0
42
1e-07
43
1e-07
40
0
40
0
40
0
40
0
40
1
40
1
40
1
40
1
10
44.2558288044
20
43.5224878367
30
0
10
44.2558288044
20
43.3921778367
30
0
10
44.2874458044
20
43.2649858367
30
0
10
44.3352038044
20
43.1520718367
30
0
0
SPLINE
5
F0
100
AcDbEntity
8
Layer_1
6
ByLayer
62
1
370
-1
100
AcDbSpline
210
0
220
0
230
1
70
8
71
3
72
8
73
4
74
0
42
1e-07
43
1e-07
40
0
40
0
40
0
40
0
40
1
40
1
40
1
40
1
10
44.3352038044
20
43.1520718367
30
0
10
44.3829618044
20
43.0391568367
30
0
10
44.4526538044
20
42.9376048367
30
0
10
44.5380508044
20
42.8522108367
30
0
0
SPLINE
5
F1
100
AcDbEntity
8
Layer_1
6
ByLayer
62
1
370
-1
100
AcDbSpline
210
0
220
0
230
1
70
8
71
3
72
8
73
4
74
0
42
1e-07
43
1e-07
40
0
40
0
40
0
40
0
40
1
40
1
40
1
40
1
10
44.5380508044
20
42.8522108367
30
0
10
44.6234488044
20
42.7668158367
30
0
10
44.7249978044
20
42.6971208367
30
0
10
44.8379118044
20
42.6493628367
30
0
0
SPLINE
5
F2
100
AcDbEntity
8
Layer_1
6
ByLayer
62
1
370
-1
100
AcDbSpline
210
0
220
0
230
1
70
8
71
3
72
8
73
4
74
0
42
1e-07
43
1e-07
40
0
40
0
40
0
40
0
40
1
40
1
40
1
40
1
10
44.8379118044
20
42.6493628367
30
0
10
44.9508268044
20
42.6016058367
30
0
10
45.0691988044
20
42.5788078367
30
0
10
45.1995098044
20
42.5788078367
30
0
0
SPLINE
5
F3
100
AcDbEntity
8
Layer_1
6
ByLayer
62
1
370
-1
100
AcDbSpline
210
0
220
0
230
1
70
8
71
3
72
8
73
4
74
0
42
1e-07
43
1e-07
40
0
40
0
40
0
40
0
40
1
40
1
40
1
40
1
10
53.3133978044
20
42.5788078367
30
0
10
53.4437088044
20
42.5788078367
30
0
10
53.5709008044
20
42.6016108367
30
0
10
53.6838148044
20
42.6493628367
30
0
0
SPLINE
5
F4
100
AcDbEntity
8
Layer_1
6
ByLayer
62
1
370
-1
100
AcDbSpline
210
0
220
0
230
1
70
8
71
3
72
8
73
4
74
0
42
1e-07
43
1e-07
40
0
40
0
40
0
40
0
40
1
40
1
40
1
40
1
10
53.6838148044
20
42.6493628367
30
0
10
53.7967288044
20
42.6971208367
30
0
10
53.8982788044
20
42.7668158367
30
0
10
53.9836758044
20
42.8522108367
30
0
0
SPLINE
5
F5
100
AcDbEntity
8
Layer_1
6
ByLayer
62
1
370
-1
100
AcDbSpline
210
0
220
0
230
1
70
8
71
3
72
8
73
4
74
0
42
1e-07
43
1e-07
40
0
40
0
40
0
40
0
40
1
40
1
40
1
40
1
10
53.9836758044
20
42.8522108367
30
0
10
54.0690738044
20
42.9376048367
30
0
10
54.1387658044
20
43.0391568367
30
0
10
54.1865228044
20
43.1520718367
30
0
0
SPLINE
5
F6
100
AcDbEntity
8
Layer_1
6
ByLayer
62
1
370
-1
100
AcDbSpline
210
0
220
0
230
1
70
8
71
3
72
8
73
4
74
0
42
1e-07
43
1e-07
40
0
40
0
40
0
40
0
40
1
40
1
40
1
40
1
10
54.1865228044
20
43.1520718367
30
0
10
54.2342808044
20
43.2649858367
30
0
10
54.2570788044
20
43.3921778367
30
0
10
54.2570788044
20
43.5224878367
30
0
0
LWPOLYLINE
5
F7
100
AcDbEntity
8
Layer_1
6
ByLayer
62
1
370
-1
100
AcDbPolyline
90
2
70
0
43
0
10
45.1995098044
20
42.5788078367
10
53.3133978044
20
42.5788078367
0
SPLINE
5
F8
100
AcDbEntity
8
Layer_1
6
ByLayer
62
1
370
-1
100
AcDbSpline
210
0
220
0
230
1
70
8
71
3
72
8
73
4
74
0
42
1e-07
43
1e-07
40
0
40
0
40
0
40
0
40
1
40
1
40
1
40
1
10
69.3912458044
20
45.5774188367
30
0
10
69.4466458044
20
45.5774188367
30
0
10
69.4882598044
20
45.6190328367
30
0
10
69.4882598044
20
45.6744328367
30
0
0
LWPOLYLINE
5
F9
100
AcDbEntity
8
Layer_1
6
ByLayer
62
1
370
-1
100
AcDbPolyline
90
3
70
0
43
0
10
54.2570788044
20
43.5224878367
10
54.2570788044
20
45.5774188367
10
69.3912458044
20
45.5774188367
0
LINE
5
FA
100
AcDbEntity
8
Layer_1
6
ByLayer
62
1
370
-1
100
AcDbLine
10
44.2558288044
20
45.5774188367
11
44.2558288044
21
43.5224878367
0
LINE
5
FB
100
AcDbEntity
8
Layer_1
6
ByLayer
62
1
370
-1
100
AcDbLine
10
69.4882598044
20
45.6744328367
11
69.4882598044
21
100.479096837
0
LINE
5
FC
100
AcDbEntity
8
Layer_1
6
ByLayer
62
1
370
-1
100
AcDbLine
10
10.4970428044
20
100.479096837
11
10.4970428044
21
45.6744328367
0
LINE
5
FD
100
AcDbEntity
8
Layer_1
6
ByLayer
62
1
370
-1
100
AcDbLine
10
44.2558288044
20
100.576110837
11
35.7118348044
21
100.576110837
0
LINE
5
FE
100
AcDbEntity
8
Layer_1
6
ByLayer
62
1
370
-1
100
AcDbLine
10
35.7118348044
20
45.5774188367
11
44.2558288044
21
45.5774188367
0
SPLINE
5
FF
100
AcDbEntity
8
Layer_1
6
ByLayer
62
1
370
-1
100
AcDbSpline
210
0
220
0
230
1
70
8
71
3
72
8
73
4
74
0
42
1e-07
43
1e-07
40
0
40
0
40
0
40
0
40
1
40
1
40
1
40
1
10
115.876632643
20
102.631040837
30
0
10
115.876632643
20
102.761351837
30
0
10
115.908250643
20
102.888542837
30
0
10
115.956007643
20
103.001457837
30
0
0
SPLINE
5
100
100
AcDbEntity
8
Layer_1
6
ByLayer
62
1
370
-1
100
AcDbSpline
210
0
220
0
230
1
70
8
71
3
72
8
73
4
74
0
42
1e-07
43
1e-07
40
0
40
0
40
0
40
0
40
1
40
1
40
1
40
1
10
115.956007643
20
103.001457837
30
0
10
116.003765643
20
103.114371837
30
0
10
116.073457643
20
103.215920837
30
0
10
116.158855643
20
103.301318837
30
0
0
SPLINE
5
101
100
AcDbEntity
8
Layer_1
6
ByLayer
62
1
370
-1
100
AcDbSpline
210
0
220
0
230
1
70
8
71
3
72
8
73
4
74
0
42
1e-07
43
1e-07
40
0
40
0
40
0
40
0
40
1
40
1
40
1
40
1
10
116.158855643
20
103.301318837
30
0
10
116.244252643
20
103.386716837
30
0
10
116.345802643
20
103.456407837
30
0
10
116.458716643
20
103.504165837
30
0
0
SPLINE
5
102
100
AcDbEntity
8
Layer_1
6
ByLayer
62
1
370
-1
100
AcDbSpline
210
0
220
0
230
1
70
8
71
3
72
8
73
4
74
0
42
1e-07
43
1e-07
40
0
40
0
40
0
40
0
40
1
40
1
40
1
40
1
10
116.458716643
20
103.504165837
30
0
10
116.571630643
20
103.551923837
30
0
10
116.690003643
20
103.574721837
30
0
10
116.820313643
20
103.574721837
30
0
0
SPLINE
5
103
100
AcDbEntity
8
Layer_1
6
ByLayer
62
1
370
-1
100
AcDbSpline
210
0
220
0
230
1
70
8
71
3
72
8
73
4
74
0
42
1e-07
43
1e-07
40
0
40
0
40
0
40
0
40
1
40
1
40
1
40
1
10
124.934202643
20
103.574721837
30
0
10
125.064512643
20
103.574721837
30
0
10
125.191704643
20
103.551917837
30
0
10
125.304619643
20
103.504165837
30
0
0
SPLINE
5
104
100
AcDbEntity
8
Layer_1
6
ByLayer
62
1
370
-1
100
AcDbSpline
210
0
220
0
230
1
70
8
71
3
72
8
73
4
74
0
42
1e-07
43
1e-07
40
0
40
0
40
0
40
0
40
1
40
1
40
1
40
1
10
125.304619643
20
103.504165837
30
0
10
125.417533643
20
103.456407837
30
0
10
125.519082643
20
103.386716837
30
0
10
125.604480643
20
103.301318837
30
0
0
SPLINE
5
105
100
AcDbEntity
8
Layer_1
6
ByLayer
62
1
370
-1
100
AcDbSpline
210
0
220
0
230
1
70
8
71
3
72
8
73
4
74
0
42
1e-07
43
1e-07
40
0
40
0
40
0
40
0
40
1
40
1
40
1
40
1
10
125.604480643
20
103.301318837
30
0
10
125.689877643
20
103.215920837
30
0
10
125.759569643
20
103.114371837
30
0
10
125.807327643
20
103.001457837
30
0
0
SPLINE
5
106
100
AcDbEntity
8
Layer_1
6
ByLayer
62
1
370
-1
100
AcDbSpline
210
0
220
0
230
1
70
8
71
3
72
8
73
4
74
0
42
1e-07
43
1e-07
40
0
40
0
40
0
40
0
40
1
40
1
40
1
40
1
10
125.807327643
20
103.001457837
30
0
10
125.855085643
20
102.888542837
30
0
10
125.877882643
20
102.761351837
30
0
10
125.877882643
20
102.631040837
30
0
0
LWPOLYLINE
5
107
100
AcDbEntity
8
Layer_1
6
ByLayer
62
1
370
-1
100
AcDbPolyline
90
2
70
0
43
0
10
116.820313643
20
103.574721837
10
124.934202643
20
103.574721837
0
SPLINE
5
108
100
AcDbEntity
8
Layer_1
6
ByLayer
62
1
370
-1
100
AcDbSpline
210
0
220
0
230
1
70
8
71
3
72
8
73
4
74
0
42
1e-07
43
1e-07
40
0
40
0
40
0
40
0
40
1
40
1
40
1
40
1
10
140.994410643
20
100.576110837
30
0
10
141.049810643
20
100.576110837
30
0
10
141.091424643
20
100.534496837
30
0
10
141.091424643
20
100.479096837
30
0
0
LWPOLYLINE
5
109
100
AcDbEntity
8
Layer_1
6
ByLayer
62
1
370
-1
100
AcDbPolyline
90
3
70
0
43
0
10
125.877882643
20
102.631040837
10
125.877882643
20
100.576110837
10
140.994410643
20
100.576110837
0
LINE
5
10A
100
AcDbEntity
8
Layer_1
6
ByLayer
62
1
370
-1
100
AcDbLine
10
115.876632643
20
100.576110837
11
115.876632643
21
102.631040837
0
SPLINE
5
10B
100
AcDbEntity
8
Layer_1
6
ByLayer
62
1
370
-1
100
AcDbSpline
210
0
220
0
230
1
70
8
71
3
72
8
73
4
74
0
42
1e-07
43
1e-07
40
0
40
0
40
0
40
0
40
1
40
1
40
1
40
1
10
82.100207643
20
100.479096837
30
0
10
82.100207643
20
100.534496837
30
0
10
82.141821643
20
100.576110837
30
0
10
82.197221643
20
100.576110837
30
0
0
SPLINE
5
10C
100
AcDbEntity
8
Layer_1
6
ByLayer
62
1
370
-1
100
AcDbSpline
210
0
220
0
230
1
70
8
71
3
72
8
73
4
74
0
42
1e-07
43
1e-07
40
0
40
0
40
0
40
0
40
1
40
1
40
1
40
1
10
97.331388643
20
102.631040837
30
0
10
97.331388643
20
102.761351837
30
0
10
97.363005643
20
102.888542837
30
0
10
97.410763643
20
103.001457837
30
0
0
SPLINE
5
10D
100
AcDbEntity
8
Layer_1
6
ByLayer
62
1
370
-1
100
AcDbSpline
210
0
220
0
230
1
70
8
71
3
72
8
73
4
74
0
42
1e-07
43
1e-07
40
0
40
0
40
0
40
0
40
1
40
1
40
1
40
1
10
97.410763643
20
103.001457837
30
0
10
97.458521643
20
103.114371837
30
0
10
97.519393643
20
103.215920837
30
0
10
97.604791643
20
103.301318837
30
0
0
SPLINE
5
10E
100
AcDbEntity
8
Layer_1
6
ByLayer
62
1
370
-1
100
AcDbSpline
210
0
220
0
230
1
70
8
71
3
72
8
73
4
74
0
42
1e-07
43
1e-07
40
0
40
0
40
0
40
0
40
1
40
1
40
1
40
1
10
97.604791643
20
103.301318837
30
0
10
97.690188643
20
103.386716837
30
0
10
97.791738643
20
103.456407837
30
0
10
97.904652643
20
103.504165837
30
0
0
SPLINE
5
10F
100
AcDbEntity
8
Layer_1
6
ByLayer
62
1
370
-1
100
AcDbSpline
210
0
220
0
230
1
70
8
71
3
72
8
73
4
74
0
42
1e-07
43
1e-07
40
0
40
0
40
0
40
0
40
1
40
1
40
1
40
1
10
97.904652643
20
103.504165837
30
0
10
98.017566643
20
103.551923837
30
0
10
98.144758643
20
103.574721837
30
0
10
98.275069643
20
103.574721837
30
0
0
LWPOLYLINE
5
110
100
AcDbEntity
8
Layer_1
6
ByLayer
62
1
370
-1
100
AcDbPolyline
90
3
70
0
43
0
10
82.197221643
20
100.576110837
10
97.331388643
20
100.576110837
10
97.331388643
20
102.631040837
0
SPLINE
5
111
100
AcDbEntity
8
Layer_1
6
ByLayer
62
1
370
-1
100
AcDbSpline
210
0
220
0
230
1
70
8
71
3
72
8
73
4
74
0
42
1e-07
43
1e-07
40
0
40
0
40
0
40
0
40
1
40
1
40
1
40
1
10
106.388957643
20
103.574721837
30
0
10
106.519268643
20
103.574721837
30
0
10
106.646460643
20
103.551917837
30
0
10
106.759374643
20
103.504165837
30
0
0
SPLINE
5
112
100
AcDbEntity
8
Layer_1
6
ByLayer
62
1
370
-1
100
AcDbSpline
210
0
220
0
230
1
70
8
71
3
72
8
73
4
74
0
42
1e-07
43
1e-07
40
0
40
0
40
0
40
0
40
1
40
1
40
1
40
1
10
106.759374643
20
103.504165837
30
0
10
106.872288643
20
103.456407837
30
0
10
106.973838643
20
103.386716837
30
0
10
107.059235643
20
103.301318837
30
0
0
SPLINE
5
113
100
AcDbEntity
8
Layer_1
6
ByLayer
62
1
370
-1
100
AcDbSpline
210
0
220
0
230
1
70
8
71
3
72
8
73
4
74
0
42
1e-07
43
1e-07
40
0
40
0
40
0
40
0
40
1
40
1
40
1
40
1
10
107.059235643
20
103.301318837
30
0
10
107.144633643
20
103.215920837
30
0
10
107.214325643
20
103.114371837
30
0
10
107.262082643
20
103.001457837
30
0
0
SPLINE
5
114
100
AcDbEntity
8
Layer_1
6
ByLayer
62
1
370
-1
100
AcDbSpline
210
0
220
0
230
1
70
8
71
3
72
8
73
4
74
0
42
1e-07
43
1e-07
40
0
40
0
40
0
40
0
40
1
40
1
40
1
40
1
10
107.262082643
20
103.001457837
30
0
10
107.309840643
20
102.888542837
30
0
10
107.332638643
20
102.761351837
30
0
10
107.332638643
20
102.631040837
30
0
0
LWPOLYLINE
5
115
100
AcDbEntity
8
Layer_1
6
ByLayer
62
1
370
-1
100
AcDbPolyline
90
2
70
0
43
0
10
98.275069643
20
103.574721837
10
106.388957643
20
103.574721837
0
LINE
5
116
100
AcDbEntity
8
Layer_1
6
ByLayer
62
1
370
-1
100
AcDbLine
10
107.332638643
20
102.631040837
11
107.332638643
21
100.576110837
0
LINE
5
117
100
AcDbEntity
8
Layer_1
6
ByLayer
62
1
370
-1
100
AcDbLine
10
82.100207643
20
100.479096837
11
82.100207643
21
100.479096837
0
SPLINE
5
118
100
AcDbEntity
8
Layer_1
6
ByLayer
62
1
370
-1
100
AcDbSpline
210
0
220
0
230
1
70
8
71
3
72
8
73
4
74
0
42
1e-07
43
1e-07
40
0
40
0
40
0
40
0
40
1
40
1
40
1
40
1
10
141.091424643
20
45.6744328367
30
0
10
141.091424643
20
45.6190328367
30
0
10
141.049810643
20
45.5774188367
30
0
10
140.994410643
20
45.5774188367
30
0
0
SPLINE
5
119
100
AcDbEntity
8
Layer_1
6
ByLayer
62
1
370
-1
100
AcDbSpline
210
0
220
0
230
1
70
8
71
3
72
8
73
4
74
0
42
1e-07
43
1e-07
40
0
40
0
40
0
40
0
40
1
40
1
40
1
40
1
10
125.877882643
20
43.5224878367
30
0
10
125.877882643
20
43.3921778367
30
0
10
125.846265643
20
43.2649858367
30
0
10
125.798507643
20
43.1520718367
30
0
0
SPLINE
5
11A
100
AcDbEntity
8
Layer_1
6
ByLayer
62
1
370
-1
100
AcDbSpline
210
0
220
0
230
1
70
8
71
3
72
8
73
4
74
0
42
1e-07
43
1e-07
40
0
40
0
40
0
40
0
40
1
40
1
40
1
40
1
10
125.798507643
20
43.1520718367
30
0
10
125.750750643
20
43.0391568367
30
0
10
125.681058643
20
42.9376048367
30
0
10
125.595660643
20
42.8522108367
30
0
0
SPLINE
5
11B
100
AcDbEntity
8
Layer_1
6
ByLayer
62
1
370
-1
100
AcDbSpline
210
0
220
0
230
1
70
8
71
3
72
8
73
4
74
0
42
1e-07
43
1e-07
40
0
40
0
40
0
40
0
40
1
40
1
40
1
40
1
10
125.595660643
20
42.8522108367
30
0
10
125.510263643
20
42.7668158367
30
0
10
125.408713643
20
42.6971208367
30
0
10
125.295799643
20
42.6493628367
30
0
0
SPLINE
5
11C
100
AcDbEntity
8
Layer_1
6
ByLayer
62
1
370
-1
100
AcDbSpline
210
0
220
0
230
1
70
8
71
3
72
8
73
4
74
0
42
1e-07
43
1e-07
40
0
40
0
40
0
40
0
40
1
40
1
40
1
40
1
10
125.295799643
20
42.6493628367
30
0
10
125.182885643
20
42.6016058367
30
0
10
125.064512643
20
42.5788078367
30
0
10
124.934202643
20
42.5788078367
30
0
0
LWPOLYLINE
5
11D
100
AcDbEntity
8
Layer_1
6
ByLayer
62
1
370
-1
100
AcDbPolyline
90
3
70
0
43
0
10
140.994410643
20
45.5774188367
10
125.877882643
20
45.5774188367
10
125.877882643
20
43.5224878367
0
SPLINE
5
11E
100
AcDbEntity
8
Layer_1
6
ByLayer
62
1
370
-1
100
AcDbSpline
210
0
220
0
230
1
70
8
71
3
72
8
73
4
74
0
42
1e-07
43
1e-07
40
0
40
0
40
0
40
0
40
1
40
1
40
1
40
1
10
116.820313643
20
42.5788078367
30
0
10
116.690003643
20
42.5788078367
30
0
10
116.562811643
20
42.6016108367
30
0
10
116.449896643
20
42.6493628367
30
0
0
SPLINE
5
11F
100
AcDbEntity
8
Layer_1
6
ByLayer
62
1
370
-1
100
AcDbSpline
210
0
220
0
230
1
70
8
71
3
72
8
73
4
74
0
42
1e-07
43
1e-07
40
0
40
0
40
0
40
0
40
1
40
1
40
1
40
1
10
116.449896643
20
42.6493628367
30
0
10
116.336982643
20
42.6971208367
30
0
10
116.235433643
20
42.7668158367
30
0
10
116.150035643
20
42.8522108367
30
0
0
SPLINE
5
120
100
AcDbEntity
8
Layer_1
6
ByLayer
62
1
370
-1
100
AcDbSpline
210
0
220
0
230
1
70
8
71
3
72
8
73
4
74
0
42
1e-07
43
1e-07
40
0
40
0
40
0
40
0
40
1
40
1
40
1
40
1
10
116.150035643
20
42.8522108367
30
0
10
116.064638643
20
42.9376048367
30
0
10
115.994946643
20
43.0391568367
30
0
10
115.947188643
20
43.1520718367
30
0
0
SPLINE
5
121
100
AcDbEntity
8
Layer_1
6
ByLayer
62
1
370
-1
100
AcDbSpline
210
0
220
0
230
1
70
8
71
3
72
8
73
4
74
0
42
1e-07
43
1e-07
40
0
40
0
40
0
40
0
40
1
40
1
40
1
40
1
10
115.947188643
20
43.1520718367
30
0
10
115.899430643
20
43.2649858367
30
0
10
115.876632643
20
43.3921778367
30
0
10
115.876632643
20
43.5224878367
30
0
0
LWPOLYLINE
5
122
100
AcDbEntity
8
Layer_1
6
ByLayer
62
1
370
-1
100
AcDbPolyline
90
2
70
0
43
0
10
124.934202643
20
42.5788078367
10
116.820313643
20
42.5788078367
0
LINE
5
123
100
AcDbEntity
8
Layer_1
6
ByLayer
62
1
370
-1
100
AcDbLine
10
115.876632643
20
43.5224878367
11
115.876632643
21
45.5774188367
0
SPLINE
5
124
100
AcDbEntity
8
Layer_1
6
ByLayer
62
1
370
-1
100
AcDbSpline
210
0
220
0
230
1
70
8
71
3
72
8
73
4
74
0
42
1e-07
43
1e-07
40
0
40
0
40
0
40
0
40
1
40
1
40
1
40
1
10
107.332638643
20
43.5224878367
30
0
10
107.332638643
20
43.3921778367
30
0
10
107.301021643
20
43.2649858367
30
0
10
107.253263643
20
43.1520718367
30
0
0
SPLINE
5
125
100
AcDbEntity
8
Layer_1
6
ByLayer
62
1
370
-1
100
AcDbSpline
210
0
220
0
230
1
70
8
71
3
72
8
73
4
74
0
42
1e-07
43
1e-07
40
0
40
0
40
0
40
0
40
1
40
1
40
1
40
1
10
107.253263643
20
43.1520718367
30
0
10
107.205505643
20
43.0391568367
30
0
10
107.135813643
20
42.9376048367
30
0
10
107.050416643
20
42.8522108367
30
0
0
SPLINE
5
126
100
AcDbEntity
8
Layer_1
6
ByLayer
62
1
370
-1
100
AcDbSpline
210
0
220
0
230
1
70
8
71
3
72
8
73
4
74
0
42
1e-07
43
1e-07
40
0
40
0
40
0
40
0
40
1
40
1
40
1
40
1
10
107.050416643
20
42.8522108367
30
0
10
106.965018643
20
42.7668158367
30
0
10
106.863469643
20
42.6971208367
30
0
10
106.750555643
20
42.6493628367
30
0
0
SPLINE
5
127
100
AcDbEntity
8
Layer_1
6
ByLayer
62
1
370
-1
100
AcDbSpline
210
0
220
0
230
1
70
8
71
3
72
8
73
4
74
0
42
1e-07
43
1e-07
40
0
40
0
40
0
40
0
40
1
40
1
40
1
40
1
10
106.750555643
20
42.6493628367
30
0
10
106.637640643
20
42.6016058367
30
0
10
106.519268643
20
42.5788078367
30
0
10
106.388957643
20
42.5788078367
30
0
0
SPLINE
5
128
100
AcDbEntity
8
Layer_1
6
ByLayer
62
1
370
-1
100
AcDbSpline
210
0
220
0
230
1
70
8
71
3
72
8
73
4
74
0
42
1e-07
43
1e-07
40
0
40
0
40
0
40
0
40
1
40
1
40
1
40
1
10
98.275069643
20
42.5788078367
30
0
10
98.144758643
20
42.5788078367
30
0
10
98.017566643
20
42.6016108367
30
0
10
97.904652643
20
42.6493628367
30
0
0
SPLINE
5
129
100
AcDbEntity
8
Layer_1
6
ByLayer
62
1
370
-1
100
AcDbSpline
210
0
220
0
230
1
70
8
71
3
72
8
73
4
74
0
42
1e-07
43
1e-07
40
0
40
0
40
0
40
0
40
1
40
1
40
1
40
1
10
97.904652643
20
42.6493628367
30
0
10
97.791738643
20
42.6971208367
30
0
10
97.690188643
20
42.7668158367
30
0
10
97.604791643
20
42.8522108367
30
0
0
SPLINE
5
12A
100
AcDbEntity
8
Layer_1
6
ByLayer
62
1
370
-1
100
AcDbSpline
210
0
220
0
230
1
70
8
71
3
72
8
73
4
74
0
42
1e-07
43
1e-07
40
0
40
0
40
0
40
0
40
1
40
1
40
1
40
1
10
97.604791643
20
42.8522108367
30
0
10
97.519393643
20
42.9376048367
30
0
10
97.449701643
20
43.0391568367
30
0
10
97.401944643
20
43.1520718367
30
0
0
SPLINE
5
12B
100
AcDbEntity
8
Layer_1
6
ByLayer
62
1
370
-1
100
AcDbSpline
210
0
220
0
230
1
70
8
71
3
72
8
73
4
74
0
42
1e-07
43
1e-07
40
0
40
0
40
0
40
0
40
1
40
1
40
1
40
1
10
97.401944643
20
43.1520718367
30
0
10
97.354186643
20
43.2649858367
30
0
10
97.331388643
20
43.3921778367
30
0
10
97.331388643
20
43.5224878367
30
0
0
LWPOLYLINE
5
12C
100
AcDbEntity
8
Layer_1
6
ByLayer
62
1
370
-1
100
AcDbPolyline
90
2
70
0
43
0
10
106.388957643
20
42.5788078367
10
98.275069643
20
42.5788078367
0
SPLINE
5
12D
100
AcDbEntity
8
Layer_1
6
ByLayer
62
1
370
-1
100
AcDbSpline
210
0
220
0
230
1
70
8
71
3
72
8
73
4
74
0
42
1e-07
43
1e-07
40
0
40
0
40
0
40
0
40
1
40
1
40
1
40
1
10
82.197221643
20
45.5774188367
30
0
10
82.141821643
20
45.5774188367
30
0
10
82.100207643
20
45.6190328367
30
0
10
82.100207643
20
45.6744328367
30
0
0
LWPOLYLINE
5
12E
100
AcDbEntity
8
Layer_1
6
ByLayer
62
1
370
-1
100
AcDbPolyline
90
3
70
0
43
0
10
97.331388643
20
43.5224878367
10
97.331388643
20
45.5774188367
10
82.197221643
20
45.5774188367
0
LINE
5
12F
100
AcDbEntity
8
Layer_1
6
ByLayer
62
1
370
-1
100
AcDbLine
10
107.332638643
20
45.5774188367
11
107.332638643
21
43.5224878367
0
LINE
5
130
100
AcDbEntity
8
Layer_1
6
ByLayer
62
1
370
-1
100
AcDbLine
10
82.100207643
20
45.6744328367
11
82.100207643
21
100.479096837
0
LINE
5
131
100
AcDbEntity
8
Layer_1
6
ByLayer
62
1
370
-1
100
AcDbLine
10
141.091424643
20
100.479096837
11
141.091424643
21
45.6744328367
0
LINE
5
132
100
AcDbEntity
8
Layer_1
6
ByLayer
62
1
370
-1
100
AcDbLine
10
107.332638643
20
100.576110837
11
115.876632643
21
100.576110837
0
LINE
5
133
100
AcDbEntity
8
Layer_1
6
ByLayer
62
1
370
-1
100
AcDbLine
10
115.876632643
20
45.5774188367
11
107.332638643
21
45.5774188367
0
SPLINE
5
134
100
AcDbEntity
8
Layer_1
6
ByLayer
62
3
370
-1
100
AcDbSpline
210
0
220
0
230
1
70
8
71
3
72
8
73
4
74
0
42
1e-07
43
1e-07
40
0
40
0
40
0
40
0
40
1
40
1
40
1
40
1
10
133.422249945
20
59.4528551681
30
0
10
133.848927945
20
59.8795136681
30
0
10
134.371320945
20
60.0928766681
30
0
10
134.989291945
20
60.0928766681
30
0
0
SPLINE
5
135
100
AcDbEntity
8
Layer_1
6
ByLayer
62
3
370
-1
100
AcDbSpline
210
0
220
0
230
1
70
8
71
3
72
8
73
4
74
0
42
1e-07
43
1e-07
40
0
40
0
40
0
40
0
40
1
40
1
40
1
40
1
10
134.989291945
20
60.0928766681
30
0
10
135.607330945
20
60.0928766681
30
0
10
136.124111945
20
59.8832081681
30
0
10
136.539764945
20
59.4638781681
30
0
0
SPLINE
5
136
100
AcDbEntity
8
Layer_1
6
ByLayer
62
3
370
-1
100
AcDbSpline
210
0
220
0
230
1
70
8
71
3
72
8
73
4
74
0
42
1e-07
43
1e-07
40
0
40
0
40
0
40
0
40
1
40
1
40
1
40
1
10
136.539764945
20
59.4638781681
30
0
10
136.977536945
20
59.0188701681
30
0
10
137.196352445
20
58.4929261681
30
0
10
137.196352445
20
57.8860426681
30
0
0
SPLINE
5
137
100
AcDbEntity
8
Layer_1
6
ByLayer
62
3
370
-1
100
AcDbSpline
210
0
220
0
230
1
70
8
71
3
72
8
73
4
74
0
42
1e-07
43
1e-07
40
0
40
0
40
0
40
0
40
1
40
1
40
1
40
1
10
137.196352445
20
57.8860426681
30
0
10
137.196352445
20
57.2864931681
30
0
10
136.979386445
20
56.7696541681
30
0
10
136.545244445
20
56.3356726681
30
0
0
SPLINE
5
138
100
AcDbEntity
8
Layer_1
6
ByLayer
62
3
370
-1
100
AcDbSpline
210
0
220
0
230
1
70
8
71
3
72
8
73
4
74
0
42
1e-07
43
1e-07
40
0
40
0
40
0
40
0
40
1
40
1
40
1
40
1
10
136.545244445
20
56.3356726681
30
0
10
136.111240945
20
55.9016166681
30
0
10
135.592613945
20
55.6846266681
30
0
10
134.989291945
20
55.6846266681
30
0
0
SPLINE
5
139
100
AcDbEntity
8
Layer_1
6
ByLayer
62
3
370
-1
100
AcDbSpline
210
0
220
0
230
1
70
8
71
3
72
8
73
4
74
0
42
1e-07
43
1e-07
40
0
40
0
40
0
40
0
40
1
40
1
40
1
40
1
10
134.989291945
20
55.6846266681
30
0
10
134.386036945
20
55.6846266681
30
0
10
133.863712445
20
55.9016166681
30
0
10
133.422249945
20
56.3356726681
30
0
0
SPLINE
5
13A
100
AcDbEntity
8
Layer_1
6
ByLayer
62
3
370
-1
100
AcDbSpline
210
0
220
0
230
1
70
8
71
3
72
8
73
4
74
0
42
1e-07
43
1e-07
40
0
40
0
40
0
40
0
40
1
40
1
40
1
40
1
10
133.422249945
20
56.3356726681
30
0
10
132.995503945
20
56.7586331681
30
0
10
132.782232445
20
57.2754661681
30
0
10
132.782232445
20
57.8860426681
30
0
0
SPLINE
5
13B
100
AcDbEntity
8
Layer_1
6
ByLayer
62
3
370
-1
100
AcDbSpline
210
0
220
0
230
1
70
8
71
3
72
8
73
4
74
0
42
1e-07
43
1e-07
40
0
40
0
40
0
40
0
40
1
40
1
40
1
40
1
10
132.782232445
20
57.8860426681
30
0
10
132.782232445
20
58.5040176681
30
0
10
132.995503945
20
59.0261966681
30
0
10
133.422249945
20
59.4528551681
30
0
0
SPLINE
5
13C
100
AcDbEntity
8
Layer_1
6
ByLayer
62
3
370
-1
100
AcDbSpline
210
0
220
0
230
1
70
8
71
3
72
8
73
4
74
0
42
1e-07
43
1e-07
40
0
40
0
40
0
40
0
40
1
40
1
40
1
40
1
10
133.709256945
20
56.6229191681
30
0
10
134.073563445
20
56.2621991681
30
0
10
134.500308945
20
56.0819086681
30
0
10
134.989837445
20
56.0819086681
30
0
0
SPLINE
5
13D
100
AcDbEntity
8
Layer_1
6
ByLayer
62
3
370
-1
100
AcDbSpline
210
0
220
0
230
1
70
8
71
3
72
8
73
4
74
0
42
1e-07
43
1e-07
40
0
40
0
40
0
40
0
40
1
40
1
40
1
40
1
10
134.989837445
20
56.0819086681
30
0
10
135.479231945
20
56.0819086681
30
0
10
135.902346945
20
56.2604206681
30
0
10
136.259197945
20
56.6173716681
30
0
0
SPLINE
5
13E
100
AcDbEntity
8
Layer_1
6
ByLayer
62
3
370
-1
100
AcDbSpline
210
0
220
0
230
1
70
8
71
3
72
8
73
4
74
0
42
1e-07
43
1e-07
40
0
40
0
40
0
40
0
40
1
40
1
40
1
40
1
10
136.259197945
20
56.6173716681
30
0
10
136.616174945
20
56.9743921681
30
0
10
136.794664445
20
57.3994041681
30
0
10
136.794664445
20
57.8925511681
30
0
0
SPLINE
5
13F
100
AcDbEntity
8
Layer_1
6
ByLayer
62
3
370
-1
100
AcDbSpline
210
0
220
0
230
1
70
8
71
3
72
8
73
4
74
0
42
1e-07
43
1e-07
40
0
40
0
40
0
40
0
40
1
40
1
40
1
40
1
10
136.794664445
20
57.8925511681
30
0
10
136.794664445
20
58.3856946681
30
0
10
136.614393945
20
58.8143416681
30
0
10
136.253781945
20
59.1786886681
30
0
0
SPLINE
5
140
100
AcDbEntity
8
Layer_1
6
ByLayer
62
3
370
-1
100
AcDbSpline
210
0
220
0
230
1
70
8
71
3
72
8
73
4
74
0
42
1e-07
43
1e-07
40
0
40
0
40
0
40
0
40
1
40
1
40
1
40
1
10
136.253781945
20
59.1786886681
30
0
10
135.918917445
20
59.5246146681
30
0
10
135.497715445
20
59.6976461681
30
0
10
134.989837445
20
59.6976461681
30
0
0
SPLINE
5
141
100
AcDbEntity
8
Layer_1
6
ByLayer
62
3
370
-1
100
AcDbSpline
210
0
220
0
230
1
70
8
71
3
72
8
73
4
74
0
42
1e-07
43
1e-07
40
0
40
0
40
0
40
0
40
1
40
1
40
1
40
1
10
134.989837445
20
59.6976461681
30
0
10
134.485793445
20
59.6976461681
30
0
10
134.058023445
20
59.5218051681
30
0
10
133.706515445
20
59.1703311681
30
0
0
SPLINE
5
142
100
AcDbEntity
8
Layer_1
6
ByLayer
62
3
370
-1
100
AcDbSpline
210
0
220
0
230
1
70
8
71
3
72
8
73
4
74
0
42
1e-07
43
1e-07
40
0
40
0
40
0
40
0
40
1
40
1
40
1
40
1
10
133.706515445
20
59.1703311681
30
0
10
133.355147945
20
58.8189281681
30
0
10
133.179401445
20
58.3930251681
30
0
10
133.179401445
20
57.8925511681
30
0
0
SPLINE
5
143
100
AcDbEntity
8
Layer_1
6
ByLayer
62
3
370
-1
100
AcDbSpline
210
0
220
0
230
1
70
8
71
3
72
8
73
4
74
0
42
1e-07
43
1e-07
40
0
40
0
40
0
40
0
40
1
40
1
40
1
40
1
10
133.179401445
20
57.8925511681
30
0
10
133.179401445
20
57.3920826681
30
0
10
133.356045445
20
56.9687781681
30
0
10
133.709256945
20
56.6229191681
30
0
0
LWPOLYLINE
5
144
100
AcDbEntity
8
Layer_1
6
ByLayer
62
3
370
-1
100
AcDbPolyline
90
2
70
0
43
0
10
133.422249945
20
59.4528551681
10
133.422249945
20
59.4528551681
0
SPLINE
5
145
100
AcDbEntity
8
Layer_1
6
ByLayer
62
3
370
-1
100
AcDbSpline
210
0
220
0
230
1
70
8
71
3
72
8
73
4
74
0
42
1e-07
43
1e-07
40
0
40
0
40
0
40
0
40
1
40
1
40
1
40
1
10
134.774510945
20
57.5721676681
30
0
10
134.654360445
20
57.5170426681
30
0
10
134.594311445
20
57.4345356681
30
0
10
134.594311445
20
57.3244961681
30
0
0
SPLINE
5
146
100
AcDbEntity
8
Layer_1
6
ByLayer
62
3
370
-1
100
AcDbSpline
210
0
220
0
230
1
70
8
71
3
72
8
73
4
74
0
42
1e-07
43
1e-07
40
0
40
0
40
0
40
0
40
1
40
1
40
1
40
1
10
134.594311445
20
57.3244961681
30
0
10
134.594311445
20
57.1299651681
30
0
10
134.725219445
20
57.0327351681
30
0
10
134.987028445
20
57.0327351681
30
0
0
SPLINE
5
147
100
AcDbEntity
8
Layer_1
6
ByLayer
62
3
370
-1
100
AcDbSpline
210
0
220
0
230
1
70
8
71
3
72
8
73
4
74
0
42
1e-07
43
1e-07
40
0
40
0
40
0
40
0
40
1
40
1
40
1
40
1
10
134.987028445
20
57.0327351681
30
0
10
135.248912445
20
57.0327351681
30
0
10
135.379820445
20
57.1299651681
30
0
10
135.379820445
20
57.3244961681
30
0
0
SPLINE
5
148
100
AcDbEntity
8
Layer_1
6
ByLayer
62
3
370
-1
100
AcDbSpline
210
0
220
0
230
1
70
8
71
3
72
8
73
4
74
0
42
1e-07
43
1e-07
40
0
40
0
40
0
40
0
40
1
40
1
40
1
40
1
10
135.379820445
20
57.3244961681
30
0
10
135.379820445
20
57.4529536681
30
0
10
135.316013945
20
57.5447106681
30
0
10
135.188251445
20
57.5997606681
30
0
0
LWPOLYLINE
5
149
100
AcDbEntity
8
Layer_1
6
ByLayer
62
3
370
-1
100
AcDbPolyline
90
2
70
0
43
0
10
133.709256945
20
56.6229191681
10
133.709256945
20
56.6229191681
0
SPLINE
5
14A
100
AcDbEntity
8
Layer_1
6
ByLayer
62
3
370
-1
100
AcDbSpline
210
0
220
0
230
1
70
8
71
3
72
8
73
4
74
0
42
1e-07
43
1e-07
40
0
40
0
40
0
40
0
40
1
40
1
40
1
40
1
10
135.331829445
20
57.8694066681
30
0
10
135.560162445
20
57.7408821681
30
0
10
135.674425445
20
57.5480661681
30
0
10
135.674425445
20
57.2909466681
30
0
0
SPLINE
5
14B
100
AcDbEntity
8
Layer_1
6
ByLayer
62
3
370
-1
100
AcDbSpline
210
0
220
0
230
1
70
8
71
3
72
8
73
4
74
0
42
1e-07
43
1e-07
40
0
40
0
40
0
40
0
40
1
40
1
40
1
40
1
10
135.674425445
20
57.2909466681
30
0
10
135.674425445
20
57.0926501681
30
0
10
135.613629945
20
56.9337911681
30
0
10
135.492104445
20
56.8145086681
30
0
0
SPLINE
5
14C
100
AcDbEntity
8
Layer_1
6
ByLayer
62
3
370
-1
100
AcDbSpline
210
0
220
0
230
1
70
8
71
3
72
8
73
4
74
0
42
1e-07
43
1e-07
40
0
40
0
40
0
40
0
40
1
40
1
40
1
40
1
10
135.492104445
20
56.8145086681
30
0
10
135.370512445
20
56.6950251681
30
0
10
135.202908945
20
56.6354506681
30
0
10
134.989292945
20
56.6354506681
30
0
0
SPLINE
5
14D
100
AcDbEntity
8
Layer_1
6
ByLayer
62
3
370
-1
100
AcDbSpline
210
0
220
0
230
1
70
8
71
3
72
8
73
4
74
0
42
1e-07
43
1e-07
40
0
40
0
40
0
40
0
40
1
40
1
40
1
40
1
10
134.989292945
20
56.6354506681
30
0
10
134.779307445
20
56.6354506681
30
0
10
134.612659945
20
56.6969371681
30
0
10
134.489215945
20
56.8199856681
30
0
0
SPLINE
5
14E
100
AcDbEntity
8
Layer_1
6
ByLayer
62
3
370
-1
100
AcDbSpline
210
0
220
0
230
1
70
8
71
3
72
8
73
4
74
0
42
1e-07
43
1e-07
40
0
40
0
40
0
40
0
40
1
40
1
40
1
40
1
10
134.489215945
20
56.8199856681
30
0
10
134.365845945
20
56.9430336681
30
0
10
134.304085945
20
57.0962771681
30
0
10
134.304085945
20
57.2799891681
30
0
0
SPLINE
5
14F
100
AcDbEntity
8
Layer_1
6
ByLayer
62
3
370
-1
100
AcDbSpline
210
0
220
0
230
1
70
8
71
3
72
8
73
4
74
0
42
1e-07
43
1e-07
40
0
40
0
40
0
40
0
40
1
40
1
40
1
40
1
10
134.304085945
20
57.2799891681
30
0
10
134.304085945
20
57.5517601681
30
0
10
134.411170445
20
57.7463621681
30
0
10
134.625121445
20
57.8639971681
30
0
0
LWPOLYLINE
5
150
100
AcDbEntity
8
Layer_1
6
ByLayer
62
3
370
-1
100
AcDbPolyline
90
2
70
0
43
0
10
135.188251445
20
57.5997606681
10
135.331829445
20
57.8694066681
0
SPLINE
5
151
100
AcDbEntity
8
Layer_1
6
ByLayer
62
3
370
-1
100
AcDbSpline
210
0
220
0
230
1
70
8
71
3
72
8
73
4
74
0
42
1e-07
43
1e-07
40
0
40
0
40
0
40
0
40
1
40
1
40
1
40
1
10
134.774510945
20
58.8407726681
30
0
10
134.654360445
20
58.7855806681
30
0
10
134.594311445
20
58.7047136681
30
0
10
134.594311445
20
58.5981031681
30
0
0
SPLINE
5
152
100
AcDbEntity
8
Layer_1
6
ByLayer
62
3
370
-1
100
AcDbSpline
210
0
220
0
230
1
70
8
71
3
72
8
73
4
74
0
42
1e-07
43
1e-07
40
0
40
0
40
0
40
0
40
1
40
1
40
1
40
1
10
134.594311445
20
58.5981031681
30
0
10
134.594311445
20
58.3996646681
30
0
10
134.725219445
20
58.3003791681
30
0
10
134.987028445
20
58.3003791681
30
0
0
SPLINE
5
153
100
AcDbEntity
8
Layer_1
6
ByLayer
62
3
370
-1
100
AcDbSpline
210
0
220
0
230
1
70
8
71
3
72
8
73
4
74
0
42
1e-07
43
1e-07
40
0
40
0
40
0
40
0
40
1
40
1
40
1
40
1
10
134.987028445
20
58.3003791681
30
0
10
135.248912445
20
58.3003791681
30
0
10
135.379820445
20
58.3996646681
30
0
10
135.379820445
20
58.5981031681
30
0
0
SPLINE
5
154
100
AcDbEntity
8
Layer_1
6
ByLayer
62
3
370
-1
100
AcDbSpline
210
0
220
0
230
1
70
8
71
3
72
8
73
4
74
0
42
1e-07
43
1e-07
40
0
40
0
40
0
40
0
40
1
40
1
40
1
40
1
10
135.379820445
20
58.5981031681
30
0
10
135.379820445
20
58.7267626681
30
0
10
135.316013945
20
58.8168756681
30
0
10
135.188251445
20
58.8682971681
30
0
0
LWPOLYLINE
5
155
100
AcDbEntity
8
Layer_1
6
ByLayer
62
3
370
-1
100
AcDbPolyline
90
3
70
0
43
0
10
134.625121445
20
57.8639971681
10
134.774510945
20
57.5721676681
10
134.774510945
20
57.5721676681
0
SPLINE
5
156
100
AcDbEntity
8
Layer_1
6
ByLayer
62
3
370
-1
100
AcDbSpline
210
0
220
0
230
1
70
8
71
3
72
8
73
4
74
0
42
1e-07
43
1e-07
40
0
40
0
40
0
40
0
40
1
40
1
40
1
40
1
10
135.331829445
20
59.1439721681
30
0
10
135.560162445
20
59.0156531681
30
0
10
135.674425445
20
58.8231051681
30
0
10
135.674425445
20
58.5664681681
30
0
0
SPLINE
5
157
100
AcDbEntity
8
Layer_1
6
ByLayer
62
3
370
-1
100
AcDbSpline
210
0
220
0
230
1
70
8
71
3
72
8
73
4
74
0
42
1e-07
43
1e-07
40
0
40
0
40
0
40
0
40
1
40
1
40
1
40
1
10
135.674425445
20
58.5664681681
30
0
10
135.674425445
20
58.3684396681
30
0
10
135.613629945
20
58.2099246681
30
0
10
135.492104445
20
58.0907141681
30
0
0
SPLINE
5
158
100
AcDbEntity
8
Layer_1
6
ByLayer
62
3
370
-1
100
AcDbSpline
210
0
220
0
230
1
70
8
71
3
72
8
73
4
74
0
42
1e-07
43
1e-07
40
0
40
0
40
0
40
0
40
1
40
1
40
1
40
1
10
135.492104445
20
58.0907141681
30
0
10
135.370512445
20
57.9717081681
30
0
10
135.202908945
20
57.9120676681
30
0
10
134.989292945
20
57.9120676681
30
0
0
SPLINE
5
159
100
AcDbEntity
8
Layer_1
6
ByLayer
62
3
370
-1
100
AcDbSpline
210
0
220
0
230
1
70
8
71
3
72
8
73
4
74
0
42
1e-07
43
1e-07
40
0
40
0
40
0
40
0
40
1
40
1
40
1
40
1
10
134.989292945
20
57.9120676681
30
0
10
134.779307445
20
57.9120676681
30
0
10
134.612659945
20
57.9725981681
30
0
10
134.489215945
20
58.0935911681
30
0
0
SPLINE
5
15A
100
AcDbEntity
8
Layer_1
6
ByLayer
62
3
370
-1
100
AcDbSpline
210
0
220
0
230
1
70
8
71
3
72
8
73
4
74
0
42
1e-07
43
1e-07
40
0
40
0
40
0
40
0
40
1
40
1
40
1
40
1
10
134.489215945
20
58.0935911681
30
0
10
134.365845945
20
58.2145126681
30
0
10
134.304085945
20
58.3684406681
30
0
10
134.304085945
20
58.5555121681
30
0
0
SPLINE
5
15B
100
AcDbEntity
8
Layer_1
6
ByLayer
62
3
370
-1
100
AcDbSpline
210
0
220
0
230
1
70
8
71
3
72
8
73
4
74
0
42
1e-07
43
1e-07
40
0
40
0
40
0
40
0
40
1
40
1
40
1
40
1
10
134.304085945
20
58.5555121681
30
0
10
134.304085945
20
58.8268021681
30
0
10
134.411170445
20
59.0211311681
30
0
10
134.625121445
20
59.1383581681
30
0
0
LWPOLYLINE
5
15C
100
AcDbEntity
8
Layer_1
6
ByLayer
62
3
370
-1
100
AcDbPolyline
90
2
70
0
43
0
10
135.188251445
20
58.8682971681
10
135.331829445
20
59.1439721681
0
LWPOLYLINE
5
15D
100
AcDbEntity
8
Layer_1
6
ByLayer
62
3
370
-1
100
AcDbPolyline
90
3
70
0
43
0
10
134.625121445
20
59.1383581681
10
134.774510945
20
58.8407726681
10
134.774510945
20
58.8407726681
0
SPLINE
5
15E
100
AcDbEntity
8
Layer_1
6
ByLayer
62
3
370
-1
100
AcDbSpline
210
0
220
0
230
1
70
8
71
3
72
8
73
4
74
0
42
1e-07
43
1e-07
40
0
40
0
40
0
40
0
40
1
40
1
40
1
40
1
10
132.226971445
20
55.2583821681
30
0
10
132.226971445
20
55.0835696681
30
0
10
132.369243945
20
54.9413506681
30
0
10
132.544036945
20
54.9413506681
30
0
0
LWPOLYLINE
5
15F
100
AcDbEntity
8
Layer_1
6
ByLayer
62
3
370
-1
100
AcDbPolyline
90
2
70
0
43
0
10
132.226971445
20
71.5576526681
10
132.226971445
20
55.2583821681
0
SPLINE
5
160
100
AcDbEntity
8
Layer_1
6
ByLayer
62
3
370
-1
100
AcDbSpline
210
0
220
0
230
1
70
8
71
3
72
8
73
4
74
0
42
1e-07
43
1e-07
40
0
40
0
40
0
40
0
40
1
40
1
40
1
40
1
10
138.082022945
20
54.9413506681
30
0
10
138.121528445
20
54.9413506681
30
0
10
138.153638445
20
54.9733971681
30
0
10
138.153638445
20
55.0129051681
30
0
0
LWPOLYLINE
5
161
100
AcDbEntity
8
Layer_1
6
ByLayer
62
3
370
-1
100
AcDbPolyline
90
2
70
0
43
0
10
132.544036945
20
54.9413506681
10
138.082022945
20
54.9413506681
0
SPLINE
5
162
100
AcDbEntity
8
Layer_1
6
ByLayer
62
3
370
-1
100
AcDbSpline
210
0
220
0
230
1
70
8
71
3
72
8
73
4
74
0
42
1e-07
43
1e-07
40
0
40
0
40
0
40
0
40
1
40
1
40
1
40
1
10
138.153638445
20
71.8030616681
30
0
10
138.153638445
20
71.8425716681
30
0
10
138.121528445
20
71.8746841681
30
0
10
138.082022945
20
71.8746841681
30
0
0
LWPOLYLINE
5
163
100
AcDbEntity
8
Layer_1
6
ByLayer
62
3
370
-1
100
AcDbPolyline
90
2
70
0
43
0
10
138.153638445
20
55.0129051681
10
138.153638445
20
71.8030616681
0
SPLINE
5
164
100
AcDbEntity
8
Layer_1
6
ByLayer
62
3
370
-1
100
AcDbSpline
210
0
220
0
230
1
70
8
71
3
72
8
73
4
74
0
42
1e-07
43
1e-07
40
0
40
0
40
0
40
0
40
1
40
1
40
1
40
1
10
132.544038445
20
71.8746841681
30
0
10
132.369243945
20
71.8746841681
30
0
10
132.226971445
20
71.7324651681
30
0
10
132.226971445
20
71.5576526681
30
0
0
LWPOLYLINE
5
165
100
AcDbEntity
8
Layer_1
6
ByLayer
62
3
370
-1
100
AcDbPolyline
90
2
70
0
43
0
10
138.082022945
20
71.8746841681
10
132.544038445
20
71.8746841681
0
LWPOLYLINE
5
166
100
AcDbEntity
8
Layer_1
6
ByLayer
62
3
370
-1
100
AcDbPolyline
90
2
70
0
43
0
10
132.226971445
20
71.5576526681
10
132.226971445
20
71.5576526681
0
SPLINE
5
167
100
AcDbEntity
8
Layer_1
6
ByLayer
62
3
370
-1
100
AcDbSpline
210
0
220
0
230
1
70
8
71
3
72
8
73
4
74
0
42
1e-07
43
1e-07
40
0
40
0
40
0
40
0
40
1
40
1
40
1
40
1
10
132.370201945
20
71.5576526681
30
0
10
132.370201945
20
71.6535151681
30
0
10
132.448184445
20
71.7314391681
30
0
10
132.544038445
20
71.7314391681
30
0
0
SPLINE
5
168
100
AcDbEntity
8
Layer_1
6
ByLayer
62
3
370
-1
100
AcDbSpline
210
0
220
0
230
1
70
8
71
3
72
8
73
4
74
0
42
1e-07
43
1e-07
40
0
40
0
40
0
40
0
40
1
40
1
40
1
40
1
10
132.544038445
20
71.7314391681
30
0
10
132.544038445
20
71.7314391681
30
0
10
134.776225445
20
71.7314391681
30
0
10
136.388593445
20
71.7314391681
30
0
0
LWPOLYLINE
5
169
100
AcDbEntity
8
Layer_1
6
ByLayer
62
3
370
-1
100
AcDbPolyline
90
2
70
0
43
0
10
132.370201945
20
55.2583821681
10
132.370201945
20
71.5576526681
0
SPLINE
5
16A
100
AcDbEntity
8
Layer_1
6
ByLayer
62
3
370
-1
100
AcDbSpline
210
0
220
0
230
1
70
8
71
3
72
8
73
4
74
0
42
1e-07
43
1e-07
40
0
40
0
40
0
40
0
40
1
40
1
40
1
40
1
10
136.388593445
20
60.0817166681
30
0
10
137.160544945
20
59.6547171681
30
0
10
137.684717445
20
58.8320776681
30
0
10
137.684717445
20
57.8879666681
30
0
0
SPLINE
5
16B
100
AcDbEntity
8
Layer_1
6
ByLayer
62
3
370
-1
100
AcDbSpline
210
0
220
0
230
1
70
8
71
3
72
8
73
4
74
0
42
1e-07
43
1e-07
40
0
40
0
40
0
40
0
40
1
40
1
40
1
40
1
10
137.684717445
20
57.8879666681
30
0
10
137.684717445
20
56.9434451681
30
0
10
137.161024445
20
56.1210101681
30
0
10
136.388593445
20
55.6942166681
30
0
0
LWPOLYLINE
5
16C
100
AcDbEntity
8
Layer_1
6
ByLayer
62
3
370
-1
100
AcDbPolyline
90
2
70
0
43
0
10
136.388593445
20
71.7314391681
10
136.388593445
20
60.0817166681
0
SPLINE
5
16D
100
AcDbEntity
8
Layer_1
6
ByLayer
62
3
370
-1
100
AcDbSpline
210
0
220
0
230
1
70
8
71
3
72
8
73
4
74
0
42
1e-07
43
1e-07
40
0
40
0
40
0
40
0
40
1
40
1
40
1
40
1
10
136.388593445
20
55.0844611681
30
0
10
134.776226945
20
55.0844611681
30
0
10
132.544038445
20
55.0844611681
30
0
10
132.544038445
20
55.0844611681
30
0
0
SPLINE
5
16E
100
AcDbEntity
8
Layer_1
6
ByLayer
62
3
370
-1
100
AcDbSpline
210
0
220
0
230
1
70
8
71
3
72
8
73
4
74
0
42
1e-07
43
1e-07
40
0
40
0
40
0
40
0
40
1
40
1
40
1
40
1
10
132.544038445
20
55.0844611681
30
0
10
132.448184445
20
55.0844586681
30
0
10
132.370201945
20
55.1625196681
30
0
10
132.370201945
20
55.2583821681
30
0
0
LWPOLYLINE
5
16F
100
AcDbEntity
8
Layer_1
6
ByLayer
62
3
370
-1
100
AcDbPolyline
90
2
70
0
43
0
10
136.388593445
20
55.6942166681
10
136.388593445
20
55.0844611681
0
LWPOLYLINE
5
170
100
AcDbEntity
8
Layer_1
6
ByLayer
62
3
370
-1
100
AcDbPolyline
90
2
70
0
43
0
10
132.370201945
20
55.2583821681
10
132.370201945
20
55.2583821681
0
SPLINE
5
171
100
AcDbEntity
8
Layer_1
6
ByLayer
62
3
370
-1
100
AcDbSpline
210
0
220
0
230
1
70
8
71
3
72
8
73
4
74
0
42
1e-07
43
1e-07
40
0
40
0
40
0
40
0
40
1
40
1
40
1
40
1
10
132.704797445
20
67.8872041681
30
0
10
132.704797445
20
67.4339081681
30
0
10
132.862951945
20
67.0503221681
30
0
10
133.179196945
20
66.7363041681
30
0
0
SPLINE
5
172
100
AcDbEntity
8
Layer_1
6
ByLayer
62
3
370
-1
100
AcDbSpline
210
0
220
0
230
1
70
8
71
3
72
8
73
4
74
0
42
1e-07
43
1e-07
40
0
40
0
40
0
40
0
40
1
40
1
40
1
40
1
10
133.179196945
20
66.7363041681
30
0
10
133.506465945
20
66.4140666681
30
0
10
133.893705945
20
66.2530166681
30
0
10
134.340922445
20
66.2530166681
30
0
0
SPLINE
5
173
100
AcDbEntity
8
Layer_1
6
ByLayer
62
3
370
-1
100
AcDbSpline
210
0
220
0
230
1
70
8
71
3
72
8
73
4
74
0
42
1e-07
43
1e-07
40
0
40
0
40
0
40
0
40
1
40
1
40
1
40
1
10
134.340922445
20
66.2530166681
30
0
10
134.788139445
20
66.2530166681
30
0
10
135.172715945
20
66.4140666681
30
0
10
135.494432445
20
66.7363041681
30
0
0
SPLINE
5
174
100
AcDbEntity
8
Layer_1
6
ByLayer
62
3
370
-1
100
AcDbSpline
210
0
220
0
230
1
70
8
71
3
72
8
73
4
74
0
42
1e-07
43
1e-07
40
0
40
0
40
0
40
0
40
1
40
1
40
1
40
1
10
135.494432445
20
66.7363041681
30
0
10
135.816224445
20
67.0584021681
30
0
10
135.977116945
20
67.4421251681
30
0
10
135.977116945
20
67.8872041681
30
0
0
SPLINE
5
175
100
AcDbEntity
8
Layer_1
6
ByLayer
62
3
370
-1
100
AcDbSpline
210
0
220
0
230
1
70
8
71
3
72
8
73
4
74
0
42
1e-07
43
1e-07
40
0
40
0
40
0
40
0
40
1
40
1
40
1
40
1
10
135.977116945
20
67.8872041681
30
0
10
135.977116945
20
68.3377586681
30
0
10
135.814854945
20
68.7281926681
30
0
10
135.490324445
20
69.0587826681
30
0
0
SPLINE
5
176
100
AcDbEntity
8
Layer_1
6
ByLayer
62
3
370
-1
100
AcDbSpline
210
0
220
0
230
1
70
8
71
3
72
8
73
4
74
0
42
1e-07
43
1e-07
40
0
40
0
40
0
40
0
40
1
40
1
40
1
40
1
10
135.490324445
20
69.0587826681
30
0
10
135.182231445
20
69.3699276681
30
0
10
134.799028945
20
69.5256336681
30
0
10
134.340922445
20
69.5256336681
30
0
0
SPLINE
5
177
100
AcDbEntity
8
Layer_1
6
ByLayer
62
3
370
-1
100
AcDbSpline
210
0
220
0
230
1
70
8
71
3
72
8
73
4
74
0
42
1e-07
43
1e-07
40
0
40
0
40
0
40
0
40
1
40
1
40
1
40
1
10
134.340922445
20
69.5256336681
30
0
10
133.882885445
20
69.5256336681
30
0
10
133.495506445
20
69.3671886681
30
0
10
133.179196945
20
69.0504291681
30
0
0
SPLINE
5
178
100
AcDbEntity
8
Layer_1
6
ByLayer
62
3
370
-1
100
AcDbSpline
210
0
220
0
230
1
70
8
71
3
72
8
73
4
74
0
42
1e-07
43
1e-07
40
0
40
0
40
0
40
0
40
1
40
1
40
1
40
1
10
133.179196945
20
69.0504291681
30
0
10
132.862951945
20
68.7336731681
30
0
10
132.704797445
20
68.3459751681
30
0
10
132.704797445
20
67.8872041681
30
0
0
SPLINE
5
179
100
AcDbEntity
8
Layer_1
6
ByLayer
62
3
370
-1
100
AcDbSpline
210
0
220
0
230
1
70
8
71
3
72
8
73
4
74
0
42
1e-07
43
1e-07
40
0
40
0
40
0
40
0
40
1
40
1
40
1
40
1
10
132.999267445
20
67.8913146681
30
0
10
132.999267445
20
68.2627131681
30
0
10
133.130104945
20
68.5781026681
30
0
10
133.391920445
20
68.8376176681
30
0
0
SPLINE
5
17A
100
AcDbEntity
8
Layer_1
6
ByLayer
62
3
370
-1
100
AcDbSpline
210
0
220
0
230
1
70
8
71
3
72
8
73
4
74
0
42
1e-07
43
1e-07
40
0
40
0
40
0
40
0
40
1
40
1
40
1
40
1
10
133.391920445
20
68.8376176681
30
0
10
133.650996945
20
69.0995956681
30
0
10
133.967305445
20
69.2306551681
30
0
10
134.340922445
20
69.2306551681
30
0
0
SPLINE
5
17B
100
AcDbEntity
8
Layer_1
6
ByLayer
62
3
370
-1
100
AcDbSpline
210
0
220
0
230
1
70
8
71
3
72
8
73
4
74
0
42
1e-07
43
1e-07
40
0
40
0
40
0
40
0
40
1
40
1
40
1
40
1
10
134.340922445
20
69.2306551681
30
0
10
134.717213445
20
69.2306551681
30
0
10
135.029484445
20
69.1024721681
30
0
10
135.277670945
20
68.8456961681
30
0
0
SPLINE
5
17C
100
AcDbEntity
8
Layer_1
6
ByLayer
62
3
370
-1
100
AcDbSpline
210
0
220
0
230
1
70
8
71
3
72
8
73
4
74
0
42
1e-07
43
1e-07
40
0
40
0
40
0
40
0
40
1
40
1
40
1
40
1
10
135.277670945
20
68.8456961681
30
0
10
135.544893945
20
68.5753646681
30
0
10
135.678470445
20
68.2572361681
30
0
10
135.678470445
20
67.8913156681
30
0
0
SPLINE
5
17D
100
AcDbEntity
8
Layer_1
6
ByLayer
62
3
370
-1
100
AcDbSpline
210
0
220
0
230
1
70
8
71
3
72
8
73
4
74
0
42
1e-07
43
1e-07
40
0
40
0
40
0
40
0
40
1
40
1
40
1
40
1
10
135.678470445
20
67.8913156681
30
0
10
135.678470445
20
67.5253921681
30
0
10
135.546193445
20
67.2100051681
30
0
10
135.281778945
20
66.9451491681
30
0
0
SPLINE
5
17E
100
AcDbEntity
8
Layer_1
6
ByLayer
62
3
370
-1
100
AcDbSpline
210
0
220
0
230
1
70
8
71
3
72
8
73
4
74
0
42
1e-07
43
1e-07
40
0
40
0
40
0
40
0
40
1
40
1
40
1
40
1
10
135.281778945
20
66.9451491681
30
0
10
135.017161445
20
66.6802961681
30
0
10
134.703655445
20
66.5478676681
30
0
10
134.340923445
20
66.5478676681
30
0
0
SPLINE
5
17F
100
AcDbEntity
8
Layer_1
6
ByLayer
62
3
370
-1
100
AcDbSpline
210
0
220
0
230
1
70
8
71
3
72
8
73
4
74
0
42
1e-07
43
1e-07
40
0
40
0
40
0
40
0
40
1
40
1
40
1
40
1
10
134.340923445
20
66.5478676681
30
0
10
133.978260945
20
66.5478676681
30
0
10
133.661882945
20
66.6816651681
30
0
10
133.391921445
20
66.9492571681
30
0
0
SPLINE
5
180
100
AcDbEntity
8
Layer_1
6
ByLayer
62
3
370
-1
100
AcDbSpline
210
0
220
0
230
1
70
8
71
3
72
8
73
4
74
0
42
1e-07
43
1e-07
40
0
40
0
40
0
40
0
40
1
40
1
40
1
40
1
10
133.391921445
20
66.9492571681
30
0
10
133.130104945
20
67.2058956681
30
0
10
132.999267445
20
67.5199136681
30
0
10
132.999267445
20
67.8913146681
30
0
0
LWPOLYLINE
5
181
100
AcDbEntity
8
Layer_1
6
ByLayer
62
3
370
-1
100
AcDbPolyline
90
2
70
0
43
0
10
132.704797445
20
67.8872041681
10
132.704797445
20
67.8872041681
0
SPLINE
5
182
100
AcDbEntity
8
Layer_1
6
ByLayer
62
3
370
-1
100
AcDbSpline
210
0
220
0
230
1
70
8
71
3
72
8
73
4
74
0
42
1e-07
43
1e-07
40
0
40
0
40
0
40
0
40
1
40
1
40
1
40
1
10
134.109986445
20
67.1619326681
30
0
10
133.698302445
20
67.2271206681
30
0
10
133.478255945
20
67.5170371681
30
0
10
133.478255945
20
67.8802206681
30
0
0
SPLINE
5
183
100
AcDbEntity
8
Layer_1
6
ByLayer
62
3
370
-1
100
AcDbSpline
210
0
220
0
230
1
70
8
71
3
72
8
73
4
74
0
42
1e-07
43
1e-07
40
0
40
0
40
0
40
0
40
1
40
1
40
1
40
1
10
133.478255945
20
67.8802206681
30
0
10
133.478255945
20
68.4026711681
30
0
10
133.857280445
20
68.7209356681
30
0
10
134.362698445
20
68.7209356681
30
0
0
SPLINE
5
184
100
AcDbEntity
8
Layer_1
6
ByLayer
62
3
370
-1
100
AcDbSpline
210
0
220
0
230
1
70
8
71
3
72
8
73
4
74
0
42
1e-07
43
1e-07
40
0
40
0
40
0
40
0
40
1
40
1
40
1
40
1
10
134.362698445
20
68.7209356681
30
0
10
134.855855945
20
68.7209356681
30
0
10
135.238988445
20
68.3822646681
30
0
10
135.238988445
20
67.8720036681
30
0
0
SPLINE
5
185
100
AcDbEntity
8
Layer_1
6
ByLayer
62
3
370
-1
100
AcDbSpline
210
0
220
0
230
1
70
8
71
3
72
8
73
4
74
0
42
1e-07
43
1e-07
40
0
40
0
40
0
40
0
40
1
40
1
40
1
40
1
10
135.238988445
20
67.8720036681
30
0
10
135.238988445
20
67.5210081681
30
0
10
135.022980945
20
67.2068521681
30
0
10
134.599176445
20
67.1496071681
30
0
0
LWPOLYLINE
5
186
100
AcDbEntity
8
Layer_1
6
ByLayer
62
3
370
-1
100
AcDbPolyline
90
2
70
0
43
0
10
132.999267445
20
67.8913146681
10
132.999267445
20
67.8913146681
0
SPLINE
5
187
100
AcDbEntity
8
Layer_1
6
ByLayer
62
3
370
-1
100
AcDbSpline
210
0
220
0
230
1
70
8
71
3
72
8
73
4
74
0
42
1e-07
43
1e-07
40
0
40
0
40
0
40
0
40
1
40
1
40
1
40
1
10
134.599176445
20
67.5618196681
30
0
10
134.819227945
20
67.5741441681
30
0
10
134.896662445
20
67.7169796681
30
0
10
134.896662445
20
67.9210291681
30
0
0
SPLINE
5
188
100
AcDbEntity
8
Layer_1
6
ByLayer
62
3
370
-1
100
AcDbSpline
210
0
220
0
230
1
70
8
71
3
72
8
73
4
74
0
42
1e-07
43
1e-07
40
0
40
0
40
0
40
0
40
1
40
1
40
1
40
1
10
134.896662445
20
67.9210291681
30
0
10
134.896662445
20
68.1535666681
30
0
10
134.680649945
20
68.3047546681
30
0
10
134.350438945
20
68.3047546681
30
0
0
SPLINE
5
189
100
AcDbEntity
8
Layer_1
6
ByLayer
62
3
370
-1
100
AcDbSpline
210
0
220
0
230
1
70
8
71
3
72
8
73
4
74
0
42
1e-07
43
1e-07
40
0
40
0
40
0
40
0
40
1
40
1
40
1
40
1
10
134.350438945
20
68.3047546681
30
0
10
134.004074945
20
68.3047546681
30
0
10
133.820651945
20
68.1741081681
30
0
10
133.820651945
20
67.9291091681
30
0
0
SPLINE
5
18A
100
AcDbEntity
8
Layer_1
6
ByLayer
62
3
370
-1
100
AcDbSpline
210
0
220
0
230
1
70
8
71
3
72
8
73
4
74
0
42
1e-07
43
1e-07
40
0
40
0
40
0
40
0
40
1
40
1
40
1
40
1
10
133.820651945
20
67.9291091681
30
0
10
133.820651945
20
67.7495711681
30
0
10
133.885902945
20
67.5945496681
30
0
10
134.109986445
20
67.5618196681
30
0
0
LWPOLYLINE
5
18B
100
AcDbEntity
8
Layer_1
6
ByLayer
62
3
370
-1
100
AcDbPolyline
90
2
70
0
43
0
10
134.599176445
20
67.1496071681
10
134.599176445
20
67.5618196681
0
SPLINE
5
18C
100
AcDbEntity
8
Layer_1
6
ByLayer
62
3
370
-1
100
AcDbSpline
210
0
220
0
230
1
70
8
71
3
72
8
73
4
74
0
42
1e-07
43
1e-07
40
0
40
0
40
0
40
0
40
1
40
1
40
1
40
1
10
133.935808445
20
64.3207001681
30
0
10
133.877407945
20
64.3207001681
30
0
10
133.830165945
20
64.2733166681
30
0
10
133.830165945
20
64.2149766681
30
0
0
LWPOLYLINE
5
18D
100
AcDbEntity
8
Layer_1
6
ByLayer
62
3
370
-1
100
AcDbPolyline
90
6
70
0
43
0
10
134.109986445
20
67.5618196681
10
134.109372945
20
67.6817831681
10
134.433764445
20
67.3572186681
10
134.109372945
20
67.0327911681
10
134.109986445
20
67.1619326681
10
134.109986445
20
67.1619326681
0
SPLINE
5
18E
100
AcDbEntity
8
Layer_1
6
ByLayer
62
3
370
-1
100
AcDbSpline
210
0
220
0
230
1
70
8
71
3
72
8
73
4
74
0
42
1e-07
43
1e-07
40
0
40
0
40
0
40
0
40
1
40
1
40
1
40
1
10
133.830165945
20
63.5457181681
30
0
10
133.830165945
20
63.4873781681
30
0
10
133.877406445
20
63.4399946681
30
0
10
133.935808445
20
63.4399946681
30
0
0
LWPOLYLINE
5
18F
100
AcDbEntity
8
Layer_1
6
ByLayer
62
3
370
-1
100
AcDbPolyline
90
2
70
0
43
0
10
133.830165945
20
64.2149766681
10
133.830165945
20
63.5457181681
0
SPLINE
5
190
100
AcDbEntity
8
Layer_1
6
ByLayer
62
3
370
-1
100
AcDbSpline
210
0
220
0
230
1
70
8
71
3
72
8
73
4
74
0
42
1e-07
43
1e-07
40
0
40
0
40
0
40
0
40
1
40
1
40
1
40
1
10
132.704794445
20
63.8782256681
30
0
10
132.704794445
20
63.4250681681
30
0
10
132.862881945
20
63.0412756681
30
0
10
133.179261945
20
62.7272561681
30
0
0
SPLINE
5
191
100
AcDbEntity
8
Layer_1
6
ByLayer
62
3
370
-1
100
AcDbSpline
210
0
220
0
230
1
70
8
71
3
72
8
73
4
74
0
42
1e-07
43
1e-07
40
0
40
0
40
0
40
0
40
1
40
1
40
1
40
1
10
133.179261945
20
62.7272561681
30
0
10
133.506391945
20
62.4050206681
30
0
10
133.893701445
20
62.2439711681
30
0
10
134.340851445
20
62.2439711681
30
0
0
SPLINE
5
192
100
AcDbEntity
8
Layer_1
6
ByLayer
62
3
370
-1
100
AcDbSpline
210
0
220
0
230
1
70
8
71
3
72
8
73
4
74
0
42
1e-07
43
1e-07
40
0
40
0
40
0
40
0
40
1
40
1
40
1
40
1
10
134.340851445
20
62.2439711681
30
0
10
134.788001945
20
62.2439711681
30
0
10
135.172641945
20
62.4050206681
30
0
10
135.494430445
20
62.7272561681
30
0
0
SPLINE
5
193
100
AcDbEntity
8
Layer_1
6
ByLayer
62
3
370
-1
100
AcDbSpline
210
0
220
0
230
1
70
8
71
3
72
8
73
4
74
0
42
1e-07
43
1e-07
40
0
40
0
40
0
40
0
40
1
40
1
40
1
40
1
10
135.494430445
20
62.7272561681
30
0
10
135.816150445
20
63.0494921681
30
0
10
135.977044445
20
63.4332171681
30
0
10
135.977044445
20
63.8782256681
30
0
0
SPLINE
5
194
100
AcDbEntity
8
Layer_1
6
ByLayer
62
3
370
-1
100
AcDbSpline
210
0
220
0
230
1
70
8
71
3
72
8
73
4
74
0
42
1e-07
43
1e-07
40
0
40
0
40
0
40
0
40
1
40
1
40
1
40
1
10
135.977044445
20
63.8782256681
30
0
10
135.977044445
20
64.3287806681
30
0
10
135.814848945
20
64.7193531681
30
0
10
135.490253445
20
65.0496691681
30
0
0
SPLINE
5
195
100
AcDbEntity
8
Layer_1
6
ByLayer
62
3
370
-1
100
AcDbSpline
210
0
220
0
230
1
70
8
71
3
72
8
73
4
74
0
42
1e-07
43
1e-07
40
0
40
0
40
0
40
0
40
1
40
1
40
1
40
1
10
135.490253445
20
65.0496691681
30
0
10
135.182225445
20
65.3610856681
30
0
10
134.799022945
20
65.5166576681
30
0
10
134.340850445
20
65.5166576681
30
0
0
SPLINE
5
196
100
AcDbEntity
8
Layer_1
6
ByLayer
62
3
370
-1
100
AcDbSpline
210
0
220
0
230
1
70
8
71
3
72
8
73
4
74
0
42
1e-07
43
1e-07
40
0
40
0
40
0
40
0
40
1
40
1
40
1
40
1
10
134.340850445
20
65.5166576681
30
0
10
133.882677445
20
65.5166576681
30
0
10
133.495503945
20
65.3583466681
30
0
10
133.179260945
20
65.0415886681
30
0
0
SPLINE
5
197
100
AcDbEntity
8
Layer_1
6
ByLayer
62
3
370
-1
100
AcDbSpline
210
0
220
0
230
1
70
8
71
3
72
8
73
4
74
0
42
1e-07
43
1e-07
40
0
40
0
40
0
40
0
40
1
40
1
40
1
40
1
10
133.179260945
20
65.0415886681
30
0
10
132.862881945
20
64.7248306681
30
0
10
132.704794445
20
64.3369966681
30
0
10
132.704794445
20
63.8782256681
30
0
0
LWPOLYLINE
5
198
100
AcDbEntity
8
Layer_1
6
ByLayer
62
3
370
-1
100
AcDbPolyline
90
10
70
0
43
0
10
133.935808445
20
63.4399946681
10
134.605061445
20
63.4399946681
10
134.605061445
20
63.6266521681
10
135.397619945
20
63.6266521681
10
135.397619945
20
64.1339036681
10
134.605061445
20
64.1339036681
10
134.605061445
20
64.3206986681
10
133.935808445
20
64.3206986681
10
133.935808445
20
64.3207001681
10
133.935808445
20
64.3207001681
0
SPLINE
5
199
100
AcDbEntity
8
Layer_1
6
ByLayer
62
3
370
-1
100
AcDbSpline
210
0
220
0
230
1
70
8
71
3
72
8
73
4
74
0
42
1e-07
43
1e-07
40
0
40
0
40
0
40
0
40
1
40
1
40
1
40
1
10
132.999197445
20
63.8823346681
30
0
10
132.999197445
20
64.2537346681
30
0
10
133.130103445
20
64.5691226681
30
0
10
133.391916445
20
64.8284996681
30
0
0
SPLINE
5
19A
100
AcDbEntity
8
Layer_1
6
ByLayer
62
3
370
-1
100
AcDbSpline
210
0
220
0
230
1
70
8
71
3
72
8
73
4
74
0
42
1e-07
43
1e-07
40
0
40
0
40
0
40
0
40
1
40
1
40
1
40
1
10
133.391916445
20
64.8284996681
30
0
10
133.650922445
20
65.0907531681
30
0
10
133.967302945
20
65.2218111681
30
0
10
134.340851445
20
65.2218111681
30
0
0
SPLINE
5
19B
100
AcDbEntity
8
Layer_1
6
ByLayer
62
3
370
-1
100
AcDbSpline
210
0
220
0
230
1
70
8
71
3
72
8
73
4
74
0
42
1e-07
43
1e-07
40
0
40
0
40
0
40
0
40
1
40
1
40
1
40
1
10
134.340851445
20
65.2218111681
30
0
10
134.717138445
20
65.2218111681
30
0
10
135.029479445
20
65.0934921681
30
0
10
135.277598945
20
64.8367171681
30
0
0
SPLINE
5
19C
100
AcDbEntity
8
Layer_1
6
ByLayer
62
3
370
-1
100
AcDbSpline
210
0
220
0
230
1
70
8
71
3
72
8
73
4
74
0
42
1e-07
43
1e-07
40
0
40
0
40
0
40
0
40
1
40
1
40
1
40
1
10
135.277598945
20
64.8367171681
30
0
10
135.544820445
20
64.5663851681
30
0
10
135.678397445
20
64.2482571681
30
0
10
135.678397445
20
63.8823356681
30
0
0
SPLINE
5
19D
100
AcDbEntity
8
Layer_1
6
ByLayer
62
3
370
-1
100
AcDbSpline
210
0
220
0
230
1
70
8
71
3
72
8
73
4
74
0
42
1e-07
43
1e-07
40
0
40
0
40
0
40
0
40
1
40
1
40
1
40
1
10
135.678397445
20
63.8823356681
30
0
10
135.678397445
20
63.5164146681
30
0
10
135.546190445
20
63.2010256681
30
0
10
135.281638945
20
62.9362391681
30
0
0
SPLINE
5
19E
100
AcDbEntity
8
Layer_1
6
ByLayer
62
3
370
-1
100
AcDbSpline
210
0
220
0
230
1
70
8
71
3
72
8
73
4
74
0
42
1e-07
43
1e-07
40
0
40
0
40
0
40
0
40
1
40
1
40
1
40
1
10
135.281638945
20
62.9362391681
30
0
10
135.017155445
20
62.6712471681
30
0
10
134.703582445
20
62.5388876681
30
0
10
134.340851445
20
62.5388876681
30
0
0
SPLINE
5
19F
100
AcDbEntity
8
Layer_1
6
ByLayer
62
3
370
-1
100
AcDbSpline
210
0
220
0
230
1
70
8
71
3
72
8
73
4
74
0
42
1e-07
43
1e-07
40
0
40
0
40
0
40
0
40
1
40
1
40
1
40
1
10
134.340851445
20
62.5388876681
30
0
10
133.978187945
20
62.5388876681
30
0
10
133.661876445
20
62.6726846681
30
0
10
133.391916445
20
62.9402781681
30
0
0
SPLINE
5
1A0
100
AcDbEntity
8
Layer_1
6
ByLayer
62
3
370
-1
100
AcDbSpline
210
0
220
0
230
1
70
8
71
3
72
8
73
4
74
0
42
1e-07
43
1e-07
40
0
40
0
40
0
40
0
40
1
40
1
40
1
40
1
10
133.391916445
20
62.9402781681
30
0
10
133.130103445
20
63.1969851681
30
0
10
132.999197445
20
63.5110716681
30
0
10
132.999197445
20
63.8823346681
30
0
0
LWPOLYLINE
5
1A1
100
AcDbEntity
8
Layer_1
6
ByLayer
62
3
370
-1
100
AcDbPolyline
90
2
70
0
43
0
10
132.704794445
20
63.8782256681
10
132.704794445
20
63.8782256681
0
LWPOLYLINE
5
1A2
100
AcDbEntity
8
Layer_1
6
ByLayer
62
3
370
-1
100
AcDbPolyline
90
2
70
0
43
0
10
132.999197445
20
63.8823346681
10
132.999197445
20
63.8823346681
0
TEXT
5
1A3
100
AcDbEntity
8
0
6
ByLayer
62
256
370
-1
100
AcDbText
10
137.799206181
20
63.1313418213
30
0
40
1
1
BY
50
90
41
1
51
0
7
opengosttypea-regular
71
0
210
0
220
0
230
1
100
AcDbText
0
TEXT
5
1A4
100
AcDbEntity
8
0
6
ByLayer
62
256
370
-1
100
AcDbText
10
137.769140421
20
67.1902193488
30
0
40
1
1
SA
50
90
41
1
51
0
7
opengosttypea-regular
71
0
210
0
220
0
230
1
100
AcDbText
0
LINE
5
1A5
100
AcDbEntity
8
Layer_1
6
ByLayer
62
1
370
-1
100
AcDbLine
10
107.100207643
20
64.5774188367
11
107.100207643
21
67.576110837
0
LINE
5
1A6
100
AcDbEntity
8
Layer_1
6
ByLayer
62
1
370
-1
100
AcDbLine
10
116.091424643
20
64.5774188367
11
107.100207643
21
64.5774188367
0
LINE
5
1A7
100
AcDbEntity
8
Layer_1
6
ByLayer
62
1
370
-1
100
AcDbLine
10
107.100207643
20
67.576110837
11
116.091424643
21
67.576110837
0
LINE
5
1A8
100
AcDbEntity
8
Layer_1
6
ByLayer
62
1
370
-1
100
AcDbLine
10
116.091424643
20
67.576110837
11
116.091424643
21
64.5774188367
0
LINE
5
1A9
100
AcDbEntity
8
Layer_1
6
ByLayer
62
1
370
-1
100
AcDbLine
10
35.4794038044
20
64.5774188367
11
35.4794038044
21
67.576110837
0
LINE
5
1AA
100
AcDbEntity
8
Layer_1
6
ByLayer
62
1
370
-1
100
AcDbLine
10
44.4706208044
20
64.5774188367
11
35.4794038044
21
64.5774188367
0
LINE
5
1AB
100
AcDbEntity
8
Layer_1
6
ByLayer
62
1
370
-1
100
AcDbLine
10
35.4794038044
20
67.576110837
11
44.4706208044
21
67.576110837
0
LINE
5
1AC
100
AcDbEntity
8
Layer_1
6
ByLayer
62
1
370
-1
100
AcDbLine
10
44.4706208044
20
67.576110837
11
44.4706208044
21
64.5774188367
0
LINE
5
1AD
100
AcDbEntity
8
Layer_1
6
ByLayer
62
1
370
-1
100
AcDbLine
10
116.091424643
20
110.194967611
11
116.091424643
21
107.196275611
0
LINE
5
1AE
100
AcDbEntity
8
Layer_1
6
ByLayer
62
1
370
-1
100
AcDbLine
10
107.100207643
20
107.196275611
11
116.091424643
21
107.196275611
0
LINE
5
1AF
100
AcDbEntity
8
Layer_1
6
ByLayer
62
1
370
-1
100
AcDbLine
10
107.100207643
20
107.196275611
11
107.100207643
21
110.194967611
0
LINE
5
1B0
100
AcDbEntity
8
Layer_1
6
ByLayer
62
1
370
-1
100
AcDbLine
10
82.100207643
20
127.694967611
11
107.100207643
21
127.694967611
0
LINE
5
1B1
100
AcDbEntity
8
Layer_1
6
ByLayer
62
1
370
-1
100
AcDbLine
10
141.091424643
20
127.694967611
11
116.091424643
21
127.694967611
0
LINE
5
1B2
100
AcDbEntity
8
Layer_1
6
ByLayer
62
1
370
-1
100
AcDbLine
10
116.091424643
20
127.694967611
11
116.091424643
21
130.693659611
0
LINE
5
1B3
100
AcDbEntity
8
Layer_1
6
ByLayer
62
1
370
-1
100
AcDbLine
10
107.100207643
20
130.693659611
11
116.091424643
21
130.693659611
0
LINE
5
1B4
100
AcDbEntity
8
Layer_1
6
ByLayer
62
1
370
-1
100
AcDbLine
10
107.100207643
20
130.693659611
11
107.100207643
21
127.694967611
0
LINE
5
1B5
100
AcDbEntity
8
Layer_1
6
ByLayer
62
1
370
-1
100
AcDbLine
10
83.600207643
20
110.194967611
11
107.100207643
21
110.194967611
0
LINE
5
1B6
100
AcDbEntity
8
Layer_1
6
ByLayer
62
1
370
-1
100
AcDbLine
10
83.600207643
20
110.194967611
11
83.600207643
21
111.694967611
0
LINE
5
1B7
100
AcDbEntity
8
Layer_1
6
ByLayer
62
1
370
-1
100
AcDbLine
10
82.100207643
20
111.694967611
11
82.100207643
21
127.694967611
0
LINE
5
1B8
100
AcDbEntity
8
Layer_1
6
ByLayer
62
1
370
-1
100
AcDbLine
10
82.100207643
20
111.694967611
11
83.600207643
21
111.694967611
0
LINE
5
1B9
100
AcDbEntity
8
Layer_1
6
ByLayer
62
1
370
-1
100
AcDbLine
10
139.591424643
20
110.194967611
11
116.091424643
21
110.194967611
0
LINE
5
1BA
100
AcDbEntity
8
Layer_1
6
ByLayer
62
1
370
-1
100
AcDbLine
10
139.591424643
20
110.194967611
11
139.591424643
21
111.694967611
0
LINE
5
1BB
100
AcDbEntity
8
Layer_1
6
ByLayer
62
1
370
-1
100
AcDbLine
10
141.091424643
20
111.694967611
11
141.091424643
21
127.694967611
0
LINE
5
1BC
100
AcDbEntity
8
Layer_1
6
ByLayer
62
1
370
-1
100
AcDbLine
10
141.091424643
20
111.694967611
11
139.591424643
21
111.694967611
0
SPLINE
5
1BD
100
AcDbEntity
8
Layer_1
6
ByLayer
62
1
370
-1
100
AcDbSpline
210
0
220
0
230
1
70
8
71
3
72
8
73
4
74
0
42
1e-07
43
1e-07
40
0
40
0
40
0
40
0
40
1
40
1
40
1
40
1
10
11.051691
20
135.015099921
30
0
10
10.644916
20
135.015099921
30
0
10
10.257634
20
135.094804921
30
0
10
9.905163
20
135.244405921
30
0
0
SPLINE
5
1BE
100
AcDbEntity
8
Layer_1
6
ByLayer
62
1
370
-1
100
AcDbSpline
210
0
220
0
230
1
70
8
71
3
72
8
73
4
74
0
42
1e-07
43
1e-07
40
0
40
0
40
0
40
0
40
1
40
1
40
1
40
1
10
9.905163
20
135.244405921
30
0
10
9.552692
20
135.394005921
30
0
10
9.236876
20
135.611909921
30
0
10
8.970302
20
135.879405921
30
0
0
SPLINE
5
1BF
100
AcDbEntity
8
Layer_1
6
ByLayer
62
1
370
-1
100
AcDbSpline
210
0
220
0
230
1
70
8
71
3
72
8
73
4
74
0
42
1e-07
43
1e-07
40
0
40
0
40
0
40
0
40
1
40
1
40
1
40
1
10
8.970302
20
135.879405921
30
0
10
8.703728
20
136.146901921
30
0
10
8.484386
20
136.469396921
30
0
10
8.335302
20
136.823085921
30
0
0
SPLINE
5
1C0
100
AcDbEntity
8
Layer_1
6
ByLayer
62
1
370
-1
100
AcDbSpline
210
0
220
0
230
1
70
8
71
3
72
8
73
4
74
0
42
1e-07
43
1e-07
40
0
40
0
40
0
40
0
40
1
40
1
40
1
40
1
10
8.335302
20
136.823085921
30
0
10
8.186218
20
137.176775921
30
0
10
8.105997
20
137.561435921
30
0
10
8.105997
20
137.969613921
30
0
0
SPLINE
5
1C1
100
AcDbEntity
8
Layer_1
6
ByLayer
62
1
370
-1
100
AcDbSpline
210
0
220
0
230
1
70
8
71
3
72
8
73
4
74
0
42
1e-07
43
1e-07
40
0
40
0
40
0
40
0
40
1
40
1
40
1
40
1
10
83.052708
20
135.014332921
30
0
10
82.922398
20
135.014332921
30
0
10
82.795206
20
135.037135921
30
0
10
82.682292
20
135.084887921
30
0
0
SPLINE
5
1C2
100
AcDbEntity
8
Layer_1
6
ByLayer
62
1
370
-1
100
AcDbSpline
210
0
220
0
230
1
70
8
71
3
72
8
73
4
74
0
42
1e-07
43
1e-07
40
0
40
0
40
0
40
0
40
1
40
1
40
1
40
1
10
82.682292
20
135.084887921
30
0
10
82.569377
20
135.132645921
30
0
10
82.467828
20
135.202337921
30
0
10
82.382431
20
135.287734921
30
0
0
SPLINE
5
1C3
100
AcDbEntity
8
Layer_1
6
ByLayer
62
1
370
-1
100
AcDbSpline
210
0
220
0
230
1
70
8
71
3
72
8
73
4
74
0
42
1e-07
43
1e-07
40
0
40
0
40
0
40
0
40
1
40
1
40
1
40
1
10
82.382431
20
135.287734921
30
0
10
82.297033
20
135.373132921
30
0
10
82.227341
20
135.474681921
30
0
10
82.179583
20
135.587595921
30
0
0
SPLINE
5
1C4
100
AcDbEntity
8
Layer_1
6
ByLayer
62
1
370
-1
100
AcDbSpline
210
0
220
0
230
1
70
8
71
3
72
8
73
4
74
0
42
1e-07
43
1e-07
40
0
40
0
40
0
40
0
40
1
40
1
40
1
40
1
10
82.179583
20
135.587595921
30
0
10
82.131826
20
135.700510921
30
0
10
82.109028
20
135.827702921
30
0
10
82.109028
20
135.958012921
30
0
0
SPLINE
5
1C5
100
AcDbEntity
8
Layer_1
6
ByLayer
62
1
370
-1
100
AcDbSpline
210
0
220
0
230
1
70
8
71
3
72
8
73
4
74
0
42
1e-07
43
1e-07
40
0
40
0
40
0
40
0
40
1
40
1
40
1
40
1
10
79.110417
20
136.010929921
30
0
10
78.30082
20
136.010929921
30
0
10
77.646389
20
136.681791921
30
0
10
77.646389
20
137.501415921
30
0
0
SPLINE
5
1C6
100
AcDbEntity
8
Layer_1
6
ByLayer
62
1
370
-1
100
AcDbSpline
210
0
220
0
230
1
70
8
71
3
72
8
73
4
74
0
42
1e-07
43
1e-07
40
0
40
0
40
0
40
0
40
1
40
1
40
1
40
1
10
77.646389
20
137.501415921
30
0
10
77.646389
20
138.321039921
30
0
10
78.30082
20
138.983082921
30
0
10
79.110417
20
138.983082921
30
0
0
LWPOLYLINE
5
1C7
100
AcDbEntity
8
Layer_1
6
ByLayer
62
1
370
-1
100
AcDbPolyline
90
4
70
0
43
0
10
82.109028
20
135.958012921
10
82.109028
20
137.016345921
10
79.110417
20
137.016345921
10
79.110417
20
136.010929921
0
LWPOLYLINE
5
1C8
100
AcDbEntity
8
Layer_1
6
ByLayer
62
1
370
-1
100
AcDbPolyline
90
6
70
0
43
0
10
97.331389
20
137.016345921
10
107.332639
20
137.016345921
10
107.332639
20
140.014957921
10
97.331389
20
140.014957921
10
97.331389
20
137.016345921
10
97.331389
20
137.016345921
0
LINE
5
1C9
100
AcDbEntity
8
Layer_1
6
ByLayer
62
1
370
-1
100
AcDbLine
10
11.051691
20
135.015099921
11
11.051691
21
135.015099921
0
SPLINE
5
1CA
100
AcDbEntity
8
Layer_1
6
ByLayer
62
1
370
-1
100
AcDbSpline
210
0
220
0
230
1
70
8
71
3
72
8
73
4
74
0
42
1e-07
43
1e-07
40
0
40
0
40
0
40
0
40
1
40
1
40
1
40
1
10
73.105937
20
137.969613921
30
0
10
73.105937
20
137.561427921
30
0
10
73.025718
20
137.176780921
30
0
10
72.876631
20
136.823085921
30
0
0
SPLINE
5
1CB
100
AcDbEntity
8
Layer_1
6
ByLayer
62
1
370
-1
100
AcDbSpline
210
0
220
0
230
1
70
8
71
3
72
8
73
4
74
0
42
1e-07
43
1e-07
40
0
40
0
40
0
40
0
40
1
40
1
40
1
40
1
10
72.876631
20
136.823085921
30
0
10
72.727547
20
136.469390921
30
0
10
72.508204
20
136.146903921
30
0
10
72.241631
20
135.879405921
30
0
0
SPLINE
5
1CC
100
AcDbEntity
8
Layer_1
6
ByLayer
62
1
370
-1
100
AcDbSpline
210
0
220
0
230
1
70
8
71
3
72
8
73
4
74
0
42
1e-07
43
1e-07
40
0
40
0
40
0
40
0
40
1
40
1
40
1
40
1
10
72.241631
20
135.879405921
30
0
10
71.975061
20
135.611906921
30
0
10
71.659243
20
135.394005921
30
0
10
71.30677
20
135.244405921
30
0
0
SPLINE
5
1CD
100
AcDbEntity
8
Layer_1
6
ByLayer
62
1
370
-1
100
AcDbSpline
210
0
220
0
230
1
70
8
71
3
72
8
73
4
74
0
42
1e-07
43
1e-07
40
0
40
0
40
0
40
0
40
1
40
1
40
1
40
1
10
71.30677
20
135.244405921
30
0
10
70.9543
20
135.094804921
30
0
10
70.567018
20
135.015099921
30
0
10
70.160242
20
135.015099921
30
0
0
LINE
5
1CE
100
AcDbEntity
8
Layer_1
6
ByLayer
62
1
370
-1
100
AcDbLine
10
70.160242
20
135.015099921
11
11.051691
21
135.015099921
0
LINE
5
1CF
100
AcDbEntity
8
Layer_1
6
ByLayer
62
1
370
-1
100
AcDbLine
10
83.052708
20
135.014317921
11
83.052708
21
135.014332921
0
LINE
5
1D0
100
AcDbEntity
8
Layer_1
6
ByLayer
62
1
370
-1
100
AcDbLine
10
134.080189146
20
135.014317921
11
83.052708
21
135.014317921
0
SPLINE
5
1D1
100
AcDbEntity
8
Layer_1
6
ByLayer
62
1
370
-1
100
AcDbSpline
210
0
220
0
230
1
70
8
71
3
72
8
73
4
74
0
42
1e-07
43
1e-07
40
0
40
0
40
0
40
0
40
1
40
1
40
1
40
1
10
144.107675
20
138.983067921
30
0
10
144.917272
20
138.983067921
30
0
10
145.571703
20
138.312205921
30
0
10
145.571703
20
137.492581921
30
0
0
SPLINE
5
1D2
100
AcDbEntity
8
Layer_1
6
ByLayer
62
1
370
-1
100
AcDbSpline
210
0
220
0
230
1
70
8
71
3
72
8
73
4
74
0
42
1e-07
43
1e-07
40
0
40
0
40
0
40
0
40
1
40
1
40
1
40
1
10
145.571703
20
137.492581921
30
0
10
145.571703
20
136.672957921
30
0
10
144.917272
20
136.010915921
30
0
10
144.107675
20
136.010915921
30
0
0
SPLINE
5
1D3
100
AcDbEntity
8
Layer_1
6
ByLayer
62
1
370
-1
100
AcDbSpline
210
0
220
0
230
1
70
8
71
3
72
8
73
4
74
0
42
1e-07
43
1e-07
40
0
40
0
40
0
40
0
40
1
40
1
40
1
40
1
10
141.109064
20
135.957998921
30
0
10
141.109064
20
135.827687921
30
0
10
141.077447
20
135.700496921
30
0
10
141.029689
20
135.587581921
30
0
0
SPLINE
5
1D4
100
AcDbEntity
8
Layer_1
6
ByLayer
62
1
370
-1
100
AcDbSpline
210
0
220
0
230
1
70
8
71
3
72
8
73
4
74
0
42
1e-07
43
1e-07
40
0
40
0
40
0
40
0
40
1
40
1
40
1
40
1
10
141.029689
20
135.587581921
30
0
10
140.981931
20
135.474667921
30
0
10
140.912239
20
135.373118921
30
0
10
140.826842
20
135.287720921
30
0
0
SPLINE
5
1D5
100
AcDbEntity
8
Layer_1
6
ByLayer
62
1
370
-1
100
AcDbSpline
210
0
220
0
230
1
70
8
71
3
72
8
73
4
74
0
42
1e-07
43
1e-07
40
0
40
0
40
0
40
0
40
1
40
1
40
1
40
1
10
140.826842
20
135.287720921
30
0
10
140.741444
20
135.202323921
30
0
10
140.639895
20
135.132631921
30
0
10
140.526981
20
135.084873921
30
0
0
SPLINE
5
1D6
100
AcDbEntity
8
Layer_1
6
ByLayer
62
1
370
-1
100
AcDbSpline
210
0
220
0
230
1
70
8
71
3
72
8
73
4
74
0
42
1e-07
43
1e-07
40
0
40
0
40
0
40
0
40
1
40
1
40
1
40
1
10
140.526981
20
135.084873921
30
0
10
140.414066
20
135.037115921
30
0
10
140.295694
20
135.014317921
30
0
10
140.165383
20
135.014317921
30
0
0
LWPOLYLINE
5
1D7
100
AcDbEntity
8
Layer_1
6
ByLayer
62
1
370
-1
100
AcDbPolyline
90
4
70
0
43
0
10
144.107675
20
136.010915921
10
144.107675
20
137.007512921
10
141.109064
20
137.007512921
10
141.109064
20
135.957998921
0
LWPOLYLINE
5
1D8
100
AcDbEntity
8
Layer_1
6
ByLayer
62
1
370
-1
100
AcDbPolyline
90
6
70
0
43
0
10
115.876633
20
137.016345921
10
125.877883
20
137.016345921
10
125.877883
20
140.014957921
10
115.876633
20
140.014957921
10
115.876633
20
137.016345921
10
115.876633
20
137.016345921
0
LINE
5
1D9
100
AcDbEntity
8
Layer_1
6
ByLayer
62
1
370
-1
100
AcDbLine
10
134.080189146
20
135.014317921
11
140.165383
21
135.014317921
0
LINE
5
1DA
100
AcDbEntity
8
Layer_1
6
ByLayer
62
1
370
-1
100
AcDbLine
10
13.107532
20
137.018953921
11
10.107532
21
137.018953921
0
LINE
5
1DB
100
AcDbEntity
8
Layer_1
6
ByLayer
62
1
370
-1
100
AcDbLine
10
71.10751
20
137.017849921
11
68.10751
21
137.017849921
0
SPLINE
5
1DC
100
AcDbEntity
8
Layer_1
6
ByLayer
62
1
370
-1
100
AcDbSpline
210
0
220
0
230
1
70
8
71
3
72
8
73
4
74
0
42
1e-07
43
1e-07
40
0
40
0
40
0
40
0
40
1
40
1
40
1
40
1
10
79.110417
20
144.073915921
30
0
10
79.110417
20
144.204225921
30
0
10
79.13322
20
144.322598921
30
0
10
79.180972
20
144.435512921
30
0
0
SPLINE
5
1DD
100
AcDbEntity
8
Layer_1
6
ByLayer
62
1
370
-1
100
AcDbSpline
210
0
220
0
230
1
70
8
71
3
72
8
73
4
74
0
42
1e-07
43
1e-07
40
0
40
0
40
0
40
0
40
1
40
1
40
1
40
1
10
79.180972
20
144.435512921
30
0
10
79.22873
20
144.548426921
30
0
10
79.298422
20
144.649976921
30
0
10
79.383819
20
144.735373921
30
0
0
SPLINE
5
1DE
100
AcDbEntity
8
Layer_1
6
ByLayer
62
1
370
-1
100
AcDbSpline
210
0
220
0
230
1
70
8
71
3
72
8
73
4
74
0
42
1e-07
43
1e-07
40
0
40
0
40
0
40
0
40
1
40
1
40
1
40
1
10
79.383819
20
144.735373921
30
0
10
79.469217
20
144.820771921
30
0
10
79.570766
20
144.890463921
30
0
10
79.683681
20
144.938220921
30
0
0
SPLINE
5
1DF
100
AcDbEntity
8
Layer_1
6
ByLayer
62
1
370
-1
100
AcDbSpline
210
0
220
0
230
1
70
8
71
3
72
8
73
4
74
0
42
1e-07
43
1e-07
40
0
40
0
40
0
40
0
40
1
40
1
40
1
40
1
10
79.683681
20
144.938220921
30
0
10
79.796595
20
144.985978921
30
0
10
79.923787
20
145.017595921
30
0
10
80.054097
20
145.017595921
30
0
0
SPLINE
5
1E0
100
AcDbEntity
8
Layer_1
6
ByLayer
62
1
370
-1
100
AcDbSpline
210
0
220
0
230
1
70
8
71
3
72
8
73
4
74
0
42
1e-07
43
1e-07
40
0
40
0
40
0
40
0
40
1
40
1
40
1
40
1
10
143.163994
20
145.008762921
30
0
10
143.294305
20
145.008762921
30
0
10
143.412677
20
144.985958921
30
0
10
143.525592
20
144.938206921
30
0
0
SPLINE
5
1E1
100
AcDbEntity
8
Layer_1
6
ByLayer
62
1
370
-1
100
AcDbSpline
210
0
220
0
230
1
70
8
71
3
72
8
73
4
74
0
42
1e-07
43
1e-07
40
0
40
0
40
0
40
0
40
1
40
1
40
1
40
1
10
143.525592
20
144.938206921
30
0
10
143.638506
20
144.890449921
30
0
10
143.740055
20
144.820757921
30
0
10
143.825453
20
144.735359921
30
0
0
SPLINE
5
1E2
100
AcDbEntity
8
Layer_1
6
ByLayer
62
1
370
-1
100
AcDbSpline
210
0
220
0
230
1
70
8
71
3
72
8
73
4
74
0
42
1e-07
43
1e-07
40
0
40
0
40
0
40
0
40
1
40
1
40
1
40
1
10
143.825453
20
144.735359921
30
0
10
143.91085
20
144.649961921
30
0
10
143.980542
20
144.548412921
30
0
10
144.0283
20
144.435498921
30
0
0
SPLINE
5
1E3
100
AcDbEntity
8
Layer_1
6
ByLayer
62
1
370
-1
100
AcDbSpline
210
0
220
0
230
1
70
8
71
3
72
8
73
4
74
0
42
1e-07
43
1e-07
40
0
40
0
40
0
40
0
40
1
40
1
40
1
40
1
10
144.0283
20
144.435498921
30
0
10
144.076058
20
144.322584921
30
0
10
144.107675
20
144.195392921
30
0
10
144.107675
20
144.065081921
30
0
0
LINE
5
1E4
100
AcDbEntity
8
Layer_1
6
ByLayer
62
1
370
-1
100
AcDbLine
10
10.107532
20
145.018953921
11
13.107532
21
145.018953921
0
LINE
5
1E5
100
AcDbEntity
8
Layer_1
6
ByLayer
62
1
370
-1
100
AcDbLine
10
80.054097
20
145.017595921
11
82.109028
21
145.017595921
0
LINE
5
1E6
100
AcDbEntity
8
Layer_1
6
ByLayer
62
1
370
-1
100
AcDbLine
10
68.10751
20
145.017849921
11
71.10751
21
145.017849921
0
LINE
5
1E7
100
AcDbEntity
8
Layer_1
6
ByLayer
62
1
370
-1
100
AcDbLine
10
141.109064
20
145.008762921
11
143.163994
21
145.008762921
0
SPLINE
5
1E8
100
AcDbEntity
8
Layer_1
6
ByLayer
62
1
370
-1
100
AcDbSpline
210
0
220
0
230
1
70
8
71
3
72
8
73
4
74
0
42
1e-07
43
1e-07
40
0
40
0
40
0
40
0
40
1
40
1
40
1
40
1
10
8.105997
20
162.516371921
30
0
10
8.105997
20
164.156534921
30
0
10
9.446597
20
165.488538921
30
0
10
11.095788
20
165.488538921
30
0
0
SPLINE
5
1E9
100
AcDbEntity
8
Layer_1
6
ByLayer
62
1
370
-1
100
AcDbSpline
210
0
220
0
230
1
70
8
71
3
72
8
73
4
74
0
42
1e-07
43
1e-07
40
0
40
0
40
0
40
0
40
1
40
1
40
1
40
1
10
11.095788
20
165.488538921
30
0
10
12.076849
20
165.488538921
30
0
10
12.915496
20
164.995355921
30
0
10
13.485859
20
164.289094921
30
0
0
SPLINE
5
1EA
100
AcDbEntity
8
Layer_1
6
ByLayer
62
1
370
-1
100
AcDbSpline
210
0
220
0
230
1
70
8
71
3
72
8
73
4
74
0
42
1e-07
43
1e-07
40
0
40
0
40
0
40
0
40
1
40
1
40
1
40
1
10
13.485859
20
164.289094921
30
0
10
14.268179
20
163.320366921
30
0
10
15.376943
20
162.516371921
30
0
10
19.218498
20
162.516371921
30
0
0
SPLINE
5
1EB
100
AcDbEntity
8
Layer_1
6
ByLayer
62
1
370
-1
100
AcDbSpline
210
0
220
0
230
1
70
8
71
3
72
8
73
4
74
0
42
1e-07
43
1e-07
40
0
40
0
40
0
40
0
40
1
40
1
40
1
40
1
10
79.110417
20
157.506168921
30
0
10
79.110417
20
157.506168921
30
0
10
81.000236
20
157.474192921
30
0
10
82.585278
20
157.682557921
30
0
0
SPLINE
5
1EC
100
AcDbEntity
8
Layer_1
6
ByLayer
62
1
370
-1
100
AcDbSpline
210
0
220
0
230
1
70
8
71
3
72
8
73
4
74
0
42
1e-07
43
1e-07
40
0
40
0
40
0
40
0
40
1
40
1
40
1
40
1
10
82.585278
20
157.682557921
30
0
10
84.17032
20
157.890921921
30
0
10
87.680583
20
158.993747921
30
0
10
89.446806
20
159.225959921
30
0
0
SPLINE
5
1ED
100
AcDbEntity
8
Layer_1
6
ByLayer
62
1
370
-1
100
AcDbSpline
210
0
220
0
230
1
70
8
71
3
72
8
73
4
74
0
42
1e-07
43
1e-07
40
0
40
0
40
0
40
0
40
1
40
1
40
1
40
1
10
89.446806
20
159.225959921
30
0
10
91.213028
20
159.458087921
30
0
10
94.077014
20
159.472904921
30
0
10
94.077014
20
159.472904921
30
0
0
SPLINE
5
1EE
100
AcDbEntity
8
Layer_1
6
ByLayer
62
1
370
-1
100
AcDbSpline
210
0
220
0
230
1
70
8
71
3
72
8
73
4
74
0
42
1e-07
43
1e-07
40
0
40
0
40
0
40
0
40
1
40
1
40
1
40
1
10
94.077014
20
159.472904921
30
0
10
94.352209
20
159.472904921
30
0
10
94.570903
20
159.707868921
30
0
10
94.570903
20
159.993251921
30
0
0
SPLINE
5
1EF
100
AcDbEntity
8
Layer_1
6
ByLayer
62
1
370
-1
100
AcDbSpline
210
0
220
0
230
1
70
8
71
3
72
8
73
4
74
0
42
1e-07
43
1e-07
40
0
40
0
40
0
40
0
40
1
40
1
40
1
40
1
10
94.570903
20
159.993251921
30
0
10
94.570903
20
160.278634921
30
0
10
94.352209
20
160.504779921
30
0
10
94.077014
20
160.504779921
30
0
0
SPLINE
5
1F0
100
AcDbEntity
8
Layer_1
6
ByLayer
62
1
370
-1
100
AcDbSpline
210
0
220
0
230
1
70
8
71
3
72
8
73
4
74
0
42
1e-07
43
1e-07
40
0
40
0
40
0
40
0
40
1
40
1
40
1
40
1
10
94.077014
20
160.504779921
30
0
10
94.077014
20
160.504779921
30
0
10
91.184154
20
160.490893921
30
0
10
89.411528
20
160.257834921
30
0
0
SPLINE
5
1F1
100
AcDbEntity
8
Layer_1
6
ByLayer
62
1
370
-1
100
AcDbSpline
210
0
220
0
230
1
70
8
71
3
72
8
73
4
74
0
42
1e-07
43
1e-07
40
0
40
0
40
0
40
0
40
1
40
1
40
1
40
1
10
89.411528
20
160.257834921
30
0
10
87.638898
20
160.024803921
30
0
10
84.129395
20
158.922062921
30
0
10
82.55
20
158.714432921
30
0
0
SPLINE
5
1F2
100
AcDbEntity
8
Layer_1
6
ByLayer
62
1
370
-1
100
AcDbSpline
210
0
220
0
230
1
70
8
71
3
72
8
73
4
74
0
42
1e-07
43
1e-07
40
0
40
0
40
0
40
0
40
1
40
1
40
1
40
1
10
82.55
20
158.714432921
30
0
10
80.970603
20
158.506801921
30
0
10
79.110417
20
158.538043921
30
0
10
79.110417
20
158.538043921
30
0
0
SPLINE
5
1F3
100
AcDbEntity
8
Layer_1
6
ByLayer
62
1
370
-1
100
AcDbSpline
210
0
220
0
230
1
70
8
71
3
72
8
73
4
74
0
42
1e-07
43
1e-07
40
0
40
0
40
0
40
0
40
1
40
1
40
1
40
1
10
79.110417
20
158.538043921
30
0
10
78.30082
20
158.538043921
30
0
10
77.646389
20
159.208905921
30
0
10
77.646389
20
160.028529921
30
0
0
SPLINE
5
1F4
100
AcDbEntity
8
Layer_1
6
ByLayer
62
1
370
-1
100
AcDbSpline
210
0
220
0
230
1
70
8
71
3
72
8
73
4
74
0
42
1e-07
43
1e-07
40
0
40
0
40
0
40
0
40
1
40
1
40
1
40
1
10
77.646389
20
160.028529921
30
0
10
77.646389
20
160.848153921
30
0
10
78.30082
20
161.510195921
30
0
10
79.110417
20
161.510195921
30
0
0
SPLINE
5
1F5
100
AcDbEntity
8
Layer_1
6
ByLayer
62
1
370
-1
100
AcDbSpline
210
0
220
0
230
1
70
8
71
3
72
8
73
4
74
0
42
1e-07
43
1e-07
40
0
40
0
40
0
40
0
40
1
40
1
40
1
40
1
10
82.109028
20
161.571932921
30
0
10
82.109028
20
161.702242921
30
0
10
82.131831
20
161.829437921
30
0
10
82.179583
20
161.942348921
30
0
0
SPLINE
5
1F6
100
AcDbEntity
8
Layer_1
6
ByLayer
62
1
370
-1
100
AcDbSpline
210
0
220
0
230
1
70
8
71
3
72
8
73
4
74
0
42
1e-07
43
1e-07
40
0
40
0
40
0
40
0
40
1
40
1
40
1
40
1
10
82.179583
20
161.942348921
30
0
10
82.227341
20
162.055260921
30
0
10
82.297033
20
162.156814921
30
0
10
82.382431
20
162.242209921
30
0
0
SPLINE
5
1F7
100
AcDbEntity
8
Layer_1
6
ByLayer
62
1
370
-1
100
AcDbSpline
210
0
220
0
230
1
70
8
71
3
72
8
73
4
74
0
42
1e-07
43
1e-07
40
0
40
0
40
0
40
0
40
1
40
1
40
1
40
1
10
82.382431
20
162.242209921
30
0
10
82.467828
20
162.327604921
30
0
10
82.569377
20
162.388479921
30
0
10
82.682292
20
162.436237921
30
0
0
SPLINE
5
1F8
100
AcDbEntity
8
Layer_1
6
ByLayer
62
1
370
-1
100
AcDbSpline
210
0
220
0
230
1
70
8
71
3
72
8
73
4
74
0
42
1e-07
43
1e-07
40
0
40
0
40
0
40
0
40
1
40
1
40
1
40
1
10
82.682292
20
162.436237921
30
0
10
82.795206
20
162.483995921
30
0
10
82.922398
20
162.515612921
30
0
10
83.052708
20
162.515612921
30
0
0
SPLINE
5
1F9
100
AcDbEntity
8
Layer_1
6
ByLayer
62
1
370
-1
100
AcDbSpline
210
0
220
0
230
1
70
8
71
3
72
8
73
4
74
0
42
1e-07
43
1e-07
40
0
40
0
40
0
40
0
40
1
40
1
40
1
40
1
10
83.052708
20
162.515612921
30
0
10
83.416419
20
162.515612921
30
0
10
83.694414
20
162.083459921
30
0
10
84.058125
20
162.083459921
30
0
0
SPLINE
5
1FA
100
AcDbEntity
8
Layer_1
6
ByLayer
62
1
370
-1
100
AcDbSpline
210
0
220
0
230
1
70
8
71
3
72
8
73
4
74
0
42
1e-07
43
1e-07
40
0
40
0
40
0
40
0
40
1
40
1
40
1
40
1
10
84.058125
20
162.083459921
30
0
10
84.421836
20
162.083459921
30
0
10
84.691011
20
162.515612921
30
0
10
85.054722
20
162.515612921
30
0
0
SPLINE
5
1FB
100
AcDbEntity
8
Layer_1
6
ByLayer
62
1
370
-1
100
AcDbSpline
210
0
220
0
230
1
70
8
71
3
72
8
73
4
74
0
42
1e-07
43
1e-07
40
0
40
0
40
0
40
0
40
1
40
1
40
1
40
1
10
85.054722
20
162.515612921
30
0
10
85.418433
20
162.515612921
30
0
10
85.696428
20
162.083459921
30
0
10
86.060139
20
162.083459921
30
0
0
SPLINE
5
1FC
100
AcDbEntity
8
Layer_1
6
ByLayer
62
1
370
-1
100
AcDbSpline
210
0
220
0
230
1
70
8
71
3
72
8
73
4
74
0
42
1e-07
43
1e-07
40
0
40
0
40
0
40
0
40
1
40
1
40
1
40
1
10
86.060139
20
162.083459921
30
0
10
86.42385
20
162.083459921
30
0
10
86.693025
20
162.515612921
30
0
10
87.056736
20
162.515612921
30
0
0
SPLINE
5
1FD
100
AcDbEntity
8
Layer_1
6
ByLayer
62
1
370
-1
100
AcDbSpline
210
0
220
0
230
1
70
8
71
3
72
8
73
4
74
0
42
1e-07
43
1e-07
40
0
40
0
40
0
40
0
40
1
40
1
40
1
40
1
10
87.056736
20
162.515612921
30
0
10
87.420447
20
162.515612921
30
0
10
87.698442
20
162.083459921
30
0
10
88.062153
20
162.083459921
30
0
0
SPLINE
5
1FE
100
AcDbEntity
8
Layer_1
6
ByLayer
62
1
370
-1
100
AcDbSpline
210
0
220
0
230
1
70
8
71
3
72
8
73
4
74
0
42
1e-07
43
1e-07
40
0
40
0
40
0
40
0
40
1
40
1
40
1
40
1
10
88.062153
20
162.083459921
30
0
10
88.425861
20
162.083459921
30
0
10
88.703856
20
162.515612921
30
0
10
89.067569
20
162.515612921
30
0
0
SPLINE
5
1FF
100
AcDbEntity
8
Layer_1
6
ByLayer
62
1
370
-1
100
AcDbSpline
210
0
220
0
230
1
70
8
71
3
72
8
73
4
74
0
42
1e-07
43
1e-07
40
0
40
0
40
0
40
0
40
1
40
1
40
1
40
1
10
89.067569
20
162.515612921
30
0
10
89.431281
20
162.515612921
30
0
10
89.700456
20
162.083459921
30
0
10
90.064167
20
162.083459921
30
0
0
SPLINE
5
200
100
AcDbEntity
8
Layer_1
6
ByLayer
62
1
370
-1
100
AcDbSpline
210
0
220
0
230
1
70
8
71
3
72
8
73
4
74
0
42
1e-07
43
1e-07
40
0
40
0
40
0
40
0
40
1
40
1
40
1
40
1
10
90.064167
20
162.083459921
30
0
10
90.427878
20
162.083459921
30
0
10
90.705872
20
162.515612921
30
0
10
91.069583
20
162.515612921
30
0
0
LWPOLYLINE
5
201
100
AcDbEntity
8
Layer_1
6
ByLayer
62
1
370
-1
100
AcDbPolyline
90
4
70
0
43
0
10
79.110417
20
161.510195921
10
79.110417
20
160.504779921
10
82.109028
20
160.504779921
10
82.109028
20
161.571932921
0
LWPOLYLINE
5
202
100
AcDbEntity
8
Layer_1
6
ByLayer
62
1
370
-1
100
AcDbPolyline
90
6
70
0
43
0
10
97.331389
20
157.514987921
10
107.332639
20
157.514987921
10
107.332639
20
160.513598921
10
97.331389
20
160.513598921
10
97.331389
20
157.514987921
10
97.331389
20
157.514987921
0
SPLINE
5
203
100
AcDbEntity
8
Layer_1
6
ByLayer
62
1
370
-1
100
AcDbSpline
210
0
220
0
230
1
70
8
71
3
72
8
73
4
74
0
42
1e-07
43
1e-07
40
0
40
0
40
0
40
0
40
1
40
1
40
1
40
1
10
62.002256
20
162.516371921
30
0
10
65.843812
20
162.516371921
30
0
10
66.943753
20
163.320366921
30
0
10
67.726076
20
164.289094921
30
0
0
SPLINE
5
204
100
AcDbEntity
8
Layer_1
6
ByLayer
62
1
370
-1
100
AcDbSpline
210
0
220
0
230
1
70
8
71
3
72
8
73
4
74
0
42
1e-07
43
1e-07
40
0
40
0
40
0
40
0
40
1
40
1
40
1
40
1
10
67.726076
20
164.289094921
30
0
10
68.296436
20
164.995383921
30
0
10
69.143904
20
165.479705921
30
0
10
70.124965
20
165.479705921
30
0
0
SPLINE
5
205
100
AcDbEntity
8
Layer_1
6
ByLayer
62
1
370
-1
100
AcDbSpline
210
0
220
0
230
1
70
8
71
3
72
8
73
4
74
0
42
1e-07
43
1e-07
40
0
40
0
40
0
40
0
40
1
40
1
40
1
40
1
10
70.124965
20
165.479705921
30
0
10
71.774156
20
165.479705921
30
0
10
73.105937
20
164.156506921
30
0
10
73.105937
20
162.516371921
30
0
0
LINE
5
206
100
AcDbEntity
8
Layer_1
6
ByLayer
62
1
370
-1
100
AcDbLine
10
19.218498
20
162.516371921
11
62.002256
21
162.516371921
0
SPLINE
5
207
100
AcDbEntity
8
Layer_1
6
ByLayer
62
1
370
-1
100
AcDbSpline
210
0
220
0
230
1
70
8
71
3
72
8
73
4
74
0
42
1e-07
43
1e-07
40
0
40
0
40
0
40
0
40
1
40
1
40
1
40
1
10
132.148508
20
162.515612921
30
0
10
132.512219
20
162.515612921
30
0
10
132.781394
20
162.083459921
30
0
10
133.145106
20
162.083459921
30
0
0
SPLINE
5
208
100
AcDbEntity
8
Layer_1
6
ByLayer
62
1
370
-1
100
AcDbSpline
210
0
220
0
230
1
70
8
71
3
72
8
73
4
74
0
42
1e-07
43
1e-07
40
0
40
0
40
0
40
0
40
1
40
1
40
1
40
1
10
133.145106
20
162.083459921
30
0
10
133.508817
20
162.083459921
30
0
10
133.786811
20
162.515612921
30
0
10
134.150522
20
162.515612921
30
0
0
SPLINE
5
209
100
AcDbEntity
8
Layer_1
6
ByLayer
62
1
370
-1
100
AcDbSpline
210
0
220
0
230
1
70
8
71
3
72
8
73
4
74
0
42
1e-07
43
1e-07
40
0
40
0
40
0
40
0
40
1
40
1
40
1
40
1
10
134.150522
20
162.515612921
30
0
10
134.514233
20
162.515612921
30
0
10
134.792228
20
162.083459921
30
0
10
135.155939
20
162.083459921
30
0
0
SPLINE
5
20A
100
AcDbEntity
8
Layer_1
6
ByLayer
62
1
370
-1
100
AcDbSpline
210
0
220
0
230
1
70
8
71
3
72
8
73
4
74
0
42
1e-07
43
1e-07
40
0
40
0
40
0
40
0
40
1
40
1
40
1
40
1
10
135.155939
20
162.083459921
30
0
10
135.51965
20
162.083459921
30
0
10
135.788825
20
162.515612921
30
0
10
136.152536
20
162.515612921
30
0
0
SPLINE
5
20B
100
AcDbEntity
8
Layer_1
6
ByLayer
62
1
370
-1
100
AcDbSpline
210
0
220
0
230
1
70
8
71
3
72
8
73
4
74
0
42
1e-07
43
1e-07
40
0
40
0
40
0
40
0
40
1
40
1
40
1
40
1
10
136.152536
20
162.515612921
30
0
10
136.516247
20
162.515612921
30
0
10
136.794242
20
162.083459921
30
0
10
137.157953
20
162.083459921
30
0
0
SPLINE
5
20C
100
AcDbEntity
8
Layer_1
6
ByLayer
62
1
370
-1
100
AcDbSpline
210
0
220
0
230
1
70
8
71
3
72
8
73
4
74
0
42
1e-07
43
1e-07
40
0
40
0
40
0
40
0
40
1
40
1
40
1
40
1
10
137.157953
20
162.083459921
30
0
10
137.521664
20
162.083459921
30
0
10
137.790839
20
162.515612921
30
0
10
138.15455
20
162.515612921
30
0
0
SPLINE
5
20D
100
AcDbEntity
8
Layer_1
6
ByLayer
62
1
370
-1
100
AcDbSpline
210
0
220
0
230
1
70
8
71
3
72
8
73
4
74
0
42
1e-07
43
1e-07
40
0
40
0
40
0
40
0
40
1
40
1
40
1
40
1
10
138.15455
20
162.515612921
30
0
10
138.518261
20
162.515612921
30
0
10
138.796256
20
162.083459921
30
0
10
139.159967
20
162.083459921
30
0
0
SPLINE
5
20E
100
AcDbEntity
8
Layer_1
6
ByLayer
62
1
370
-1
100
AcDbSpline
210
0
220
0
230
1
70
8
71
3
72
8
73
4
74
0
42
1e-07
43
1e-07
40
0
40
0
40
0
40
0
40
1
40
1
40
1
40
1
10
139.159967
20
162.083459921
30
0
10
139.523678
20
162.083459921
30
0
10
139.801672
20
162.515612921
30
0
10
140.165383
20
162.515612921
30
0
0
SPLINE
5
20F
100
AcDbEntity
8
Layer_1
6
ByLayer
62
1
370
-1
100
AcDbSpline
210
0
220
0
230
1
70
8
71
3
72
8
73
4
74
0
42
1e-07
43
1e-07
40
0
40
0
40
0
40
0
40
1
40
1
40
1
40
1
10
140.165383
20
162.515612921
30
0
10
140.295694
20
162.515612921
30
0
10
140.414066
20
162.483995921
30
0
10
140.526981
20
162.436237921
30
0
0
SPLINE
5
210
100
AcDbEntity
8
Layer_1
6
ByLayer
62
1
370
-1
100
AcDbSpline
210
0
220
0
230
1
70
8
71
3
72
8
73
4
74
0
42
1e-07
43
1e-07
40
0
40
0
40
0
40
0
40
1
40
1
40
1
40
1
10
140.526981
20
162.436237921
30
0
10
140.639895
20
162.388479921
30
0
10
140.741444
20
162.327604921
30
0
10
140.826842
20
162.242209921
30
0
0
SPLINE
5
211
100
AcDbEntity
8
Layer_1
6
ByLayer
62
1
370
-1
100
AcDbSpline
210
0
220
0
230
1
70
8
71
3
72
8
73
4
74
0
42
1e-07
43
1e-07
40
0
40
0
40
0
40
0
40
1
40
1
40
1
40
1
10
140.826842
20
162.242209921
30
0
10
140.912239
20
162.156814921
30
0
10
140.981931
20
162.055260921
30
0
10
141.029689
20
161.942348921
30
0
0
SPLINE
5
212
100
AcDbEntity
8
Layer_1
6
ByLayer
62
1
370
-1
100
AcDbSpline
210
0
220
0
230
1
70
8
71
3
72
8
73
4
74
0
42
1e-07
43
1e-07
40
0
40
0
40
0
40
0
40
1
40
1
40
1
40
1
10
141.029689
20
161.942348921
30
0
10
141.077447
20
161.829437921
30
0
10
141.109064
20
161.702242921
30
0
10
141.109064
20
161.571932921
30
0
0
SPLINE
5
213
100
AcDbEntity
8
Layer_1
6
ByLayer
62
1
370
-1
100
AcDbSpline
210
0
220
0
230
1
70
8
71
3
72
8
73
4
74
0
42
1e-07
43
1e-07
40
0
40
0
40
0
40
0
40
1
40
1
40
1
40
1
10
144.107675
20
161.501376921
30
0
10
144.917272
20
161.501376921
30
0
10
145.571703
20
160.839333921
30
0
10
145.571703
20
160.019709921
30
0
0
SPLINE
5
214
100
AcDbEntity
8
Layer_1
6
ByLayer
62
1
370
-1
100
AcDbSpline
210
0
220
0
230
1
70
8
71
3
72
8
73
4
74
0
42
1e-07
43
1e-07
40
0
40
0
40
0
40
0
40
1
40
1
40
1
40
1
10
145.571703
20
160.019709921
30
0
10
145.571703
20
159.200085921
30
0
10
144.917272
20
158.538043921
30
0
10
144.107675
20
158.538043921
30
0
0
SPLINE
5
215
100
AcDbEntity
8
Layer_1
6
ByLayer
62
1
370
-1
100
AcDbSpline
210
0
220
0
230
1
70
8
71
3
72
8
73
4
74
0
42
1e-07
43
1e-07
40
0
40
0
40
0
40
0
40
1
40
1
40
1
40
1
10
144.107675
20
158.538043921
30
0
10
144.107675
20
158.538043921
30
0
10
142.247489
20
158.497981921
30
0
10
140.668092
20
158.705612921
30
0
0
SPLINE
5
216
100
AcDbEntity
8
Layer_1
6
ByLayer
62
1
370
-1
100
AcDbSpline
210
0
220
0
230
1
70
8
71
3
72
8
73
4
74
0
42
1e-07
43
1e-07
40
0
40
0
40
0
40
0
40
1
40
1
40
1
40
1
10
140.668092
20
158.705612921
30
0
10
139.088697
20
158.913243921
30
0
10
135.570374
20
160.015984921
30
0
10
133.797744
20
160.249015921
30
0
0
SPLINE
5
217
100
AcDbEntity
8
Layer_1
6
ByLayer
62
1
370
-1
100
AcDbSpline
210
0
220
0
230
1
70
8
71
3
72
8
73
4
74
0
42
1e-07
43
1e-07
40
0
40
0
40
0
40
0
40
1
40
1
40
1
40
1
10
133.797744
20
160.249015921
30
0
10
132.025118
20
160.482074921
30
0
10
129.141078
20
160.504779921
30
0
10
129.141078
20
160.504779921
30
0
0
SPLINE
5
218
100
AcDbEntity
8
Layer_1
6
ByLayer
62
1
370
-1
100
AcDbSpline
210
0
220
0
230
1
70
8
71
3
72
8
73
4
74
0
42
1e-07
43
1e-07
40
0
40
0
40
0
40
0
40
1
40
1
40
1
40
1
10
129.141078
20
160.504779921
30
0
10
128.865883
20
160.504779921
30
0
10
128.638369
20
160.269815921
30
0
10
128.638369
20
159.984432921
30
0
0
SPLINE
5
219
100
AcDbEntity
8
Layer_1
6
ByLayer
62
1
370
-1
100
AcDbSpline
210
0
220
0
230
1
70
8
71
3
72
8
73
4
74
0
42
1e-07
43
1e-07
40
0
40
0
40
0
40
0
40
1
40
1
40
1
40
1
10
128.638369
20
159.984432921
30
0
10
128.638369
20
159.699048921
30
0
10
128.865883
20
159.472904921
30
0
10
129.141078
20
159.472904921
30
0
0
SPLINE
5
21A
100
AcDbEntity
8
Layer_1
6
ByLayer
62
1
370
-1
100
AcDbSpline
210
0
220
0
230
1
70
8
71
3
72
8
73
4
74
0
42
1e-07
43
1e-07
40
0
40
0
40
0
40
0
40
1
40
1
40
1
40
1
10
129.141078
20
159.472904921
30
0
10
129.141078
20
159.472904921
30
0
10
131.996244
20
159.449254921
30
0
10
133.762467
20
159.217140921
30
0
0
SPLINE
5
21B
100
AcDbEntity
8
Layer_1
6
ByLayer
62
1
370
-1
100
AcDbSpline
210
0
220
0
230
1
70
8
71
3
72
8
73
4
74
0
42
1e-07
43
1e-07
40
0
40
0
40
0
40
0
40
1
40
1
40
1
40
1
10
133.762467
20
159.217140921
30
0
10
135.52869
20
158.984927921
30
0
10
139.047772
20
157.890921921
30
0
10
140.632814
20
157.682557921
30
0
0
SPLINE
5
21C
100
AcDbEntity
8
Layer_1
6
ByLayer
62
1
370
-1
100
AcDbSpline
210
0
220
0
230
1
70
8
71
3
72
8
73
4
74
0
42
1e-07
43
1e-07
40
0
40
0
40
0
40
0
40
1
40
1
40
1
40
1
10
140.632814
20
157.682557921
30
0
10
141.821596
20
157.526284921
30
0
10
143.174866
20
157.498344921
30
0
10
143.781356
20
157.497348921
30
0
0
SPLINE
5
21D
100
AcDbEntity
8
Layer_1
6
ByLayer
62
1
370
-1
100
AcDbSpline
210
0
220
0
230
1
70
8
71
3
72
8
73
4
74
0
42
1e-07
43
1e-07
40
0
40
0
40
0
40
0
40
1
40
1
40
1
40
1
10
143.781356
20
157.497348921
30
0
10
143.98352
20
157.497066921
30
0
10
144.107675
20
157.506154921
30
0
10
144.107675
20
157.506154921
30
0
0
LWPOLYLINE
5
21E
100
AcDbEntity
8
Layer_1
6
ByLayer
62
1
370
-1
100
AcDbPolyline
90
4
70
0
43
0
10
141.109064
20
161.571932921
10
141.109064
20
160.504779921
10
144.107675
20
160.504779921
10
144.107675
20
161.501376921
0
LWPOLYLINE
5
21F
100
AcDbEntity
8
Layer_1
6
ByLayer
62
1
370
-1
100
AcDbPolyline
90
6
70
0
43
0
10
115.876633
20
157.514987921
10
125.877883
20
157.514987921
10
125.877883
20
160.513598921
10
115.876633
20
160.513598921
10
115.876633
20
157.514987921
10
115.876633
20
157.514987921
0
LINE
5
220
100
AcDbEntity
8
Layer_1
6
ByLayer
62
1
370
-1
100
AcDbLine
10
91.069583
20
162.515612921
11
132.148508
21
162.515612921
0
LINE
5
221
100
AcDbEntity
8
Layer_1
6
ByLayer
62
1
370
-1
100
AcDbLine
10
10.107532
20
160.512509921
11
13.107532
21
160.512509921
0
LINE
5
222
100
AcDbEntity
8
Layer_1
6
ByLayer
62
1
370
-1
100
AcDbLine
10
68.10751
20
160.511408921
11
71.10751
21
160.511408921
0
SPLINE
5
223
100
AcDbEntity
8
Layer_1
6
ByLayer
62
1
370
-1
100
AcDbSpline
210
0
220
0
230
1
70
8
71
3
72
8
73
4
74
0
42
1e-07
43
1e-07
40
0
40
0
40
0
40
0
40
1
40
1
40
1
40
1
10
80.054097
20
152.512348921
30
0
10
79.923787
20
152.512348921
30
0
10
79.796595
20
152.535152921
30
0
10
79.683681
20
152.582904921
30
0
0
SPLINE
5
224
100
AcDbEntity
8
Layer_1
6
ByLayer
62
1
370
-1
100
AcDbSpline
210
0
220
0
230
1
70
8
71
3
72
8
73
4
74
0
42
1e-07
43
1e-07
40
0
40
0
40
0
40
0
40
1
40
1
40
1
40
1
10
79.683681
20
152.582904921
30
0
10
79.570766
20
152.630661921
30
0
10
79.469217
20
152.700353921
30
0
10
79.383819
20
152.785751921
30
0
0
SPLINE
5
225
100
AcDbEntity
8
Layer_1
6
ByLayer
62
1
370
-1
100
AcDbSpline
210
0
220
0
230
1
70
8
71
3
72
8
73
4
74
0
42
1e-07
43
1e-07
40
0
40
0
40
0
40
0
40
1
40
1
40
1
40
1
10
79.383819
20
152.785751921
30
0
10
79.298422
20
152.871149921
30
0
10
79.22873
20
152.972698921
30
0
10
79.180972
20
153.085612921
30
0
0
SPLINE
5
226
100
AcDbEntity
8
Layer_1
6
ByLayer
62
1
370
-1
100
AcDbSpline
210
0
220
0
230
1
70
8
71
3
72
8
73
4
74
0
42
1e-07
43
1e-07
40
0
40
0
40
0
40
0
40
1
40
1
40
1
40
1
10
79.180972
20
153.085612921
30
0
10
79.133215
20
153.198526921
30
0
10
79.110417
20
153.325718921
30
0
10
79.110417
20
153.456029921
30
0
0
SPLINE
5
227
100
AcDbEntity
8
Layer_1
6
ByLayer
62
1
370
-1
100
AcDbSpline
210
0
220
0
230
1
70
8
71
3
72
8
73
4
74
0
42
1e-07
43
1e-07
40
0
40
0
40
0
40
0
40
1
40
1
40
1
40
1
10
144.107675
20
153.447195921
30
0
10
144.107675
20
153.316885921
30
0
10
144.076058
20
153.198512921
30
0
10
144.0283
20
153.085598921
30
0
0
SPLINE
5
228
100
AcDbEntity
8
Layer_1
6
ByLayer
62
1
370
-1
100
AcDbSpline
210
0
220
0
230
1
70
8
71
3
72
8
73
4
74
0
42
1e-07
43
1e-07
40
0
40
0
40
0
40
0
40
1
40
1
40
1
40
1
10
144.0283
20
153.085598921
30
0
10
143.980542
20
152.972684921
30
0
10
143.91085
20
152.871134921
30
0
10
143.825453
20
152.785737921
30
0
0
SPLINE
5
229
100
AcDbEntity
8
Layer_1
6
ByLayer
62
1
370
-1
100
AcDbSpline
210
0
220
0
230
1
70
8
71
3
72
8
73
4
74
0
42
1e-07
43
1e-07
40
0
40
0
40
0
40
0
40
1
40
1
40
1
40
1
10
143.825453
20
152.785737921
30
0
10
143.740055
20
152.700339921
30
0
10
143.638506
20
152.630647921
30
0
10
143.525592
20
152.582890921
30
0
0
SPLINE
5
22A
100
AcDbEntity
8
Layer_1
6
ByLayer
62
1
370
-1
100
AcDbSpline
210
0
220
0
230
1
70
8
71
3
72
8
73
4
74
0
42
1e-07
43
1e-07
40
0
40
0
40
0
40
0
40
1
40
1
40
1
40
1
10
143.525592
20
152.582890921
30
0
10
143.412677
20
152.535132921
30
0
10
143.294305
20
152.503515921
30
0
10
143.163994
20
152.503515921
30
0
0
LINE
5
22B
100
AcDbEntity
8
Layer_1
6
ByLayer
62
1
370
-1
100
AcDbLine
10
13.107532
20
152.512509921
11
10.107532
21
152.512509921
0
LINE
5
22C
100
AcDbEntity
8
Layer_1
6
ByLayer
62
1
370
-1
100
AcDbLine
10
82.109028
20
152.512348921
11
80.054097
21
152.512348921
0
LINE
5
22D
100
AcDbEntity
8
Layer_1
6
ByLayer
62
1
370
-1
100
AcDbLine
10
71.10751
20
152.511408921
11
68.10751
21
152.511408921
0
LINE
5
22E
100
AcDbEntity
8
Layer_1
6
ByLayer
62
1
370
-1
100
AcDbLine
10
143.163994
20
152.503515921
11
141.109064
21
152.503515921
0
LINE
5
22F
100
AcDbEntity
8
Layer_1
6
ByLayer
62
1
370
-1
100
AcDbLine
10
82.109028
20
145.017595921
11
82.109028
21
152.512348921
0
LINE
5
230
100
AcDbEntity
8
Layer_1
6
ByLayer
62
1
370
-1
100
AcDbLine
10
79.110417
20
138.983082921
11
79.110417
21
144.073915921
0
LINE
5
231
100
AcDbEntity
8
Layer_1
6
ByLayer
62
1
370
-1
100
AcDbLine
10
79.110417
20
153.456029921
11
79.110417
21
157.506168921
0
LINE
5
232
100
AcDbEntity
8
Layer_1
6
ByLayer
62
1
370
-1
100
AcDbLine
10
73.105937
20
162.516371921
11
73.105937
21
137.969613921
0
LINE
5
233
100
AcDbEntity
8
Layer_1
6
ByLayer
62
1
370
-1
100
AcDbLine
10
144.107675
20
157.506154921
11
144.107675
21
153.447195921
0
LINE
5
234
100
AcDbEntity
8
Layer_1
6
ByLayer
62
1
370
-1
100
AcDbLine
10
144.107675
20
144.065081921
11
144.107675
21
138.983067921
0
LINE
5
235
100
AcDbEntity
8
Layer_1
6
ByLayer
62
1
370
-1
100
AcDbLine
10
141.109064
20
152.503515921
11
141.109064
21
145.008762921
0
LINE
5
236
100
AcDbEntity
8
Layer_1
6
ByLayer
62
1
370
-1
100
AcDbLine
10
8.105997
20
137.969613921
11
8.105997
21
162.516371921
0
LINE
5
237
100
AcDbEntity
8
Layer_1
6
ByLayer
62
1
370
-1
100
AcDbLine
10
13.107532
20
160.512509921
11
13.107532
21
152.512509921
0
LINE
5
238
100
AcDbEntity
8
Layer_1
6
ByLayer
62
1
370
-1
100
AcDbLine
10
10.107532
20
152.512509921
11
10.107532
21
160.512509921
0
LINE
5
239
100
AcDbEntity
8
Layer_1
6
ByLayer
62
1
370
-1
100
AcDbLine
10
13.107532
20
145.018953921
11
13.107532
21
137.018953921
0
LINE
5
23A
100
AcDbEntity
8
Layer_1
6
ByLayer
62
1
370
-1
100
AcDbLine
10
10.107532
20
137.018953921
11
10.107532
21
145.018953921
0
LINE
5
23B
100
AcDbEntity
8
Layer_1
6
ByLayer
62
1
370
-1
100
AcDbLine
10
71.10751
20
160.511408921
11
71.10751
21
152.511408921
0
LINE
5
23C
100
AcDbEntity
8
Layer_1
6
ByLayer
62
1
370
-1
100
AcDbLine
10
68.10751
20
152.511408921
11
68.10751
21
160.511408921
0
LINE
5
23D
100
AcDbEntity
8
Layer_1
6
ByLayer
62
1
370
-1
100
AcDbLine
10
68.10751
20
137.017849921
11
68.10751
21
145.017849921
0
LINE
5
23E
100
AcDbEntity
8
Layer_1
6
ByLayer
62
1
370
-1
100
AcDbLine
10
71.10751
20
145.017849921
11
71.10751
21
137.017849921
0
LINE
5
23F
100
AcDbEntity
8
Layer_1
6
ByLayer
62
1
370
-1
100
AcDbLine
10
97.331389
20
16.748782
11
107.332639
21
16.748782
0
LINE
5
240
100
AcDbEntity
8
Layer_1
6
ByLayer
62
1
370
-1
100
AcDbLine
10
107.332639
20
16.748782
11
107.332639
21
13.750171
0
LINE
5
241
100
AcDbEntity
8
Layer_1
6
ByLayer
62
1
370
-1
100
AcDbLine
10
107.332639
20
13.750171
11
97.331389
21
13.750171
0
LINE
5
242
100
AcDbEntity
8
Layer_1
6
ByLayer
62
1
370
-1
100
AcDbLine
10
97.331389
20
13.750171
11
97.331389
21
16.748782
0
LINE
5
243
100
AcDbEntity
8
Layer_1
6
ByLayer
62
1
370
-1
100
AcDbLine
10
97.331389
20
16.748782
11
97.331389
21
16.748782
0
CIRCLE
5
244
100
AcDbEntity
8
Layer_1
6
ByLayer
62
1
370
-1
100
AcDbCircle
10
15.1075
20
18.7488
40
1.2
0
LINE
5
245
100
AcDbEntity
8
Layer_1
6
ByLayer
62
1
370
-1
100
AcDbLine
10
51.4882598044
20
58.5774188367
11
45.4882598044
21
58.5774188367
0
LINE
5
246
100
AcDbEntity
8
Layer_1
6
ByLayer
62
1
370
-1
100
AcDbLine
10
45.4882598044
20
57.3774188367
11
45.4882598044
21
58.5774188367
0
LINE
5
247
100
AcDbEntity
8
Layer_1
6
ByLayer
62
1
370
-1
100
AcDbLine
10
51.4882598044
20
57.3774188367
11
51.4882598044
21
58.5774188367
0
LINE
5
248
100
AcDbEntity
8
Layer_1
6
ByLayer
62
1
370
-1
100
AcDbLine
10
51.4882598044
20
57.3774188367
11
45.4882598044
21
57.3774188367
0
LINE
5
249
100
AcDbEntity
8
Layer_1
6
ByLayer
62
1
370
-1
100
AcDbLine
10
51.4882598044
20
56.1774188367
11
45.4882598044
21
56.1774188367
0
LINE
5
24A
100
AcDbEntity
8
Layer_1
6
ByLayer
62
1
370
-1
100
AcDbLine
10
45.4882598044
20
54.9774188367
11
45.4882598044
21
56.1774188367
0
LINE
5
24B
100
AcDbEntity
8
Layer_1
6
ByLayer
62
1
370
-1
100
AcDbLine
10
51.4882598044
20
54.9774188367
11
51.4882598044
21
56.1774188367
0
LINE
5
24C
100
AcDbEntity
8
Layer_1
6
ByLayer
62
1
370
-1
100
AcDbLine
10
51.4882598044
20
54.9774188367
11
45.4882598044
21
54.9774188367
0
LINE
5
24D
100
AcDbEntity
8
Layer_1
6
ByLayer
62
1
370
-1
100
AcDbLine
10
51.4882598044
20
53.7774188367
11
45.4882598044
21
53.7774188367
0
LINE
5
24E
100
AcDbEntity
8
Layer_1
6
ByLayer
62
1
370
-1
100
AcDbLine
10
45.4882598044
20
52.5774188367
11
45.4882598044
21
53.7774188367
0
LINE
5
24F
100
AcDbEntity
8
Layer_1
6
ByLayer
62
1
370
-1
100
AcDbLine
10
51.4882598044
20
52.5774188367
11
51.4882598044
21
53.7774188367
0
LINE
5
250
100
AcDbEntity
8
Layer_1
6
ByLayer
62
1
370
-1
100
AcDbLine
10
51.4882598044
20
52.5774188367
11
45.4882598044
21
52.5774188367
0
MTEXT
5
251
100
AcDbEntity
8
0
6
ByLayer
62
256
370
-1
100
AcDbMText
10
132.071424903
20
73.163700053
30
0
40
1
41
16.3333348762
71
1
72
1
1
based on\Phttps://github.com/\Pdiy-electronics/\Praspberrypi-b-plus-case
7
opengosttypea-regular
210
0
220
0
230
1
50
90
73
2
44
1
0
TEXT
5
252
100
AcDbEntity
8
0
6
ByLayer
62
256
370
-1
100
AcDbText
10
130.856909715
20
54.9196384158
30
0
40
2
1
FoxTemp2016
50
90
41
1
51
0
7
OpenGostTypeA-Regular
71
0
210
0
220
0
230
1
100
AcDbText
0
ENDSEC
0
SECTION
2
OBJECTS
0
DICTIONARY
5
C
330
0
100
AcDbDictionary
281
1
3
ACAD_GROUP
350
D
0
DICTIONARY
5
D
330
C
100
AcDbDictionary
281
1
0
ENDSEC
0
EOF
